%TF.GenerationSoftware,KiCad,Pcbnew,10.0.1*%
%TF.CreationDate,2026-07-25T21:17:19+02:00*%
%TF.ProjectId,MMS3_hat_Meter-Source,4d4d5333-5f68-4617-945f-4d657465722d,R0*%
%TF.SameCoordinates,Original*%
%TF.FileFunction,Legend,Bot*%
%TF.FilePolarity,Positive*%
%FSLAX46Y46*%
G04 Gerber Fmt 4.6, Leading zero omitted, Abs format (unit mm)*
G04 Created by KiCad (PCBNEW 10.0.1) date 2026-07-25 21:17:19*
%MOMM*%
%LPD*%
G01*
G04 APERTURE LIST*
G04 Aperture macros list*
%AMRoundRect*
0 Rectangle with rounded corners*
0 $1 Rounding radius*
0 $2 $3 $4 $5 $6 $7 $8 $9 X,Y pos of 4 corners*
0 Add a 4 corners polygon primitive as box body*
4,1,4,$2,$3,$4,$5,$6,$7,$8,$9,$2,$3,0*
0 Add four circle primitives for the rounded corners*
1,1,$1+$1,$2,$3*
1,1,$1+$1,$4,$5*
1,1,$1+$1,$6,$7*
1,1,$1+$1,$8,$9*
0 Add four rect primitives between the rounded corners*
20,1,$1+$1,$2,$3,$4,$5,0*
20,1,$1+$1,$4,$5,$6,$7,0*
20,1,$1+$1,$6,$7,$8,$9,0*
20,1,$1+$1,$8,$9,$2,$3,0*%
G04 Aperture macros list end*
%ADD10C,0.100000*%
%ADD11C,0.200000*%
%ADD12C,0.150000*%
%ADD13C,0.220000*%
%ADD14C,0.300000*%
%ADD15C,0.400000*%
%ADD16C,0.120000*%
%ADD17C,0.000000*%
%ADD18C,3.200000*%
%ADD19C,3.600000*%
%ADD20RoundRect,0.250000X-0.600000X-0.750000X0.600000X-0.750000X0.600000X0.750000X-0.600000X0.750000X0*%
%ADD21O,1.700000X2.000000*%
%ADD22R,0.900000X2.000000*%
%ADD23RoundRect,1.025000X1.025000X1.025000X-1.025000X1.025000X-1.025000X-1.025000X1.025000X-1.025000X0*%
%ADD24C,4.100000*%
%ADD25R,1.700000X1.700000*%
%ADD26C,1.700000*%
%ADD27C,2.700000*%
%ADD28R,1.000000X3.150000*%
G04 APERTURE END LIST*
D10*
X88605478Y-107477896D02*
X92705478Y-107477896D01*
D11*
X88700429Y-106798035D02*
X88712981Y-103587809D01*
X89605640Y-103232406D02*
G75*
G02*
X90709353Y-103199316I578360J-867494D01*
G01*
X89616162Y-103232219D02*
G75*
G02*
X88712981Y-103587789I-879962J910319D01*
G01*
X89635563Y-106442038D02*
G75*
G02*
X90739254Y-106408985I578337J-868062D01*
G01*
X89647124Y-106442926D02*
G75*
G02*
X88700428Y-106797462I-881024J911326D01*
G01*
X90724121Y-106408188D02*
X90741011Y-103220161D01*
X90724121Y-106408188D02*
G75*
G02*
X91827841Y-106441248I525379J-900612D01*
G01*
X90741011Y-103220161D02*
G75*
G02*
X91817325Y-103246644I516689J-885739D01*
G01*
X92705321Y-106789187D02*
G75*
G02*
X91822647Y-106435556I-8021J1258387D01*
G01*
X92705321Y-106789187D02*
X92715947Y-103605724D01*
D10*
X92705478Y-107477896D02*
X92255478Y-107927896D01*
D11*
X92715947Y-103605724D02*
G75*
G02*
X91817327Y-103246645I-10447J1277824D01*
G01*
D10*
X116800000Y-107000000D02*
G75*
G02*
X106800000Y-107000000I-5000000J0D01*
G01*
X106800000Y-107000000D02*
G75*
G02*
X116800000Y-107000000I5000000J0D01*
G01*
X117600000Y-104800000D02*
X133200000Y-104800000D01*
X133200000Y-111800000D01*
X117600000Y-111800000D01*
X117600000Y-104800000D01*
X117650000Y-102350000D02*
X118750000Y-102350000D01*
X117650000Y-103800000D02*
X118750000Y-103800000D01*
X117650000Y-104300000D02*
X117650000Y-101700000D01*
X118797214Y-103100000D02*
G75*
G02*
X117902786Y-103100000I-447214J0D01*
G01*
X117902786Y-103100000D02*
G75*
G02*
X118797214Y-103100000I447214J0D01*
G01*
X118750000Y-102350000D02*
X119050000Y-102650000D01*
X118750000Y-103800000D02*
X119050000Y-103500000D01*
X119050000Y-102700000D02*
X119050000Y-104300000D01*
X119050000Y-104300000D02*
X117650000Y-104300000D01*
X119050000Y-104300000D02*
X149100000Y-104300000D01*
X119450000Y-101700000D02*
X117650000Y-101700000D01*
X119450000Y-101700000D02*
X119450000Y-102700000D01*
X119450000Y-102700000D02*
X119050000Y-102700000D01*
X129950000Y-92375000D02*
X129950000Y-91925000D01*
X133600000Y-104800000D02*
X149100000Y-111800000D01*
X133600000Y-104800000D02*
X149100000Y-104800000D01*
X149100000Y-111800000D01*
X133600000Y-111800000D01*
X133600000Y-104800000D01*
X139150000Y-92375000D02*
X139150000Y-91925000D01*
X139850000Y-92375000D02*
X139850000Y-91925000D01*
X146250000Y-126400000D02*
X169750000Y-126400000D01*
X147300000Y-101700000D02*
X119450000Y-101700000D01*
X147300000Y-101700000D02*
X147300000Y-102700000D01*
X147300000Y-101700000D02*
X149100000Y-101700000D01*
X147300000Y-102700000D02*
X147700000Y-102700000D01*
X147700000Y-102700000D02*
X147700000Y-104300000D01*
X148000000Y-102350000D02*
X147700000Y-102650000D01*
X148847214Y-103100000D02*
G75*
G02*
X147952786Y-103100000I-447214J0D01*
G01*
X147952786Y-103100000D02*
G75*
G02*
X148847214Y-103100000I447214J0D01*
G01*
X149050000Y-92375000D02*
X149050000Y-91925000D01*
X149100000Y-102350000D02*
X148000000Y-102350000D01*
X149100000Y-104300000D02*
X149100000Y-101700000D01*
X132577068Y-105407507D02*
X132234211Y-105407507D01*
X132405639Y-106007507D02*
X132405639Y-105407507D01*
X132034210Y-106007507D02*
X132034210Y-105407507D01*
X131777068Y-106007507D02*
X131777068Y-105693221D01*
X131777068Y-105693221D02*
X131805639Y-105636078D01*
X131805639Y-105636078D02*
X131862782Y-105607507D01*
X131862782Y-105607507D02*
X131948496Y-105607507D01*
X131948496Y-105607507D02*
X132005639Y-105636078D01*
X132005639Y-105636078D02*
X132034210Y-105664650D01*
X131491353Y-106007507D02*
X131491353Y-105607507D01*
X131491353Y-105407507D02*
X131519925Y-105436078D01*
X131519925Y-105436078D02*
X131491353Y-105464650D01*
X131491353Y-105464650D02*
X131462782Y-105436078D01*
X131462782Y-105436078D02*
X131491353Y-105407507D01*
X131491353Y-105407507D02*
X131491353Y-105464650D01*
X131234211Y-105978936D02*
X131177068Y-106007507D01*
X131177068Y-106007507D02*
X131062782Y-106007507D01*
X131062782Y-106007507D02*
X131005639Y-105978936D01*
X131005639Y-105978936D02*
X130977068Y-105921793D01*
X130977068Y-105921793D02*
X130977068Y-105893221D01*
X130977068Y-105893221D02*
X131005639Y-105836078D01*
X131005639Y-105836078D02*
X131062782Y-105807507D01*
X131062782Y-105807507D02*
X131148497Y-105807507D01*
X131148497Y-105807507D02*
X131205639Y-105778936D01*
X131205639Y-105778936D02*
X131234211Y-105721793D01*
X131234211Y-105721793D02*
X131234211Y-105693221D01*
X131234211Y-105693221D02*
X131205639Y-105636078D01*
X131205639Y-105636078D02*
X131148497Y-105607507D01*
X131148497Y-105607507D02*
X131062782Y-105607507D01*
X131062782Y-105607507D02*
X131005639Y-105636078D01*
X130262782Y-106007507D02*
X130262782Y-105607507D01*
X130262782Y-105407507D02*
X130291354Y-105436078D01*
X130291354Y-105436078D02*
X130262782Y-105464650D01*
X130262782Y-105464650D02*
X130234211Y-105436078D01*
X130234211Y-105436078D02*
X130262782Y-105407507D01*
X130262782Y-105407507D02*
X130262782Y-105464650D01*
X130005640Y-105978936D02*
X129948497Y-106007507D01*
X129948497Y-106007507D02*
X129834211Y-106007507D01*
X129834211Y-106007507D02*
X129777068Y-105978936D01*
X129777068Y-105978936D02*
X129748497Y-105921793D01*
X129748497Y-105921793D02*
X129748497Y-105893221D01*
X129748497Y-105893221D02*
X129777068Y-105836078D01*
X129777068Y-105836078D02*
X129834211Y-105807507D01*
X129834211Y-105807507D02*
X129919926Y-105807507D01*
X129919926Y-105807507D02*
X129977068Y-105778936D01*
X129977068Y-105778936D02*
X130005640Y-105721793D01*
X130005640Y-105721793D02*
X130005640Y-105693221D01*
X130005640Y-105693221D02*
X129977068Y-105636078D01*
X129977068Y-105636078D02*
X129919926Y-105607507D01*
X129919926Y-105607507D02*
X129834211Y-105607507D01*
X129834211Y-105607507D02*
X129777068Y-105636078D01*
X129034211Y-105607507D02*
X129034211Y-106207507D01*
X129034211Y-105636078D02*
X128977069Y-105607507D01*
X128977069Y-105607507D02*
X128862783Y-105607507D01*
X128862783Y-105607507D02*
X128805640Y-105636078D01*
X128805640Y-105636078D02*
X128777069Y-105664650D01*
X128777069Y-105664650D02*
X128748497Y-105721793D01*
X128748497Y-105721793D02*
X128748497Y-105893221D01*
X128748497Y-105893221D02*
X128777069Y-105950364D01*
X128777069Y-105950364D02*
X128805640Y-105978936D01*
X128805640Y-105978936D02*
X128862783Y-106007507D01*
X128862783Y-106007507D02*
X128977069Y-106007507D01*
X128977069Y-106007507D02*
X129034211Y-105978936D01*
X128491354Y-106007507D02*
X128491354Y-105607507D01*
X128491354Y-105721793D02*
X128462783Y-105664650D01*
X128462783Y-105664650D02*
X128434212Y-105636078D01*
X128434212Y-105636078D02*
X128377069Y-105607507D01*
X128377069Y-105607507D02*
X128319926Y-105607507D01*
X128034211Y-106007507D02*
X128091354Y-105978936D01*
X128091354Y-105978936D02*
X128119925Y-105950364D01*
X128119925Y-105950364D02*
X128148497Y-105893221D01*
X128148497Y-105893221D02*
X128148497Y-105721793D01*
X128148497Y-105721793D02*
X128119925Y-105664650D01*
X128119925Y-105664650D02*
X128091354Y-105636078D01*
X128091354Y-105636078D02*
X128034211Y-105607507D01*
X128034211Y-105607507D02*
X127948497Y-105607507D01*
X127948497Y-105607507D02*
X127891354Y-105636078D01*
X127891354Y-105636078D02*
X127862783Y-105664650D01*
X127862783Y-105664650D02*
X127834211Y-105721793D01*
X127834211Y-105721793D02*
X127834211Y-105893221D01*
X127834211Y-105893221D02*
X127862783Y-105950364D01*
X127862783Y-105950364D02*
X127891354Y-105978936D01*
X127891354Y-105978936D02*
X127948497Y-106007507D01*
X127948497Y-106007507D02*
X128034211Y-106007507D01*
X127662783Y-105607507D02*
X127434211Y-105607507D01*
X127577068Y-105407507D02*
X127577068Y-105921793D01*
X127577068Y-105921793D02*
X127548497Y-105978936D01*
X127548497Y-105978936D02*
X127491354Y-106007507D01*
X127491354Y-106007507D02*
X127434211Y-106007507D01*
X127148497Y-106007507D02*
X127205640Y-105978936D01*
X127205640Y-105978936D02*
X127234211Y-105950364D01*
X127234211Y-105950364D02*
X127262783Y-105893221D01*
X127262783Y-105893221D02*
X127262783Y-105721793D01*
X127262783Y-105721793D02*
X127234211Y-105664650D01*
X127234211Y-105664650D02*
X127205640Y-105636078D01*
X127205640Y-105636078D02*
X127148497Y-105607507D01*
X127148497Y-105607507D02*
X127062783Y-105607507D01*
X127062783Y-105607507D02*
X127005640Y-105636078D01*
X127005640Y-105636078D02*
X126977069Y-105664650D01*
X126977069Y-105664650D02*
X126948497Y-105721793D01*
X126948497Y-105721793D02*
X126948497Y-105893221D01*
X126948497Y-105893221D02*
X126977069Y-105950364D01*
X126977069Y-105950364D02*
X127005640Y-105978936D01*
X127005640Y-105978936D02*
X127062783Y-106007507D01*
X127062783Y-106007507D02*
X127148497Y-106007507D01*
X126777069Y-105607507D02*
X126548497Y-105607507D01*
X126691354Y-105407507D02*
X126691354Y-105921793D01*
X126691354Y-105921793D02*
X126662783Y-105978936D01*
X126662783Y-105978936D02*
X126605640Y-106007507D01*
X126605640Y-106007507D02*
X126548497Y-106007507D01*
X126405640Y-105607507D02*
X126262783Y-106007507D01*
X126119926Y-105607507D02*
X126262783Y-106007507D01*
X126262783Y-106007507D02*
X126319926Y-106150364D01*
X126319926Y-106150364D02*
X126348497Y-106178936D01*
X126348497Y-106178936D02*
X126405640Y-106207507D01*
X125891354Y-105607507D02*
X125891354Y-106207507D01*
X125891354Y-105636078D02*
X125834212Y-105607507D01*
X125834212Y-105607507D02*
X125719926Y-105607507D01*
X125719926Y-105607507D02*
X125662783Y-105636078D01*
X125662783Y-105636078D02*
X125634212Y-105664650D01*
X125634212Y-105664650D02*
X125605640Y-105721793D01*
X125605640Y-105721793D02*
X125605640Y-105893221D01*
X125605640Y-105893221D02*
X125634212Y-105950364D01*
X125634212Y-105950364D02*
X125662783Y-105978936D01*
X125662783Y-105978936D02*
X125719926Y-106007507D01*
X125719926Y-106007507D02*
X125834212Y-106007507D01*
X125834212Y-106007507D02*
X125891354Y-105978936D01*
X125119926Y-105978936D02*
X125177069Y-106007507D01*
X125177069Y-106007507D02*
X125291355Y-106007507D01*
X125291355Y-106007507D02*
X125348497Y-105978936D01*
X125348497Y-105978936D02*
X125377069Y-105921793D01*
X125377069Y-105921793D02*
X125377069Y-105693221D01*
X125377069Y-105693221D02*
X125348497Y-105636078D01*
X125348497Y-105636078D02*
X125291355Y-105607507D01*
X125291355Y-105607507D02*
X125177069Y-105607507D01*
X125177069Y-105607507D02*
X125119926Y-105636078D01*
X125119926Y-105636078D02*
X125091355Y-105693221D01*
X125091355Y-105693221D02*
X125091355Y-105750364D01*
X125091355Y-105750364D02*
X125377069Y-105807507D01*
X124119926Y-106007507D02*
X124119926Y-105407507D01*
X124119926Y-105978936D02*
X124177068Y-106007507D01*
X124177068Y-106007507D02*
X124291354Y-106007507D01*
X124291354Y-106007507D02*
X124348497Y-105978936D01*
X124348497Y-105978936D02*
X124377068Y-105950364D01*
X124377068Y-105950364D02*
X124405640Y-105893221D01*
X124405640Y-105893221D02*
X124405640Y-105721793D01*
X124405640Y-105721793D02*
X124377068Y-105664650D01*
X124377068Y-105664650D02*
X124348497Y-105636078D01*
X124348497Y-105636078D02*
X124291354Y-105607507D01*
X124291354Y-105607507D02*
X124177068Y-105607507D01*
X124177068Y-105607507D02*
X124119926Y-105636078D01*
X123605640Y-105978936D02*
X123662783Y-106007507D01*
X123662783Y-106007507D02*
X123777069Y-106007507D01*
X123777069Y-106007507D02*
X123834211Y-105978936D01*
X123834211Y-105978936D02*
X123862783Y-105921793D01*
X123862783Y-105921793D02*
X123862783Y-105693221D01*
X123862783Y-105693221D02*
X123834211Y-105636078D01*
X123834211Y-105636078D02*
X123777069Y-105607507D01*
X123777069Y-105607507D02*
X123662783Y-105607507D01*
X123662783Y-105607507D02*
X123605640Y-105636078D01*
X123605640Y-105636078D02*
X123577069Y-105693221D01*
X123577069Y-105693221D02*
X123577069Y-105750364D01*
X123577069Y-105750364D02*
X123862783Y-105807507D01*
X123377068Y-105607507D02*
X123234211Y-106007507D01*
X123234211Y-106007507D02*
X123091354Y-105607507D01*
X122862782Y-106007507D02*
X122862782Y-105607507D01*
X122862782Y-105407507D02*
X122891354Y-105436078D01*
X122891354Y-105436078D02*
X122862782Y-105464650D01*
X122862782Y-105464650D02*
X122834211Y-105436078D01*
X122834211Y-105436078D02*
X122862782Y-105407507D01*
X122862782Y-105407507D02*
X122862782Y-105464650D01*
X122319926Y-105978936D02*
X122377068Y-106007507D01*
X122377068Y-106007507D02*
X122491354Y-106007507D01*
X122491354Y-106007507D02*
X122548497Y-105978936D01*
X122548497Y-105978936D02*
X122577068Y-105950364D01*
X122577068Y-105950364D02*
X122605640Y-105893221D01*
X122605640Y-105893221D02*
X122605640Y-105721793D01*
X122605640Y-105721793D02*
X122577068Y-105664650D01*
X122577068Y-105664650D02*
X122548497Y-105636078D01*
X122548497Y-105636078D02*
X122491354Y-105607507D01*
X122491354Y-105607507D02*
X122377068Y-105607507D01*
X122377068Y-105607507D02*
X122319926Y-105636078D01*
X121834211Y-105978936D02*
X121891354Y-106007507D01*
X121891354Y-106007507D02*
X122005640Y-106007507D01*
X122005640Y-106007507D02*
X122062782Y-105978936D01*
X122062782Y-105978936D02*
X122091354Y-105921793D01*
X122091354Y-105921793D02*
X122091354Y-105693221D01*
X122091354Y-105693221D02*
X122062782Y-105636078D01*
X122062782Y-105636078D02*
X122005640Y-105607507D01*
X122005640Y-105607507D02*
X121891354Y-105607507D01*
X121891354Y-105607507D02*
X121834211Y-105636078D01*
X121834211Y-105636078D02*
X121805640Y-105693221D01*
X121805640Y-105693221D02*
X121805640Y-105750364D01*
X121805640Y-105750364D02*
X122091354Y-105807507D01*
X132491353Y-106973473D02*
X132491353Y-106373473D01*
X132291354Y-106573473D02*
X132062782Y-106573473D01*
X132205639Y-106373473D02*
X132205639Y-106887759D01*
X132205639Y-106887759D02*
X132177068Y-106944902D01*
X132177068Y-106944902D02*
X132119925Y-106973473D01*
X132119925Y-106973473D02*
X132062782Y-106973473D01*
X131405639Y-106973473D02*
X131405639Y-106573473D01*
X131405639Y-106373473D02*
X131434211Y-106402044D01*
X131434211Y-106402044D02*
X131405639Y-106430616D01*
X131405639Y-106430616D02*
X131377068Y-106402044D01*
X131377068Y-106402044D02*
X131405639Y-106373473D01*
X131405639Y-106373473D02*
X131405639Y-106430616D01*
X131148497Y-106944902D02*
X131091354Y-106973473D01*
X131091354Y-106973473D02*
X130977068Y-106973473D01*
X130977068Y-106973473D02*
X130919925Y-106944902D01*
X130919925Y-106944902D02*
X130891354Y-106887759D01*
X130891354Y-106887759D02*
X130891354Y-106859187D01*
X130891354Y-106859187D02*
X130919925Y-106802044D01*
X130919925Y-106802044D02*
X130977068Y-106773473D01*
X130977068Y-106773473D02*
X131062783Y-106773473D01*
X131062783Y-106773473D02*
X131119925Y-106744902D01*
X131119925Y-106744902D02*
X131148497Y-106687759D01*
X131148497Y-106687759D02*
X131148497Y-106659187D01*
X131148497Y-106659187D02*
X131119925Y-106602044D01*
X131119925Y-106602044D02*
X131062783Y-106573473D01*
X131062783Y-106573473D02*
X130977068Y-106573473D01*
X130977068Y-106573473D02*
X130919925Y-106602044D01*
X130177068Y-106573473D02*
X130177068Y-106973473D01*
X130177068Y-106630616D02*
X130148497Y-106602044D01*
X130148497Y-106602044D02*
X130091354Y-106573473D01*
X130091354Y-106573473D02*
X130005640Y-106573473D01*
X130005640Y-106573473D02*
X129948497Y-106602044D01*
X129948497Y-106602044D02*
X129919926Y-106659187D01*
X129919926Y-106659187D02*
X129919926Y-106973473D01*
X129548497Y-106973473D02*
X129605640Y-106944902D01*
X129605640Y-106944902D02*
X129634211Y-106916330D01*
X129634211Y-106916330D02*
X129662783Y-106859187D01*
X129662783Y-106859187D02*
X129662783Y-106687759D01*
X129662783Y-106687759D02*
X129634211Y-106630616D01*
X129634211Y-106630616D02*
X129605640Y-106602044D01*
X129605640Y-106602044D02*
X129548497Y-106573473D01*
X129548497Y-106573473D02*
X129462783Y-106573473D01*
X129462783Y-106573473D02*
X129405640Y-106602044D01*
X129405640Y-106602044D02*
X129377069Y-106630616D01*
X129377069Y-106630616D02*
X129348497Y-106687759D01*
X129348497Y-106687759D02*
X129348497Y-106859187D01*
X129348497Y-106859187D02*
X129377069Y-106916330D01*
X129377069Y-106916330D02*
X129405640Y-106944902D01*
X129405640Y-106944902D02*
X129462783Y-106973473D01*
X129462783Y-106973473D02*
X129548497Y-106973473D01*
X129177069Y-106573473D02*
X128948497Y-106573473D01*
X129091354Y-106373473D02*
X129091354Y-106887759D01*
X129091354Y-106887759D02*
X129062783Y-106944902D01*
X129062783Y-106944902D02*
X129005640Y-106973473D01*
X129005640Y-106973473D02*
X128948497Y-106973473D01*
X128034212Y-106944902D02*
X128091354Y-106973473D01*
X128091354Y-106973473D02*
X128205640Y-106973473D01*
X128205640Y-106973473D02*
X128262783Y-106944902D01*
X128262783Y-106944902D02*
X128291354Y-106916330D01*
X128291354Y-106916330D02*
X128319926Y-106859187D01*
X128319926Y-106859187D02*
X128319926Y-106687759D01*
X128319926Y-106687759D02*
X128291354Y-106630616D01*
X128291354Y-106630616D02*
X128262783Y-106602044D01*
X128262783Y-106602044D02*
X128205640Y-106573473D01*
X128205640Y-106573473D02*
X128091354Y-106573473D01*
X128091354Y-106573473D02*
X128034212Y-106602044D01*
X127548497Y-106944902D02*
X127605640Y-106973473D01*
X127605640Y-106973473D02*
X127719926Y-106973473D01*
X127719926Y-106973473D02*
X127777068Y-106944902D01*
X127777068Y-106944902D02*
X127805640Y-106887759D01*
X127805640Y-106887759D02*
X127805640Y-106659187D01*
X127805640Y-106659187D02*
X127777068Y-106602044D01*
X127777068Y-106602044D02*
X127719926Y-106573473D01*
X127719926Y-106573473D02*
X127605640Y-106573473D01*
X127605640Y-106573473D02*
X127548497Y-106602044D01*
X127548497Y-106602044D02*
X127519926Y-106659187D01*
X127519926Y-106659187D02*
X127519926Y-106716330D01*
X127519926Y-106716330D02*
X127805640Y-106773473D01*
X127262782Y-106973473D02*
X127262782Y-106573473D01*
X127262782Y-106687759D02*
X127234211Y-106630616D01*
X127234211Y-106630616D02*
X127205640Y-106602044D01*
X127205640Y-106602044D02*
X127148497Y-106573473D01*
X127148497Y-106573473D02*
X127091354Y-106573473D01*
X126977068Y-106573473D02*
X126748496Y-106573473D01*
X126891353Y-106373473D02*
X126891353Y-106887759D01*
X126891353Y-106887759D02*
X126862782Y-106944902D01*
X126862782Y-106944902D02*
X126805639Y-106973473D01*
X126805639Y-106973473D02*
X126748496Y-106973473D01*
X126548496Y-106973473D02*
X126548496Y-106573473D01*
X126548496Y-106373473D02*
X126577068Y-106402044D01*
X126577068Y-106402044D02*
X126548496Y-106430616D01*
X126548496Y-106430616D02*
X126519925Y-106402044D01*
X126519925Y-106402044D02*
X126548496Y-106373473D01*
X126548496Y-106373473D02*
X126548496Y-106430616D01*
X126348497Y-106573473D02*
X126119925Y-106573473D01*
X126262782Y-106973473D02*
X126262782Y-106459187D01*
X126262782Y-106459187D02*
X126234211Y-106402044D01*
X126234211Y-106402044D02*
X126177068Y-106373473D01*
X126177068Y-106373473D02*
X126119925Y-106373473D01*
X125919925Y-106973473D02*
X125919925Y-106573473D01*
X125919925Y-106373473D02*
X125948497Y-106402044D01*
X125948497Y-106402044D02*
X125919925Y-106430616D01*
X125919925Y-106430616D02*
X125891354Y-106402044D01*
X125891354Y-106402044D02*
X125919925Y-106373473D01*
X125919925Y-106373473D02*
X125919925Y-106430616D01*
X125405640Y-106944902D02*
X125462783Y-106973473D01*
X125462783Y-106973473D02*
X125577069Y-106973473D01*
X125577069Y-106973473D02*
X125634211Y-106944902D01*
X125634211Y-106944902D02*
X125662783Y-106887759D01*
X125662783Y-106887759D02*
X125662783Y-106659187D01*
X125662783Y-106659187D02*
X125634211Y-106602044D01*
X125634211Y-106602044D02*
X125577069Y-106573473D01*
X125577069Y-106573473D02*
X125462783Y-106573473D01*
X125462783Y-106573473D02*
X125405640Y-106602044D01*
X125405640Y-106602044D02*
X125377069Y-106659187D01*
X125377069Y-106659187D02*
X125377069Y-106716330D01*
X125377069Y-106716330D02*
X125662783Y-106773473D01*
X124862783Y-106973473D02*
X124862783Y-106373473D01*
X124862783Y-106944902D02*
X124919925Y-106973473D01*
X124919925Y-106973473D02*
X125034211Y-106973473D01*
X125034211Y-106973473D02*
X125091354Y-106944902D01*
X125091354Y-106944902D02*
X125119925Y-106916330D01*
X125119925Y-106916330D02*
X125148497Y-106859187D01*
X125148497Y-106859187D02*
X125148497Y-106687759D01*
X125148497Y-106687759D02*
X125119925Y-106630616D01*
X125119925Y-106630616D02*
X125091354Y-106602044D01*
X125091354Y-106602044D02*
X125034211Y-106573473D01*
X125034211Y-106573473D02*
X124919925Y-106573473D01*
X124919925Y-106573473D02*
X124862783Y-106602044D01*
X123862783Y-106973473D02*
X123862783Y-106659187D01*
X123862783Y-106659187D02*
X123891354Y-106602044D01*
X123891354Y-106602044D02*
X123948497Y-106573473D01*
X123948497Y-106573473D02*
X124062783Y-106573473D01*
X124062783Y-106573473D02*
X124119925Y-106602044D01*
X123862783Y-106944902D02*
X123919925Y-106973473D01*
X123919925Y-106973473D02*
X124062783Y-106973473D01*
X124062783Y-106973473D02*
X124119925Y-106944902D01*
X124119925Y-106944902D02*
X124148497Y-106887759D01*
X124148497Y-106887759D02*
X124148497Y-106830616D01*
X124148497Y-106830616D02*
X124119925Y-106773473D01*
X124119925Y-106773473D02*
X124062783Y-106744902D01*
X124062783Y-106744902D02*
X123919925Y-106744902D01*
X123919925Y-106744902D02*
X123862783Y-106716330D01*
X123319926Y-106944902D02*
X123377068Y-106973473D01*
X123377068Y-106973473D02*
X123491354Y-106973473D01*
X123491354Y-106973473D02*
X123548497Y-106944902D01*
X123548497Y-106944902D02*
X123577068Y-106916330D01*
X123577068Y-106916330D02*
X123605640Y-106859187D01*
X123605640Y-106859187D02*
X123605640Y-106687759D01*
X123605640Y-106687759D02*
X123577068Y-106630616D01*
X123577068Y-106630616D02*
X123548497Y-106602044D01*
X123548497Y-106602044D02*
X123491354Y-106573473D01*
X123491354Y-106573473D02*
X123377068Y-106573473D01*
X123377068Y-106573473D02*
X123319926Y-106602044D01*
X122805640Y-106944902D02*
X122862782Y-106973473D01*
X122862782Y-106973473D02*
X122977068Y-106973473D01*
X122977068Y-106973473D02*
X123034211Y-106944902D01*
X123034211Y-106944902D02*
X123062782Y-106916330D01*
X123062782Y-106916330D02*
X123091354Y-106859187D01*
X123091354Y-106859187D02*
X123091354Y-106687759D01*
X123091354Y-106687759D02*
X123062782Y-106630616D01*
X123062782Y-106630616D02*
X123034211Y-106602044D01*
X123034211Y-106602044D02*
X122977068Y-106573473D01*
X122977068Y-106573473D02*
X122862782Y-106573473D01*
X122862782Y-106573473D02*
X122805640Y-106602044D01*
X122462782Y-106973473D02*
X122519925Y-106944902D01*
X122519925Y-106944902D02*
X122548496Y-106916330D01*
X122548496Y-106916330D02*
X122577068Y-106859187D01*
X122577068Y-106859187D02*
X122577068Y-106687759D01*
X122577068Y-106687759D02*
X122548496Y-106630616D01*
X122548496Y-106630616D02*
X122519925Y-106602044D01*
X122519925Y-106602044D02*
X122462782Y-106573473D01*
X122462782Y-106573473D02*
X122377068Y-106573473D01*
X122377068Y-106573473D02*
X122319925Y-106602044D01*
X122319925Y-106602044D02*
X122291354Y-106630616D01*
X122291354Y-106630616D02*
X122262782Y-106687759D01*
X122262782Y-106687759D02*
X122262782Y-106859187D01*
X122262782Y-106859187D02*
X122291354Y-106916330D01*
X122291354Y-106916330D02*
X122319925Y-106944902D01*
X122319925Y-106944902D02*
X122377068Y-106973473D01*
X122377068Y-106973473D02*
X122462782Y-106973473D01*
X122005639Y-106973473D02*
X122005639Y-106573473D01*
X122005639Y-106687759D02*
X121977068Y-106630616D01*
X121977068Y-106630616D02*
X121948497Y-106602044D01*
X121948497Y-106602044D02*
X121891354Y-106573473D01*
X121891354Y-106573473D02*
X121834211Y-106573473D01*
X121377068Y-106973473D02*
X121377068Y-106373473D01*
X121377068Y-106944902D02*
X121434210Y-106973473D01*
X121434210Y-106973473D02*
X121548496Y-106973473D01*
X121548496Y-106973473D02*
X121605639Y-106944902D01*
X121605639Y-106944902D02*
X121634210Y-106916330D01*
X121634210Y-106916330D02*
X121662782Y-106859187D01*
X121662782Y-106859187D02*
X121662782Y-106687759D01*
X121662782Y-106687759D02*
X121634210Y-106630616D01*
X121634210Y-106630616D02*
X121605639Y-106602044D01*
X121605639Y-106602044D02*
X121548496Y-106573473D01*
X121548496Y-106573473D02*
X121434210Y-106573473D01*
X121434210Y-106573473D02*
X121377068Y-106602044D01*
X121091353Y-106973473D02*
X121091353Y-106573473D01*
X121091353Y-106373473D02*
X121119925Y-106402044D01*
X121119925Y-106402044D02*
X121091353Y-106430616D01*
X121091353Y-106430616D02*
X121062782Y-106402044D01*
X121062782Y-106402044D02*
X121091353Y-106373473D01*
X121091353Y-106373473D02*
X121091353Y-106430616D01*
X120805639Y-106573473D02*
X120805639Y-106973473D01*
X120805639Y-106630616D02*
X120777068Y-106602044D01*
X120777068Y-106602044D02*
X120719925Y-106573473D01*
X120719925Y-106573473D02*
X120634211Y-106573473D01*
X120634211Y-106573473D02*
X120577068Y-106602044D01*
X120577068Y-106602044D02*
X120548497Y-106659187D01*
X120548497Y-106659187D02*
X120548497Y-106973473D01*
X120005640Y-106573473D02*
X120005640Y-107059187D01*
X120005640Y-107059187D02*
X120034211Y-107116330D01*
X120034211Y-107116330D02*
X120062782Y-107144902D01*
X120062782Y-107144902D02*
X120119925Y-107173473D01*
X120119925Y-107173473D02*
X120205640Y-107173473D01*
X120205640Y-107173473D02*
X120262782Y-107144902D01*
X120005640Y-106944902D02*
X120062782Y-106973473D01*
X120062782Y-106973473D02*
X120177068Y-106973473D01*
X120177068Y-106973473D02*
X120234211Y-106944902D01*
X120234211Y-106944902D02*
X120262782Y-106916330D01*
X120262782Y-106916330D02*
X120291354Y-106859187D01*
X120291354Y-106859187D02*
X120291354Y-106687759D01*
X120291354Y-106687759D02*
X120262782Y-106630616D01*
X120262782Y-106630616D02*
X120234211Y-106602044D01*
X120234211Y-106602044D02*
X120177068Y-106573473D01*
X120177068Y-106573473D02*
X120062782Y-106573473D01*
X120062782Y-106573473D02*
X120005640Y-106602044D01*
X132577068Y-107539439D02*
X132348496Y-107539439D01*
X132491353Y-107339439D02*
X132491353Y-107853725D01*
X132491353Y-107853725D02*
X132462782Y-107910868D01*
X132462782Y-107910868D02*
X132405639Y-107939439D01*
X132405639Y-107939439D02*
X132348496Y-107939439D01*
X132062782Y-107939439D02*
X132119925Y-107910868D01*
X132119925Y-107910868D02*
X132148496Y-107882296D01*
X132148496Y-107882296D02*
X132177068Y-107825153D01*
X132177068Y-107825153D02*
X132177068Y-107653725D01*
X132177068Y-107653725D02*
X132148496Y-107596582D01*
X132148496Y-107596582D02*
X132119925Y-107568010D01*
X132119925Y-107568010D02*
X132062782Y-107539439D01*
X132062782Y-107539439D02*
X131977068Y-107539439D01*
X131977068Y-107539439D02*
X131919925Y-107568010D01*
X131919925Y-107568010D02*
X131891354Y-107596582D01*
X131891354Y-107596582D02*
X131862782Y-107653725D01*
X131862782Y-107653725D02*
X131862782Y-107825153D01*
X131862782Y-107825153D02*
X131891354Y-107882296D01*
X131891354Y-107882296D02*
X131919925Y-107910868D01*
X131919925Y-107910868D02*
X131977068Y-107939439D01*
X131977068Y-107939439D02*
X132062782Y-107939439D01*
X130891354Y-107910868D02*
X130948496Y-107939439D01*
X130948496Y-107939439D02*
X131062782Y-107939439D01*
X131062782Y-107939439D02*
X131119925Y-107910868D01*
X131119925Y-107910868D02*
X131148496Y-107882296D01*
X131148496Y-107882296D02*
X131177068Y-107825153D01*
X131177068Y-107825153D02*
X131177068Y-107653725D01*
X131177068Y-107653725D02*
X131148496Y-107596582D01*
X131148496Y-107596582D02*
X131119925Y-107568010D01*
X131119925Y-107568010D02*
X131062782Y-107539439D01*
X131062782Y-107539439D02*
X130948496Y-107539439D01*
X130948496Y-107539439D02*
X130891354Y-107568010D01*
X130377068Y-107539439D02*
X130377068Y-107939439D01*
X130634210Y-107539439D02*
X130634210Y-107853725D01*
X130634210Y-107853725D02*
X130605639Y-107910868D01*
X130605639Y-107910868D02*
X130548496Y-107939439D01*
X130548496Y-107939439D02*
X130462782Y-107939439D01*
X130462782Y-107939439D02*
X130405639Y-107910868D01*
X130405639Y-107910868D02*
X130377068Y-107882296D01*
X130091353Y-107939439D02*
X130091353Y-107539439D01*
X130091353Y-107653725D02*
X130062782Y-107596582D01*
X130062782Y-107596582D02*
X130034211Y-107568010D01*
X130034211Y-107568010D02*
X129977068Y-107539439D01*
X129977068Y-107539439D02*
X129919925Y-107539439D01*
X129719924Y-107939439D02*
X129719924Y-107539439D01*
X129719924Y-107653725D02*
X129691353Y-107596582D01*
X129691353Y-107596582D02*
X129662782Y-107568010D01*
X129662782Y-107568010D02*
X129605639Y-107539439D01*
X129605639Y-107539439D02*
X129548496Y-107539439D01*
X129119924Y-107910868D02*
X129177067Y-107939439D01*
X129177067Y-107939439D02*
X129291353Y-107939439D01*
X129291353Y-107939439D02*
X129348495Y-107910868D01*
X129348495Y-107910868D02*
X129377067Y-107853725D01*
X129377067Y-107853725D02*
X129377067Y-107625153D01*
X129377067Y-107625153D02*
X129348495Y-107568010D01*
X129348495Y-107568010D02*
X129291353Y-107539439D01*
X129291353Y-107539439D02*
X129177067Y-107539439D01*
X129177067Y-107539439D02*
X129119924Y-107568010D01*
X129119924Y-107568010D02*
X129091353Y-107625153D01*
X129091353Y-107625153D02*
X129091353Y-107682296D01*
X129091353Y-107682296D02*
X129377067Y-107739439D01*
X128834209Y-107539439D02*
X128834209Y-107939439D01*
X128834209Y-107596582D02*
X128805638Y-107568010D01*
X128805638Y-107568010D02*
X128748495Y-107539439D01*
X128748495Y-107539439D02*
X128662781Y-107539439D01*
X128662781Y-107539439D02*
X128605638Y-107568010D01*
X128605638Y-107568010D02*
X128577067Y-107625153D01*
X128577067Y-107625153D02*
X128577067Y-107939439D01*
X128377067Y-107539439D02*
X128148495Y-107539439D01*
X128291352Y-107339439D02*
X128291352Y-107853725D01*
X128291352Y-107853725D02*
X128262781Y-107910868D01*
X128262781Y-107910868D02*
X128205638Y-107939439D01*
X128205638Y-107939439D02*
X128148495Y-107939439D01*
X127491352Y-107625153D02*
X127291352Y-107625153D01*
X127205638Y-107939439D02*
X127491352Y-107939439D01*
X127491352Y-107939439D02*
X127491352Y-107339439D01*
X127491352Y-107339439D02*
X127205638Y-107339439D01*
X126948495Y-107339439D02*
X126948495Y-107825153D01*
X126948495Y-107825153D02*
X126919924Y-107882296D01*
X126919924Y-107882296D02*
X126891353Y-107910868D01*
X126891353Y-107910868D02*
X126834210Y-107939439D01*
X126834210Y-107939439D02*
X126719924Y-107939439D01*
X126719924Y-107939439D02*
X126662781Y-107910868D01*
X126662781Y-107910868D02*
X126634210Y-107882296D01*
X126634210Y-107882296D02*
X126605638Y-107825153D01*
X126605638Y-107825153D02*
X126605638Y-107339439D01*
X125777067Y-107939439D02*
X125834210Y-107910868D01*
X125834210Y-107910868D02*
X125862781Y-107853725D01*
X125862781Y-107853725D02*
X125862781Y-107339439D01*
X125291353Y-107939439D02*
X125291353Y-107625153D01*
X125291353Y-107625153D02*
X125319924Y-107568010D01*
X125319924Y-107568010D02*
X125377067Y-107539439D01*
X125377067Y-107539439D02*
X125491353Y-107539439D01*
X125491353Y-107539439D02*
X125548495Y-107568010D01*
X125291353Y-107910868D02*
X125348495Y-107939439D01*
X125348495Y-107939439D02*
X125491353Y-107939439D01*
X125491353Y-107939439D02*
X125548495Y-107910868D01*
X125548495Y-107910868D02*
X125577067Y-107853725D01*
X125577067Y-107853725D02*
X125577067Y-107796582D01*
X125577067Y-107796582D02*
X125548495Y-107739439D01*
X125548495Y-107739439D02*
X125491353Y-107710868D01*
X125491353Y-107710868D02*
X125348495Y-107710868D01*
X125348495Y-107710868D02*
X125291353Y-107682296D01*
X125062781Y-107539439D02*
X124948496Y-107939439D01*
X124948496Y-107939439D02*
X124834210Y-107653725D01*
X124834210Y-107653725D02*
X124719924Y-107939439D01*
X124719924Y-107939439D02*
X124605638Y-107539439D01*
X124405639Y-107910868D02*
X124348496Y-107939439D01*
X124348496Y-107939439D02*
X124234210Y-107939439D01*
X124234210Y-107939439D02*
X124177067Y-107910868D01*
X124177067Y-107910868D02*
X124148496Y-107853725D01*
X124148496Y-107853725D02*
X124148496Y-107825153D01*
X124148496Y-107825153D02*
X124177067Y-107768010D01*
X124177067Y-107768010D02*
X124234210Y-107739439D01*
X124234210Y-107739439D02*
X124319925Y-107739439D01*
X124319925Y-107739439D02*
X124377067Y-107710868D01*
X124377067Y-107710868D02*
X124405639Y-107653725D01*
X124405639Y-107653725D02*
X124405639Y-107625153D01*
X124405639Y-107625153D02*
X124377067Y-107568010D01*
X124377067Y-107568010D02*
X124319925Y-107539439D01*
X124319925Y-107539439D02*
X124234210Y-107539439D01*
X124234210Y-107539439D02*
X124177067Y-107568010D01*
X123891353Y-107882296D02*
X123862782Y-107910868D01*
X123862782Y-107910868D02*
X123891353Y-107939439D01*
X123891353Y-107939439D02*
X123919925Y-107910868D01*
X123919925Y-107910868D02*
X123891353Y-107882296D01*
X123891353Y-107882296D02*
X123891353Y-107939439D01*
X132491353Y-108905405D02*
X132491353Y-108305405D01*
X132491353Y-108305405D02*
X132348496Y-108305405D01*
X132348496Y-108305405D02*
X132262782Y-108333976D01*
X132262782Y-108333976D02*
X132205639Y-108391119D01*
X132205639Y-108391119D02*
X132177068Y-108448262D01*
X132177068Y-108448262D02*
X132148496Y-108562548D01*
X132148496Y-108562548D02*
X132148496Y-108648262D01*
X132148496Y-108648262D02*
X132177068Y-108762548D01*
X132177068Y-108762548D02*
X132205639Y-108819691D01*
X132205639Y-108819691D02*
X132262782Y-108876834D01*
X132262782Y-108876834D02*
X132348496Y-108905405D01*
X132348496Y-108905405D02*
X132491353Y-108905405D01*
X131805639Y-108905405D02*
X131862782Y-108876834D01*
X131862782Y-108876834D02*
X131891353Y-108848262D01*
X131891353Y-108848262D02*
X131919925Y-108791119D01*
X131919925Y-108791119D02*
X131919925Y-108619691D01*
X131919925Y-108619691D02*
X131891353Y-108562548D01*
X131891353Y-108562548D02*
X131862782Y-108533976D01*
X131862782Y-108533976D02*
X131805639Y-108505405D01*
X131805639Y-108505405D02*
X131719925Y-108505405D01*
X131719925Y-108505405D02*
X131662782Y-108533976D01*
X131662782Y-108533976D02*
X131634211Y-108562548D01*
X131634211Y-108562548D02*
X131605639Y-108619691D01*
X131605639Y-108619691D02*
X131605639Y-108791119D01*
X131605639Y-108791119D02*
X131634211Y-108848262D01*
X131634211Y-108848262D02*
X131662782Y-108876834D01*
X131662782Y-108876834D02*
X131719925Y-108905405D01*
X131719925Y-108905405D02*
X131805639Y-108905405D01*
X130891353Y-108505405D02*
X130891353Y-108905405D01*
X130891353Y-108562548D02*
X130862782Y-108533976D01*
X130862782Y-108533976D02*
X130805639Y-108505405D01*
X130805639Y-108505405D02*
X130719925Y-108505405D01*
X130719925Y-108505405D02*
X130662782Y-108533976D01*
X130662782Y-108533976D02*
X130634211Y-108591119D01*
X130634211Y-108591119D02*
X130634211Y-108905405D01*
X130262782Y-108905405D02*
X130319925Y-108876834D01*
X130319925Y-108876834D02*
X130348496Y-108848262D01*
X130348496Y-108848262D02*
X130377068Y-108791119D01*
X130377068Y-108791119D02*
X130377068Y-108619691D01*
X130377068Y-108619691D02*
X130348496Y-108562548D01*
X130348496Y-108562548D02*
X130319925Y-108533976D01*
X130319925Y-108533976D02*
X130262782Y-108505405D01*
X130262782Y-108505405D02*
X130177068Y-108505405D01*
X130177068Y-108505405D02*
X130119925Y-108533976D01*
X130119925Y-108533976D02*
X130091354Y-108562548D01*
X130091354Y-108562548D02*
X130062782Y-108619691D01*
X130062782Y-108619691D02*
X130062782Y-108791119D01*
X130062782Y-108791119D02*
X130091354Y-108848262D01*
X130091354Y-108848262D02*
X130119925Y-108876834D01*
X130119925Y-108876834D02*
X130177068Y-108905405D01*
X130177068Y-108905405D02*
X130262782Y-108905405D01*
X129891354Y-108505405D02*
X129662782Y-108505405D01*
X129805639Y-108305405D02*
X129805639Y-108819691D01*
X129805639Y-108819691D02*
X129777068Y-108876834D01*
X129777068Y-108876834D02*
X129719925Y-108905405D01*
X129719925Y-108905405D02*
X129662782Y-108905405D01*
X129034211Y-108876834D02*
X128977068Y-108905405D01*
X128977068Y-108905405D02*
X128862782Y-108905405D01*
X128862782Y-108905405D02*
X128805639Y-108876834D01*
X128805639Y-108876834D02*
X128777068Y-108819691D01*
X128777068Y-108819691D02*
X128777068Y-108791119D01*
X128777068Y-108791119D02*
X128805639Y-108733976D01*
X128805639Y-108733976D02*
X128862782Y-108705405D01*
X128862782Y-108705405D02*
X128948497Y-108705405D01*
X128948497Y-108705405D02*
X129005639Y-108676834D01*
X129005639Y-108676834D02*
X129034211Y-108619691D01*
X129034211Y-108619691D02*
X129034211Y-108591119D01*
X129034211Y-108591119D02*
X129005639Y-108533976D01*
X129005639Y-108533976D02*
X128948497Y-108505405D01*
X128948497Y-108505405D02*
X128862782Y-108505405D01*
X128862782Y-108505405D02*
X128805639Y-108533976D01*
X128291354Y-108876834D02*
X128348497Y-108905405D01*
X128348497Y-108905405D02*
X128462783Y-108905405D01*
X128462783Y-108905405D02*
X128519925Y-108876834D01*
X128519925Y-108876834D02*
X128548497Y-108819691D01*
X128548497Y-108819691D02*
X128548497Y-108591119D01*
X128548497Y-108591119D02*
X128519925Y-108533976D01*
X128519925Y-108533976D02*
X128462783Y-108505405D01*
X128462783Y-108505405D02*
X128348497Y-108505405D01*
X128348497Y-108505405D02*
X128291354Y-108533976D01*
X128291354Y-108533976D02*
X128262783Y-108591119D01*
X128262783Y-108591119D02*
X128262783Y-108648262D01*
X128262783Y-108648262D02*
X128548497Y-108705405D01*
X127919925Y-108905405D02*
X127977068Y-108876834D01*
X127977068Y-108876834D02*
X128005639Y-108819691D01*
X128005639Y-108819691D02*
X128005639Y-108305405D01*
X127605639Y-108905405D02*
X127662782Y-108876834D01*
X127662782Y-108876834D02*
X127691353Y-108819691D01*
X127691353Y-108819691D02*
X127691353Y-108305405D01*
X126834210Y-108905405D02*
X126891353Y-108876834D01*
X126891353Y-108876834D02*
X126919924Y-108848262D01*
X126919924Y-108848262D02*
X126948496Y-108791119D01*
X126948496Y-108791119D02*
X126948496Y-108619691D01*
X126948496Y-108619691D02*
X126919924Y-108562548D01*
X126919924Y-108562548D02*
X126891353Y-108533976D01*
X126891353Y-108533976D02*
X126834210Y-108505405D01*
X126834210Y-108505405D02*
X126748496Y-108505405D01*
X126748496Y-108505405D02*
X126691353Y-108533976D01*
X126691353Y-108533976D02*
X126662782Y-108562548D01*
X126662782Y-108562548D02*
X126634210Y-108619691D01*
X126634210Y-108619691D02*
X126634210Y-108791119D01*
X126634210Y-108791119D02*
X126662782Y-108848262D01*
X126662782Y-108848262D02*
X126691353Y-108876834D01*
X126691353Y-108876834D02*
X126748496Y-108905405D01*
X126748496Y-108905405D02*
X126834210Y-108905405D01*
X126377067Y-108905405D02*
X126377067Y-108505405D01*
X126377067Y-108619691D02*
X126348496Y-108562548D01*
X126348496Y-108562548D02*
X126319925Y-108533976D01*
X126319925Y-108533976D02*
X126262782Y-108505405D01*
X126262782Y-108505405D02*
X126205639Y-108505405D01*
X125291353Y-108505405D02*
X125291353Y-108905405D01*
X125548495Y-108505405D02*
X125548495Y-108819691D01*
X125548495Y-108819691D02*
X125519924Y-108876834D01*
X125519924Y-108876834D02*
X125462781Y-108905405D01*
X125462781Y-108905405D02*
X125377067Y-108905405D01*
X125377067Y-108905405D02*
X125319924Y-108876834D01*
X125319924Y-108876834D02*
X125291353Y-108848262D01*
X125034210Y-108876834D02*
X124977067Y-108905405D01*
X124977067Y-108905405D02*
X124862781Y-108905405D01*
X124862781Y-108905405D02*
X124805638Y-108876834D01*
X124805638Y-108876834D02*
X124777067Y-108819691D01*
X124777067Y-108819691D02*
X124777067Y-108791119D01*
X124777067Y-108791119D02*
X124805638Y-108733976D01*
X124805638Y-108733976D02*
X124862781Y-108705405D01*
X124862781Y-108705405D02*
X124948496Y-108705405D01*
X124948496Y-108705405D02*
X125005638Y-108676834D01*
X125005638Y-108676834D02*
X125034210Y-108619691D01*
X125034210Y-108619691D02*
X125034210Y-108591119D01*
X125034210Y-108591119D02*
X125005638Y-108533976D01*
X125005638Y-108533976D02*
X124948496Y-108505405D01*
X124948496Y-108505405D02*
X124862781Y-108505405D01*
X124862781Y-108505405D02*
X124805638Y-108533976D01*
X124291353Y-108876834D02*
X124348496Y-108905405D01*
X124348496Y-108905405D02*
X124462782Y-108905405D01*
X124462782Y-108905405D02*
X124519924Y-108876834D01*
X124519924Y-108876834D02*
X124548496Y-108819691D01*
X124548496Y-108819691D02*
X124548496Y-108591119D01*
X124548496Y-108591119D02*
X124519924Y-108533976D01*
X124519924Y-108533976D02*
X124462782Y-108505405D01*
X124462782Y-108505405D02*
X124348496Y-108505405D01*
X124348496Y-108505405D02*
X124291353Y-108533976D01*
X124291353Y-108533976D02*
X124262782Y-108591119D01*
X124262782Y-108591119D02*
X124262782Y-108648262D01*
X124262782Y-108648262D02*
X124548496Y-108705405D01*
X123462781Y-108905405D02*
X123519924Y-108876834D01*
X123519924Y-108876834D02*
X123548495Y-108848262D01*
X123548495Y-108848262D02*
X123577067Y-108791119D01*
X123577067Y-108791119D02*
X123577067Y-108619691D01*
X123577067Y-108619691D02*
X123548495Y-108562548D01*
X123548495Y-108562548D02*
X123519924Y-108533976D01*
X123519924Y-108533976D02*
X123462781Y-108505405D01*
X123462781Y-108505405D02*
X123377067Y-108505405D01*
X123377067Y-108505405D02*
X123319924Y-108533976D01*
X123319924Y-108533976D02*
X123291353Y-108562548D01*
X123291353Y-108562548D02*
X123262781Y-108619691D01*
X123262781Y-108619691D02*
X123262781Y-108791119D01*
X123262781Y-108791119D02*
X123291353Y-108848262D01*
X123291353Y-108848262D02*
X123319924Y-108876834D01*
X123319924Y-108876834D02*
X123377067Y-108905405D01*
X123377067Y-108905405D02*
X123462781Y-108905405D01*
X122748496Y-108505405D02*
X122748496Y-108905405D01*
X123005638Y-108505405D02*
X123005638Y-108819691D01*
X123005638Y-108819691D02*
X122977067Y-108876834D01*
X122977067Y-108876834D02*
X122919924Y-108905405D01*
X122919924Y-108905405D02*
X122834210Y-108905405D01*
X122834210Y-108905405D02*
X122777067Y-108876834D01*
X122777067Y-108876834D02*
X122748496Y-108848262D01*
X122548496Y-108505405D02*
X122319924Y-108505405D01*
X122462781Y-108305405D02*
X122462781Y-108819691D01*
X122462781Y-108819691D02*
X122434210Y-108876834D01*
X122434210Y-108876834D02*
X122377067Y-108905405D01*
X122377067Y-108905405D02*
X122319924Y-108905405D01*
X122148496Y-108876834D02*
X122091353Y-108905405D01*
X122091353Y-108905405D02*
X121977067Y-108905405D01*
X121977067Y-108905405D02*
X121919924Y-108876834D01*
X121919924Y-108876834D02*
X121891353Y-108819691D01*
X121891353Y-108819691D02*
X121891353Y-108791119D01*
X121891353Y-108791119D02*
X121919924Y-108733976D01*
X121919924Y-108733976D02*
X121977067Y-108705405D01*
X121977067Y-108705405D02*
X122062782Y-108705405D01*
X122062782Y-108705405D02*
X122119924Y-108676834D01*
X122119924Y-108676834D02*
X122148496Y-108619691D01*
X122148496Y-108619691D02*
X122148496Y-108591119D01*
X122148496Y-108591119D02*
X122119924Y-108533976D01*
X122119924Y-108533976D02*
X122062782Y-108505405D01*
X122062782Y-108505405D02*
X121977067Y-108505405D01*
X121977067Y-108505405D02*
X121919924Y-108533976D01*
X121634210Y-108905405D02*
X121634210Y-108505405D01*
X121634210Y-108305405D02*
X121662782Y-108333976D01*
X121662782Y-108333976D02*
X121634210Y-108362548D01*
X121634210Y-108362548D02*
X121605639Y-108333976D01*
X121605639Y-108333976D02*
X121634210Y-108305405D01*
X121634210Y-108305405D02*
X121634210Y-108362548D01*
X121091354Y-108905405D02*
X121091354Y-108305405D01*
X121091354Y-108876834D02*
X121148496Y-108905405D01*
X121148496Y-108905405D02*
X121262782Y-108905405D01*
X121262782Y-108905405D02*
X121319925Y-108876834D01*
X121319925Y-108876834D02*
X121348496Y-108848262D01*
X121348496Y-108848262D02*
X121377068Y-108791119D01*
X121377068Y-108791119D02*
X121377068Y-108619691D01*
X121377068Y-108619691D02*
X121348496Y-108562548D01*
X121348496Y-108562548D02*
X121319925Y-108533976D01*
X121319925Y-108533976D02*
X121262782Y-108505405D01*
X121262782Y-108505405D02*
X121148496Y-108505405D01*
X121148496Y-108505405D02*
X121091354Y-108533976D01*
X120577068Y-108876834D02*
X120634211Y-108905405D01*
X120634211Y-108905405D02*
X120748497Y-108905405D01*
X120748497Y-108905405D02*
X120805639Y-108876834D01*
X120805639Y-108876834D02*
X120834211Y-108819691D01*
X120834211Y-108819691D02*
X120834211Y-108591119D01*
X120834211Y-108591119D02*
X120805639Y-108533976D01*
X120805639Y-108533976D02*
X120748497Y-108505405D01*
X120748497Y-108505405D02*
X120634211Y-108505405D01*
X120634211Y-108505405D02*
X120577068Y-108533976D01*
X120577068Y-108533976D02*
X120548497Y-108591119D01*
X120548497Y-108591119D02*
X120548497Y-108648262D01*
X120548497Y-108648262D02*
X120834211Y-108705405D01*
X119748496Y-108905405D02*
X119805639Y-108876834D01*
X119805639Y-108876834D02*
X119834210Y-108848262D01*
X119834210Y-108848262D02*
X119862782Y-108791119D01*
X119862782Y-108791119D02*
X119862782Y-108619691D01*
X119862782Y-108619691D02*
X119834210Y-108562548D01*
X119834210Y-108562548D02*
X119805639Y-108533976D01*
X119805639Y-108533976D02*
X119748496Y-108505405D01*
X119748496Y-108505405D02*
X119662782Y-108505405D01*
X119662782Y-108505405D02*
X119605639Y-108533976D01*
X119605639Y-108533976D02*
X119577068Y-108562548D01*
X119577068Y-108562548D02*
X119548496Y-108619691D01*
X119548496Y-108619691D02*
X119548496Y-108791119D01*
X119548496Y-108791119D02*
X119577068Y-108848262D01*
X119577068Y-108848262D02*
X119605639Y-108876834D01*
X119605639Y-108876834D02*
X119662782Y-108905405D01*
X119662782Y-108905405D02*
X119748496Y-108905405D01*
X119377068Y-108505405D02*
X119148496Y-108505405D01*
X119291353Y-108905405D02*
X119291353Y-108391119D01*
X119291353Y-108391119D02*
X119262782Y-108333976D01*
X119262782Y-108333976D02*
X119205639Y-108305405D01*
X119205639Y-108305405D02*
X119148496Y-108305405D01*
X132491353Y-109871371D02*
X132491353Y-109471371D01*
X132491353Y-109585657D02*
X132462782Y-109528514D01*
X132462782Y-109528514D02*
X132434211Y-109499942D01*
X132434211Y-109499942D02*
X132377068Y-109471371D01*
X132377068Y-109471371D02*
X132319925Y-109471371D01*
X131891353Y-109842800D02*
X131948496Y-109871371D01*
X131948496Y-109871371D02*
X132062782Y-109871371D01*
X132062782Y-109871371D02*
X132119924Y-109842800D01*
X132119924Y-109842800D02*
X132148496Y-109785657D01*
X132148496Y-109785657D02*
X132148496Y-109557085D01*
X132148496Y-109557085D02*
X132119924Y-109499942D01*
X132119924Y-109499942D02*
X132062782Y-109471371D01*
X132062782Y-109471371D02*
X131948496Y-109471371D01*
X131948496Y-109471371D02*
X131891353Y-109499942D01*
X131891353Y-109499942D02*
X131862782Y-109557085D01*
X131862782Y-109557085D02*
X131862782Y-109614228D01*
X131862782Y-109614228D02*
X132148496Y-109671371D01*
X131634210Y-109842800D02*
X131577067Y-109871371D01*
X131577067Y-109871371D02*
X131462781Y-109871371D01*
X131462781Y-109871371D02*
X131405638Y-109842800D01*
X131405638Y-109842800D02*
X131377067Y-109785657D01*
X131377067Y-109785657D02*
X131377067Y-109757085D01*
X131377067Y-109757085D02*
X131405638Y-109699942D01*
X131405638Y-109699942D02*
X131462781Y-109671371D01*
X131462781Y-109671371D02*
X131548496Y-109671371D01*
X131548496Y-109671371D02*
X131605638Y-109642800D01*
X131605638Y-109642800D02*
X131634210Y-109585657D01*
X131634210Y-109585657D02*
X131634210Y-109557085D01*
X131634210Y-109557085D02*
X131605638Y-109499942D01*
X131605638Y-109499942D02*
X131548496Y-109471371D01*
X131548496Y-109471371D02*
X131462781Y-109471371D01*
X131462781Y-109471371D02*
X131405638Y-109499942D01*
X130891353Y-109842800D02*
X130948496Y-109871371D01*
X130948496Y-109871371D02*
X131062782Y-109871371D01*
X131062782Y-109871371D02*
X131119924Y-109842800D01*
X131119924Y-109842800D02*
X131148496Y-109785657D01*
X131148496Y-109785657D02*
X131148496Y-109557085D01*
X131148496Y-109557085D02*
X131119924Y-109499942D01*
X131119924Y-109499942D02*
X131062782Y-109471371D01*
X131062782Y-109471371D02*
X130948496Y-109471371D01*
X130948496Y-109471371D02*
X130891353Y-109499942D01*
X130891353Y-109499942D02*
X130862782Y-109557085D01*
X130862782Y-109557085D02*
X130862782Y-109614228D01*
X130862782Y-109614228D02*
X131148496Y-109671371D01*
X130348496Y-109871371D02*
X130348496Y-109557085D01*
X130348496Y-109557085D02*
X130377067Y-109499942D01*
X130377067Y-109499942D02*
X130434210Y-109471371D01*
X130434210Y-109471371D02*
X130548496Y-109471371D01*
X130548496Y-109471371D02*
X130605638Y-109499942D01*
X130348496Y-109842800D02*
X130405638Y-109871371D01*
X130405638Y-109871371D02*
X130548496Y-109871371D01*
X130548496Y-109871371D02*
X130605638Y-109842800D01*
X130605638Y-109842800D02*
X130634210Y-109785657D01*
X130634210Y-109785657D02*
X130634210Y-109728514D01*
X130634210Y-109728514D02*
X130605638Y-109671371D01*
X130605638Y-109671371D02*
X130548496Y-109642800D01*
X130548496Y-109642800D02*
X130405638Y-109642800D01*
X130405638Y-109642800D02*
X130348496Y-109614228D01*
X130062781Y-109871371D02*
X130062781Y-109471371D01*
X130062781Y-109585657D02*
X130034210Y-109528514D01*
X130034210Y-109528514D02*
X130005639Y-109499942D01*
X130005639Y-109499942D02*
X129948496Y-109471371D01*
X129948496Y-109471371D02*
X129891353Y-109471371D01*
X129434210Y-109842800D02*
X129491352Y-109871371D01*
X129491352Y-109871371D02*
X129605638Y-109871371D01*
X129605638Y-109871371D02*
X129662781Y-109842800D01*
X129662781Y-109842800D02*
X129691352Y-109814228D01*
X129691352Y-109814228D02*
X129719924Y-109757085D01*
X129719924Y-109757085D02*
X129719924Y-109585657D01*
X129719924Y-109585657D02*
X129691352Y-109528514D01*
X129691352Y-109528514D02*
X129662781Y-109499942D01*
X129662781Y-109499942D02*
X129605638Y-109471371D01*
X129605638Y-109471371D02*
X129491352Y-109471371D01*
X129491352Y-109471371D02*
X129434210Y-109499942D01*
X129177066Y-109871371D02*
X129177066Y-109271371D01*
X128919924Y-109871371D02*
X128919924Y-109557085D01*
X128919924Y-109557085D02*
X128948495Y-109499942D01*
X128948495Y-109499942D02*
X129005638Y-109471371D01*
X129005638Y-109471371D02*
X129091352Y-109471371D01*
X129091352Y-109471371D02*
X129148495Y-109499942D01*
X129148495Y-109499942D02*
X129177066Y-109528514D01*
X128177066Y-109471371D02*
X128177066Y-110071371D01*
X128177066Y-109499942D02*
X128119924Y-109471371D01*
X128119924Y-109471371D02*
X128005638Y-109471371D01*
X128005638Y-109471371D02*
X127948495Y-109499942D01*
X127948495Y-109499942D02*
X127919924Y-109528514D01*
X127919924Y-109528514D02*
X127891352Y-109585657D01*
X127891352Y-109585657D02*
X127891352Y-109757085D01*
X127891352Y-109757085D02*
X127919924Y-109814228D01*
X127919924Y-109814228D02*
X127948495Y-109842800D01*
X127948495Y-109842800D02*
X128005638Y-109871371D01*
X128005638Y-109871371D02*
X128119924Y-109871371D01*
X128119924Y-109871371D02*
X128177066Y-109842800D01*
X127377067Y-109471371D02*
X127377067Y-109871371D01*
X127634209Y-109471371D02*
X127634209Y-109785657D01*
X127634209Y-109785657D02*
X127605638Y-109842800D01*
X127605638Y-109842800D02*
X127548495Y-109871371D01*
X127548495Y-109871371D02*
X127462781Y-109871371D01*
X127462781Y-109871371D02*
X127405638Y-109842800D01*
X127405638Y-109842800D02*
X127377067Y-109814228D01*
X127091352Y-109871371D02*
X127091352Y-109471371D01*
X127091352Y-109585657D02*
X127062781Y-109528514D01*
X127062781Y-109528514D02*
X127034210Y-109499942D01*
X127034210Y-109499942D02*
X126977067Y-109471371D01*
X126977067Y-109471371D02*
X126919924Y-109471371D01*
X126719923Y-109471371D02*
X126719923Y-110071371D01*
X126719923Y-109499942D02*
X126662781Y-109471371D01*
X126662781Y-109471371D02*
X126548495Y-109471371D01*
X126548495Y-109471371D02*
X126491352Y-109499942D01*
X126491352Y-109499942D02*
X126462781Y-109528514D01*
X126462781Y-109528514D02*
X126434209Y-109585657D01*
X126434209Y-109585657D02*
X126434209Y-109757085D01*
X126434209Y-109757085D02*
X126462781Y-109814228D01*
X126462781Y-109814228D02*
X126491352Y-109842800D01*
X126491352Y-109842800D02*
X126548495Y-109871371D01*
X126548495Y-109871371D02*
X126662781Y-109871371D01*
X126662781Y-109871371D02*
X126719923Y-109842800D01*
X126091352Y-109871371D02*
X126148495Y-109842800D01*
X126148495Y-109842800D02*
X126177066Y-109814228D01*
X126177066Y-109814228D02*
X126205638Y-109757085D01*
X126205638Y-109757085D02*
X126205638Y-109585657D01*
X126205638Y-109585657D02*
X126177066Y-109528514D01*
X126177066Y-109528514D02*
X126148495Y-109499942D01*
X126148495Y-109499942D02*
X126091352Y-109471371D01*
X126091352Y-109471371D02*
X126005638Y-109471371D01*
X126005638Y-109471371D02*
X125948495Y-109499942D01*
X125948495Y-109499942D02*
X125919924Y-109528514D01*
X125919924Y-109528514D02*
X125891352Y-109585657D01*
X125891352Y-109585657D02*
X125891352Y-109757085D01*
X125891352Y-109757085D02*
X125919924Y-109814228D01*
X125919924Y-109814228D02*
X125948495Y-109842800D01*
X125948495Y-109842800D02*
X126005638Y-109871371D01*
X126005638Y-109871371D02*
X126091352Y-109871371D01*
X125662781Y-109842800D02*
X125605638Y-109871371D01*
X125605638Y-109871371D02*
X125491352Y-109871371D01*
X125491352Y-109871371D02*
X125434209Y-109842800D01*
X125434209Y-109842800D02*
X125405638Y-109785657D01*
X125405638Y-109785657D02*
X125405638Y-109757085D01*
X125405638Y-109757085D02*
X125434209Y-109699942D01*
X125434209Y-109699942D02*
X125491352Y-109671371D01*
X125491352Y-109671371D02*
X125577067Y-109671371D01*
X125577067Y-109671371D02*
X125634209Y-109642800D01*
X125634209Y-109642800D02*
X125662781Y-109585657D01*
X125662781Y-109585657D02*
X125662781Y-109557085D01*
X125662781Y-109557085D02*
X125634209Y-109499942D01*
X125634209Y-109499942D02*
X125577067Y-109471371D01*
X125577067Y-109471371D02*
X125491352Y-109471371D01*
X125491352Y-109471371D02*
X125434209Y-109499942D01*
X124919924Y-109842800D02*
X124977067Y-109871371D01*
X124977067Y-109871371D02*
X125091353Y-109871371D01*
X125091353Y-109871371D02*
X125148495Y-109842800D01*
X125148495Y-109842800D02*
X125177067Y-109785657D01*
X125177067Y-109785657D02*
X125177067Y-109557085D01*
X125177067Y-109557085D02*
X125148495Y-109499942D01*
X125148495Y-109499942D02*
X125091353Y-109471371D01*
X125091353Y-109471371D02*
X124977067Y-109471371D01*
X124977067Y-109471371D02*
X124919924Y-109499942D01*
X124919924Y-109499942D02*
X124891353Y-109557085D01*
X124891353Y-109557085D02*
X124891353Y-109614228D01*
X124891353Y-109614228D02*
X125177067Y-109671371D01*
X124662781Y-109842800D02*
X124605638Y-109871371D01*
X124605638Y-109871371D02*
X124491352Y-109871371D01*
X124491352Y-109871371D02*
X124434209Y-109842800D01*
X124434209Y-109842800D02*
X124405638Y-109785657D01*
X124405638Y-109785657D02*
X124405638Y-109757085D01*
X124405638Y-109757085D02*
X124434209Y-109699942D01*
X124434209Y-109699942D02*
X124491352Y-109671371D01*
X124491352Y-109671371D02*
X124577067Y-109671371D01*
X124577067Y-109671371D02*
X124634209Y-109642800D01*
X124634209Y-109642800D02*
X124662781Y-109585657D01*
X124662781Y-109585657D02*
X124662781Y-109557085D01*
X124662781Y-109557085D02*
X124634209Y-109499942D01*
X124634209Y-109499942D02*
X124577067Y-109471371D01*
X124577067Y-109471371D02*
X124491352Y-109471371D01*
X124491352Y-109471371D02*
X124434209Y-109499942D01*
X124148495Y-109814228D02*
X124119924Y-109842800D01*
X124119924Y-109842800D02*
X124148495Y-109871371D01*
X124148495Y-109871371D02*
X124177067Y-109842800D01*
X124177067Y-109842800D02*
X124148495Y-109814228D01*
X124148495Y-109814228D02*
X124148495Y-109871371D01*
D12*
X146692448Y-103833472D02*
X146640067Y-103414424D01*
X146640067Y-103414424D02*
X146666258Y-103338234D01*
X146666258Y-103338234D02*
X146732925Y-103300138D01*
X146732925Y-103300138D02*
X146875782Y-103300138D01*
X146875782Y-103300138D02*
X146951972Y-103338234D01*
X146687687Y-103795377D02*
X146763877Y-103833472D01*
X146763877Y-103833472D02*
X146942448Y-103833472D01*
X146942448Y-103833472D02*
X147009115Y-103795377D01*
X147009115Y-103795377D02*
X147035306Y-103719186D01*
X147035306Y-103719186D02*
X147025782Y-103642996D01*
X147025782Y-103642996D02*
X146980544Y-103566805D01*
X146980544Y-103566805D02*
X146904353Y-103528710D01*
X146904353Y-103528710D02*
X146725782Y-103528710D01*
X146725782Y-103528710D02*
X146649591Y-103490615D01*
X146335306Y-103833472D02*
X146268639Y-103300138D01*
X146287687Y-103452519D02*
X146242449Y-103376329D01*
X146242449Y-103376329D02*
X146201973Y-103338234D01*
X146201973Y-103338234D02*
X146125782Y-103300138D01*
X146125782Y-103300138D02*
X146054354Y-103300138D01*
X145911496Y-103300138D02*
X145625782Y-103300138D01*
X145771020Y-103033472D02*
X145856734Y-103719186D01*
X145856734Y-103719186D02*
X145830544Y-103795377D01*
X145830544Y-103795377D02*
X145763877Y-103833472D01*
X145763877Y-103833472D02*
X145692449Y-103833472D01*
X145442449Y-103833472D02*
X145342449Y-103033472D01*
X145121020Y-103833472D02*
X145068639Y-103414424D01*
X145068639Y-103414424D02*
X145094830Y-103338234D01*
X145094830Y-103338234D02*
X145161497Y-103300138D01*
X145161497Y-103300138D02*
X145268639Y-103300138D01*
X145268639Y-103300138D02*
X145344830Y-103338234D01*
X145344830Y-103338234D02*
X145385306Y-103376329D01*
X144656735Y-103833472D02*
X144723402Y-103795377D01*
X144723402Y-103795377D02*
X144754354Y-103757281D01*
X144754354Y-103757281D02*
X144780545Y-103681091D01*
X144780545Y-103681091D02*
X144751973Y-103452519D01*
X144751973Y-103452519D02*
X144706735Y-103376329D01*
X144706735Y-103376329D02*
X144666259Y-103338234D01*
X144666259Y-103338234D02*
X144590068Y-103300138D01*
X144590068Y-103300138D02*
X144482926Y-103300138D01*
X144482926Y-103300138D02*
X144416259Y-103338234D01*
X144416259Y-103338234D02*
X144385307Y-103376329D01*
X144385307Y-103376329D02*
X144359116Y-103452519D01*
X144359116Y-103452519D02*
X144387688Y-103681091D01*
X144387688Y-103681091D02*
X144432926Y-103757281D01*
X144432926Y-103757281D02*
X144473402Y-103795377D01*
X144473402Y-103795377D02*
X144549592Y-103833472D01*
X144549592Y-103833472D02*
X144656735Y-103833472D01*
X144085307Y-103833472D02*
X144018640Y-103300138D01*
X144037688Y-103452519D02*
X143992450Y-103376329D01*
X143992450Y-103376329D02*
X143951974Y-103338234D01*
X143951974Y-103338234D02*
X143875783Y-103300138D01*
X143875783Y-103300138D02*
X143804355Y-103300138D01*
X143621021Y-103833472D02*
X143521021Y-103033472D01*
X143299592Y-103833472D02*
X143247211Y-103414424D01*
X143247211Y-103414424D02*
X143273402Y-103338234D01*
X143273402Y-103338234D02*
X143340069Y-103300138D01*
X143340069Y-103300138D02*
X143447211Y-103300138D01*
X143447211Y-103300138D02*
X143523402Y-103338234D01*
X143523402Y-103338234D02*
X143563878Y-103376329D01*
X142932926Y-103757281D02*
X142901974Y-103795377D01*
X142901974Y-103795377D02*
X142942450Y-103833472D01*
X142942450Y-103833472D02*
X142973402Y-103795377D01*
X142973402Y-103795377D02*
X142932926Y-103757281D01*
X142932926Y-103757281D02*
X142942450Y-103833472D01*
X142197212Y-103300138D02*
X142278164Y-103947757D01*
X142278164Y-103947757D02*
X142323402Y-104023948D01*
X142323402Y-104023948D02*
X142363878Y-104062043D01*
X142363878Y-104062043D02*
X142440069Y-104100138D01*
X142440069Y-104100138D02*
X142547212Y-104100138D01*
X142547212Y-104100138D02*
X142613878Y-104062043D01*
X142259117Y-103795377D02*
X142335307Y-103833472D01*
X142335307Y-103833472D02*
X142478164Y-103833472D01*
X142478164Y-103833472D02*
X142544831Y-103795377D01*
X142544831Y-103795377D02*
X142575783Y-103757281D01*
X142575783Y-103757281D02*
X142601974Y-103681091D01*
X142601974Y-103681091D02*
X142573402Y-103452519D01*
X142573402Y-103452519D02*
X142528164Y-103376329D01*
X142528164Y-103376329D02*
X142487688Y-103338234D01*
X142487688Y-103338234D02*
X142411497Y-103300138D01*
X142411497Y-103300138D02*
X142268640Y-103300138D01*
X142268640Y-103300138D02*
X142201974Y-103338234D01*
X141906736Y-103833472D02*
X141840069Y-103300138D01*
X141806736Y-103033472D02*
X141847212Y-103071567D01*
X141847212Y-103071567D02*
X141816260Y-103109662D01*
X141816260Y-103109662D02*
X141775784Y-103071567D01*
X141775784Y-103071567D02*
X141806736Y-103033472D01*
X141806736Y-103033472D02*
X141816260Y-103109662D01*
X141590069Y-103300138D02*
X141304355Y-103300138D01*
X141449593Y-103033472D02*
X141535307Y-103719186D01*
X141535307Y-103719186D02*
X141509117Y-103795377D01*
X141509117Y-103795377D02*
X141442450Y-103833472D01*
X141442450Y-103833472D02*
X141371022Y-103833472D01*
X141121022Y-103833472D02*
X141021022Y-103033472D01*
X140799593Y-103833472D02*
X140747212Y-103414424D01*
X140747212Y-103414424D02*
X140773403Y-103338234D01*
X140773403Y-103338234D02*
X140840070Y-103300138D01*
X140840070Y-103300138D02*
X140947212Y-103300138D01*
X140947212Y-103300138D02*
X141023403Y-103338234D01*
X141023403Y-103338234D02*
X141063879Y-103376329D01*
X140054356Y-103300138D02*
X140121022Y-103833472D01*
X140375784Y-103300138D02*
X140428165Y-103719186D01*
X140428165Y-103719186D02*
X140401975Y-103795377D01*
X140401975Y-103795377D02*
X140335308Y-103833472D01*
X140335308Y-103833472D02*
X140228165Y-103833472D01*
X140228165Y-103833472D02*
X140151975Y-103795377D01*
X140151975Y-103795377D02*
X140111499Y-103757281D01*
X139763880Y-103833472D02*
X139663880Y-103033472D01*
X139701975Y-103338234D02*
X139625785Y-103300138D01*
X139625785Y-103300138D02*
X139482928Y-103300138D01*
X139482928Y-103300138D02*
X139416261Y-103338234D01*
X139416261Y-103338234D02*
X139385309Y-103376329D01*
X139385309Y-103376329D02*
X139359118Y-103452519D01*
X139359118Y-103452519D02*
X139387690Y-103681091D01*
X139387690Y-103681091D02*
X139432928Y-103757281D01*
X139432928Y-103757281D02*
X139473404Y-103795377D01*
X139473404Y-103795377D02*
X139549594Y-103833472D01*
X139549594Y-103833472D02*
X139692451Y-103833472D01*
X139692451Y-103833472D02*
X139759118Y-103795377D01*
X139075785Y-103757281D02*
X139044833Y-103795377D01*
X139044833Y-103795377D02*
X139085309Y-103833472D01*
X139085309Y-103833472D02*
X139116261Y-103795377D01*
X139116261Y-103795377D02*
X139075785Y-103757281D01*
X139075785Y-103757281D02*
X139085309Y-103833472D01*
X138728166Y-103833472D02*
X138661499Y-103300138D01*
X138628166Y-103033472D02*
X138668642Y-103071567D01*
X138668642Y-103071567D02*
X138637690Y-103109662D01*
X138637690Y-103109662D02*
X138597214Y-103071567D01*
X138597214Y-103071567D02*
X138628166Y-103033472D01*
X138628166Y-103033472D02*
X138637690Y-103109662D01*
X138263880Y-103833472D02*
X138330547Y-103795377D01*
X138330547Y-103795377D02*
X138361499Y-103757281D01*
X138361499Y-103757281D02*
X138387690Y-103681091D01*
X138387690Y-103681091D02*
X138359118Y-103452519D01*
X138359118Y-103452519D02*
X138313880Y-103376329D01*
X138313880Y-103376329D02*
X138273404Y-103338234D01*
X138273404Y-103338234D02*
X138197213Y-103300138D01*
X138197213Y-103300138D02*
X138090071Y-103300138D01*
X138090071Y-103300138D02*
X138023404Y-103338234D01*
X138023404Y-103338234D02*
X137992452Y-103376329D01*
X137992452Y-103376329D02*
X137966261Y-103452519D01*
X137966261Y-103452519D02*
X137994833Y-103681091D01*
X137994833Y-103681091D02*
X138040071Y-103757281D01*
X138040071Y-103757281D02*
X138080547Y-103795377D01*
X138080547Y-103795377D02*
X138156737Y-103833472D01*
X138156737Y-103833472D02*
X138263880Y-103833472D01*
X137051976Y-102995377D02*
X137823404Y-104023948D01*
X136468643Y-103757281D02*
X136509119Y-103795377D01*
X136509119Y-103795377D02*
X136621024Y-103833472D01*
X136621024Y-103833472D02*
X136692452Y-103833472D01*
X136692452Y-103833472D02*
X136794833Y-103795377D01*
X136794833Y-103795377D02*
X136856738Y-103719186D01*
X136856738Y-103719186D02*
X136882928Y-103642996D01*
X136882928Y-103642996D02*
X136899595Y-103490615D01*
X136899595Y-103490615D02*
X136885309Y-103376329D01*
X136885309Y-103376329D02*
X136830548Y-103223948D01*
X136830548Y-103223948D02*
X136785309Y-103147757D01*
X136785309Y-103147757D02*
X136704357Y-103071567D01*
X136704357Y-103071567D02*
X136592452Y-103033472D01*
X136592452Y-103033472D02*
X136521024Y-103033472D01*
X136521024Y-103033472D02*
X136418643Y-103071567D01*
X136418643Y-103071567D02*
X136387690Y-103109662D01*
X136156738Y-103833472D02*
X136056738Y-103033472D01*
X135835309Y-103833472D02*
X135782928Y-103414424D01*
X135782928Y-103414424D02*
X135809119Y-103338234D01*
X135809119Y-103338234D02*
X135875786Y-103300138D01*
X135875786Y-103300138D02*
X135982928Y-103300138D01*
X135982928Y-103300138D02*
X136059119Y-103338234D01*
X136059119Y-103338234D02*
X136099595Y-103376329D01*
X135156738Y-103833472D02*
X135104357Y-103414424D01*
X135104357Y-103414424D02*
X135130548Y-103338234D01*
X135130548Y-103338234D02*
X135197215Y-103300138D01*
X135197215Y-103300138D02*
X135340072Y-103300138D01*
X135340072Y-103300138D02*
X135416262Y-103338234D01*
X135151977Y-103795377D02*
X135228167Y-103833472D01*
X135228167Y-103833472D02*
X135406738Y-103833472D01*
X135406738Y-103833472D02*
X135473405Y-103795377D01*
X135473405Y-103795377D02*
X135499596Y-103719186D01*
X135499596Y-103719186D02*
X135490072Y-103642996D01*
X135490072Y-103642996D02*
X135444834Y-103566805D01*
X135444834Y-103566805D02*
X135368643Y-103528710D01*
X135368643Y-103528710D02*
X135190072Y-103528710D01*
X135190072Y-103528710D02*
X135113881Y-103490615D01*
X134799596Y-103833472D02*
X134732929Y-103300138D01*
X134699596Y-103033472D02*
X134740072Y-103071567D01*
X134740072Y-103071567D02*
X134709120Y-103109662D01*
X134709120Y-103109662D02*
X134668644Y-103071567D01*
X134668644Y-103071567D02*
X134699596Y-103033472D01*
X134699596Y-103033472D02*
X134709120Y-103109662D01*
X134375786Y-103300138D02*
X134442453Y-103833472D01*
X134385310Y-103376329D02*
X134344834Y-103338234D01*
X134344834Y-103338234D02*
X134268643Y-103300138D01*
X134268643Y-103300138D02*
X134161501Y-103300138D01*
X134161501Y-103300138D02*
X134094834Y-103338234D01*
X134094834Y-103338234D02*
X134068643Y-103414424D01*
X134068643Y-103414424D02*
X134121024Y-103833472D01*
X133461501Y-103414424D02*
X133359120Y-103452519D01*
X133359120Y-103452519D02*
X133328168Y-103490615D01*
X133328168Y-103490615D02*
X133301977Y-103566805D01*
X133301977Y-103566805D02*
X133316263Y-103681091D01*
X133316263Y-103681091D02*
X133361501Y-103757281D01*
X133361501Y-103757281D02*
X133401977Y-103795377D01*
X133401977Y-103795377D02*
X133478168Y-103833472D01*
X133478168Y-103833472D02*
X133763882Y-103833472D01*
X133763882Y-103833472D02*
X133663882Y-103033472D01*
X133663882Y-103033472D02*
X133413882Y-103033472D01*
X133413882Y-103033472D02*
X133347215Y-103071567D01*
X133347215Y-103071567D02*
X133316263Y-103109662D01*
X133316263Y-103109662D02*
X133290072Y-103185853D01*
X133290072Y-103185853D02*
X133299596Y-103262043D01*
X133299596Y-103262043D02*
X133344834Y-103338234D01*
X133344834Y-103338234D02*
X133385311Y-103376329D01*
X133385311Y-103376329D02*
X133461501Y-103414424D01*
X133461501Y-103414424D02*
X133711501Y-103414424D01*
X132625787Y-103300138D02*
X132692453Y-103833472D01*
X132947215Y-103300138D02*
X132999596Y-103719186D01*
X132999596Y-103719186D02*
X132973406Y-103795377D01*
X132973406Y-103795377D02*
X132906739Y-103833472D01*
X132906739Y-103833472D02*
X132799596Y-103833472D01*
X132799596Y-103833472D02*
X132723406Y-103795377D01*
X132723406Y-103795377D02*
X132682930Y-103757281D01*
X132366263Y-103795377D02*
X132299597Y-103833472D01*
X132299597Y-103833472D02*
X132156740Y-103833472D01*
X132156740Y-103833472D02*
X132080549Y-103795377D01*
X132080549Y-103795377D02*
X132035311Y-103719186D01*
X132035311Y-103719186D02*
X132030549Y-103681091D01*
X132030549Y-103681091D02*
X132056740Y-103604900D01*
X132056740Y-103604900D02*
X132123406Y-103566805D01*
X132123406Y-103566805D02*
X132230549Y-103566805D01*
X132230549Y-103566805D02*
X132297216Y-103528710D01*
X132297216Y-103528710D02*
X132323406Y-103452519D01*
X132323406Y-103452519D02*
X132318644Y-103414424D01*
X132318644Y-103414424D02*
X132273406Y-103338234D01*
X132273406Y-103338234D02*
X132197216Y-103300138D01*
X132197216Y-103300138D02*
X132090073Y-103300138D01*
X132090073Y-103300138D02*
X132023406Y-103338234D01*
X146267982Y-102756200D02*
X146348935Y-102794295D01*
X146348935Y-102794295D02*
X146501316Y-102794295D01*
X146501316Y-102794295D02*
X146572744Y-102756200D01*
X146572744Y-102756200D02*
X146606077Y-102718104D01*
X146606077Y-102718104D02*
X146634649Y-102641914D01*
X146634649Y-102641914D02*
X146606077Y-102413342D01*
X146606077Y-102413342D02*
X146558458Y-102337152D01*
X146558458Y-102337152D02*
X146515601Y-102299057D01*
X146515601Y-102299057D02*
X146434649Y-102260961D01*
X146434649Y-102260961D02*
X146282268Y-102260961D01*
X146282268Y-102260961D02*
X146210839Y-102299057D01*
X145815602Y-102794295D02*
X145887030Y-102756200D01*
X145887030Y-102756200D02*
X145920363Y-102718104D01*
X145920363Y-102718104D02*
X145948935Y-102641914D01*
X145948935Y-102641914D02*
X145920363Y-102413342D01*
X145920363Y-102413342D02*
X145872744Y-102337152D01*
X145872744Y-102337152D02*
X145829887Y-102299057D01*
X145829887Y-102299057D02*
X145748935Y-102260961D01*
X145748935Y-102260961D02*
X145634649Y-102260961D01*
X145634649Y-102260961D02*
X145563221Y-102299057D01*
X145563221Y-102299057D02*
X145529887Y-102337152D01*
X145529887Y-102337152D02*
X145501316Y-102413342D01*
X145501316Y-102413342D02*
X145529887Y-102641914D01*
X145529887Y-102641914D02*
X145577506Y-102718104D01*
X145577506Y-102718104D02*
X145620363Y-102756200D01*
X145620363Y-102756200D02*
X145701316Y-102794295D01*
X145701316Y-102794295D02*
X145815602Y-102794295D01*
X145139411Y-102260961D02*
X145206077Y-102794295D01*
X145148934Y-102337152D02*
X145106077Y-102299057D01*
X145106077Y-102299057D02*
X145025125Y-102260961D01*
X145025125Y-102260961D02*
X144910839Y-102260961D01*
X144910839Y-102260961D02*
X144839411Y-102299057D01*
X144839411Y-102299057D02*
X144810839Y-102375247D01*
X144810839Y-102375247D02*
X144863220Y-102794295D01*
X144415601Y-102260961D02*
X144482267Y-102794295D01*
X144425124Y-102337152D02*
X144382267Y-102299057D01*
X144382267Y-102299057D02*
X144301315Y-102260961D01*
X144301315Y-102260961D02*
X144187029Y-102260961D01*
X144187029Y-102260961D02*
X144115601Y-102299057D01*
X144115601Y-102299057D02*
X144087029Y-102375247D01*
X144087029Y-102375247D02*
X144139410Y-102794295D01*
X143448933Y-102756200D02*
X143529886Y-102794295D01*
X143529886Y-102794295D02*
X143682267Y-102794295D01*
X143682267Y-102794295D02*
X143753695Y-102756200D01*
X143753695Y-102756200D02*
X143782267Y-102680009D01*
X143782267Y-102680009D02*
X143744172Y-102375247D01*
X143744172Y-102375247D02*
X143696552Y-102299057D01*
X143696552Y-102299057D02*
X143615600Y-102260961D01*
X143615600Y-102260961D02*
X143463219Y-102260961D01*
X143463219Y-102260961D02*
X143391791Y-102299057D01*
X143391791Y-102299057D02*
X143363219Y-102375247D01*
X143363219Y-102375247D02*
X143372743Y-102451438D01*
X143372743Y-102451438D02*
X143763219Y-102527628D01*
X142725124Y-102756200D02*
X142806077Y-102794295D01*
X142806077Y-102794295D02*
X142958458Y-102794295D01*
X142958458Y-102794295D02*
X143029886Y-102756200D01*
X143029886Y-102756200D02*
X143063219Y-102718104D01*
X143063219Y-102718104D02*
X143091791Y-102641914D01*
X143091791Y-102641914D02*
X143063219Y-102413342D01*
X143063219Y-102413342D02*
X143015600Y-102337152D01*
X143015600Y-102337152D02*
X142972743Y-102299057D01*
X142972743Y-102299057D02*
X142891791Y-102260961D01*
X142891791Y-102260961D02*
X142739410Y-102260961D01*
X142739410Y-102260961D02*
X142667981Y-102299057D01*
X142434648Y-102260961D02*
X142129886Y-102260961D01*
X142287029Y-101994295D02*
X142372744Y-102680009D01*
X142372744Y-102680009D02*
X142344172Y-102756200D01*
X142344172Y-102756200D02*
X142272744Y-102794295D01*
X142272744Y-102794295D02*
X142196553Y-102794295D01*
X141815601Y-102794295D02*
X141887029Y-102756200D01*
X141887029Y-102756200D02*
X141920362Y-102718104D01*
X141920362Y-102718104D02*
X141948934Y-102641914D01*
X141948934Y-102641914D02*
X141920362Y-102413342D01*
X141920362Y-102413342D02*
X141872743Y-102337152D01*
X141872743Y-102337152D02*
X141829886Y-102299057D01*
X141829886Y-102299057D02*
X141748934Y-102260961D01*
X141748934Y-102260961D02*
X141634648Y-102260961D01*
X141634648Y-102260961D02*
X141563220Y-102299057D01*
X141563220Y-102299057D02*
X141529886Y-102337152D01*
X141529886Y-102337152D02*
X141501315Y-102413342D01*
X141501315Y-102413342D02*
X141529886Y-102641914D01*
X141529886Y-102641914D02*
X141577505Y-102718104D01*
X141577505Y-102718104D02*
X141620362Y-102756200D01*
X141620362Y-102756200D02*
X141701315Y-102794295D01*
X141701315Y-102794295D02*
X141815601Y-102794295D01*
X141206076Y-102794295D02*
X141139410Y-102260961D01*
X141158457Y-102413342D02*
X141110838Y-102337152D01*
X141110838Y-102337152D02*
X141067981Y-102299057D01*
X141067981Y-102299057D02*
X140987029Y-102260961D01*
X140987029Y-102260961D02*
X140910838Y-102260961D01*
X140034648Y-102260961D02*
X140134648Y-103060961D01*
X140039409Y-102299057D02*
X139958457Y-102260961D01*
X139958457Y-102260961D02*
X139806076Y-102260961D01*
X139806076Y-102260961D02*
X139734648Y-102299057D01*
X139734648Y-102299057D02*
X139701314Y-102337152D01*
X139701314Y-102337152D02*
X139672743Y-102413342D01*
X139672743Y-102413342D02*
X139701314Y-102641914D01*
X139701314Y-102641914D02*
X139748933Y-102718104D01*
X139748933Y-102718104D02*
X139791790Y-102756200D01*
X139791790Y-102756200D02*
X139872743Y-102794295D01*
X139872743Y-102794295D02*
X140025124Y-102794295D01*
X140025124Y-102794295D02*
X140096552Y-102756200D01*
X139263219Y-102794295D02*
X139334647Y-102756200D01*
X139334647Y-102756200D02*
X139367980Y-102718104D01*
X139367980Y-102718104D02*
X139396552Y-102641914D01*
X139396552Y-102641914D02*
X139367980Y-102413342D01*
X139367980Y-102413342D02*
X139320361Y-102337152D01*
X139320361Y-102337152D02*
X139277504Y-102299057D01*
X139277504Y-102299057D02*
X139196552Y-102260961D01*
X139196552Y-102260961D02*
X139082266Y-102260961D01*
X139082266Y-102260961D02*
X139010838Y-102299057D01*
X139010838Y-102299057D02*
X138977504Y-102337152D01*
X138977504Y-102337152D02*
X138948933Y-102413342D01*
X138948933Y-102413342D02*
X138977504Y-102641914D01*
X138977504Y-102641914D02*
X139025123Y-102718104D01*
X139025123Y-102718104D02*
X139067980Y-102756200D01*
X139067980Y-102756200D02*
X139148933Y-102794295D01*
X139148933Y-102794295D02*
X139263219Y-102794295D01*
X138663218Y-102260961D02*
X138577504Y-102794295D01*
X138577504Y-102794295D02*
X138377504Y-102413342D01*
X138377504Y-102413342D02*
X138272742Y-102794295D01*
X138272742Y-102794295D02*
X138053694Y-102260961D01*
X137506075Y-102756200D02*
X137587028Y-102794295D01*
X137587028Y-102794295D02*
X137739409Y-102794295D01*
X137739409Y-102794295D02*
X137810837Y-102756200D01*
X137810837Y-102756200D02*
X137839409Y-102680009D01*
X137839409Y-102680009D02*
X137801314Y-102375247D01*
X137801314Y-102375247D02*
X137753694Y-102299057D01*
X137753694Y-102299057D02*
X137672742Y-102260961D01*
X137672742Y-102260961D02*
X137520361Y-102260961D01*
X137520361Y-102260961D02*
X137448933Y-102299057D01*
X137448933Y-102299057D02*
X137420361Y-102375247D01*
X137420361Y-102375247D02*
X137429885Y-102451438D01*
X137429885Y-102451438D02*
X137820361Y-102527628D01*
X137129885Y-102794295D02*
X137063219Y-102260961D01*
X137082266Y-102413342D02*
X137034647Y-102337152D01*
X137034647Y-102337152D02*
X136991790Y-102299057D01*
X136991790Y-102299057D02*
X136910838Y-102260961D01*
X136910838Y-102260961D02*
X136834647Y-102260961D01*
X136325123Y-102756200D02*
X136406076Y-102794295D01*
X136406076Y-102794295D02*
X136558457Y-102794295D01*
X136558457Y-102794295D02*
X136629885Y-102756200D01*
X136629885Y-102756200D02*
X136658457Y-102680009D01*
X136658457Y-102680009D02*
X136620362Y-102375247D01*
X136620362Y-102375247D02*
X136572742Y-102299057D01*
X136572742Y-102299057D02*
X136491790Y-102260961D01*
X136491790Y-102260961D02*
X136339409Y-102260961D01*
X136339409Y-102260961D02*
X136267981Y-102299057D01*
X136267981Y-102299057D02*
X136239409Y-102375247D01*
X136239409Y-102375247D02*
X136248933Y-102451438D01*
X136248933Y-102451438D02*
X136639409Y-102527628D01*
X135606076Y-102794295D02*
X135506076Y-101994295D01*
X135601314Y-102756200D02*
X135682267Y-102794295D01*
X135682267Y-102794295D02*
X135834648Y-102794295D01*
X135834648Y-102794295D02*
X135906076Y-102756200D01*
X135906076Y-102756200D02*
X135939409Y-102718104D01*
X135939409Y-102718104D02*
X135967981Y-102641914D01*
X135967981Y-102641914D02*
X135939409Y-102413342D01*
X135939409Y-102413342D02*
X135891790Y-102337152D01*
X135891790Y-102337152D02*
X135848933Y-102299057D01*
X135848933Y-102299057D02*
X135767981Y-102260961D01*
X135767981Y-102260961D02*
X135615600Y-102260961D01*
X135615600Y-102260961D02*
X135544171Y-102299057D01*
X134615599Y-102794295D02*
X134515599Y-101994295D01*
X134553694Y-102299057D02*
X134472742Y-102260961D01*
X134472742Y-102260961D02*
X134320361Y-102260961D01*
X134320361Y-102260961D02*
X134248933Y-102299057D01*
X134248933Y-102299057D02*
X134215599Y-102337152D01*
X134215599Y-102337152D02*
X134187028Y-102413342D01*
X134187028Y-102413342D02*
X134215599Y-102641914D01*
X134215599Y-102641914D02*
X134263218Y-102718104D01*
X134263218Y-102718104D02*
X134306075Y-102756200D01*
X134306075Y-102756200D02*
X134387028Y-102794295D01*
X134387028Y-102794295D02*
X134539409Y-102794295D01*
X134539409Y-102794295D02*
X134610837Y-102756200D01*
X133901313Y-102260961D02*
X133777504Y-102794295D01*
X133520361Y-102260961D02*
X133777504Y-102794295D01*
X133777504Y-102794295D02*
X133877504Y-102984771D01*
X133877504Y-102984771D02*
X133920361Y-103022866D01*
X133920361Y-103022866D02*
X134001313Y-103060961D01*
D11*
X92035804Y-110035171D02*
X92035804Y-109035171D01*
X92035804Y-109035171D02*
X91797709Y-109035171D01*
X91797709Y-109035171D02*
X91654852Y-109082790D01*
X91654852Y-109082790D02*
X91559614Y-109178028D01*
X91559614Y-109178028D02*
X91511995Y-109273266D01*
X91511995Y-109273266D02*
X91464376Y-109463742D01*
X91464376Y-109463742D02*
X91464376Y-109606599D01*
X91464376Y-109606599D02*
X91511995Y-109797075D01*
X91511995Y-109797075D02*
X91559614Y-109892313D01*
X91559614Y-109892313D02*
X91654852Y-109987552D01*
X91654852Y-109987552D02*
X91797709Y-110035171D01*
X91797709Y-110035171D02*
X92035804Y-110035171D01*
X91035804Y-109511361D02*
X90702471Y-109511361D01*
X90559614Y-110035171D02*
X91035804Y-110035171D01*
X91035804Y-110035171D02*
X91035804Y-109035171D01*
X91035804Y-109035171D02*
X90559614Y-109035171D01*
X90273899Y-109035171D02*
X89940566Y-110035171D01*
X89940566Y-110035171D02*
X89607233Y-109035171D01*
X89273899Y-110035171D02*
X89273899Y-109035171D01*
X88226281Y-109939932D02*
X88273900Y-109987552D01*
X88273900Y-109987552D02*
X88416757Y-110035171D01*
X88416757Y-110035171D02*
X88511995Y-110035171D01*
X88511995Y-110035171D02*
X88654852Y-109987552D01*
X88654852Y-109987552D02*
X88750090Y-109892313D01*
X88750090Y-109892313D02*
X88797709Y-109797075D01*
X88797709Y-109797075D02*
X88845328Y-109606599D01*
X88845328Y-109606599D02*
X88845328Y-109463742D01*
X88845328Y-109463742D02*
X88797709Y-109273266D01*
X88797709Y-109273266D02*
X88750090Y-109178028D01*
X88750090Y-109178028D02*
X88654852Y-109082790D01*
X88654852Y-109082790D02*
X88511995Y-109035171D01*
X88511995Y-109035171D02*
X88416757Y-109035171D01*
X88416757Y-109035171D02*
X88273900Y-109082790D01*
X88273900Y-109082790D02*
X88226281Y-109130409D01*
X87797709Y-109511361D02*
X87464376Y-109511361D01*
X87321519Y-110035171D02*
X87797709Y-110035171D01*
X87797709Y-110035171D02*
X87797709Y-109035171D01*
X87797709Y-109035171D02*
X87321519Y-109035171D01*
X86131042Y-109511361D02*
X85797709Y-109511361D01*
X85654852Y-110035171D02*
X86131042Y-110035171D01*
X86131042Y-110035171D02*
X86131042Y-109035171D01*
X86131042Y-109035171D02*
X85654852Y-109035171D01*
X85273899Y-109987552D02*
X85131042Y-110035171D01*
X85131042Y-110035171D02*
X84892947Y-110035171D01*
X84892947Y-110035171D02*
X84797709Y-109987552D01*
X84797709Y-109987552D02*
X84750090Y-109939932D01*
X84750090Y-109939932D02*
X84702471Y-109844694D01*
X84702471Y-109844694D02*
X84702471Y-109749456D01*
X84702471Y-109749456D02*
X84750090Y-109654218D01*
X84750090Y-109654218D02*
X84797709Y-109606599D01*
X84797709Y-109606599D02*
X84892947Y-109558980D01*
X84892947Y-109558980D02*
X85083423Y-109511361D01*
X85083423Y-109511361D02*
X85178661Y-109463742D01*
X85178661Y-109463742D02*
X85226280Y-109416123D01*
X85226280Y-109416123D02*
X85273899Y-109320885D01*
X85273899Y-109320885D02*
X85273899Y-109225647D01*
X85273899Y-109225647D02*
X85226280Y-109130409D01*
X85226280Y-109130409D02*
X85178661Y-109082790D01*
X85178661Y-109082790D02*
X85083423Y-109035171D01*
X85083423Y-109035171D02*
X84845328Y-109035171D01*
X84845328Y-109035171D02*
X84702471Y-109082790D01*
X84273899Y-110035171D02*
X84273899Y-109035171D01*
X84273899Y-109035171D02*
X84035804Y-109035171D01*
X84035804Y-109035171D02*
X83892947Y-109082790D01*
X83892947Y-109082790D02*
X83797709Y-109178028D01*
X83797709Y-109178028D02*
X83750090Y-109273266D01*
X83750090Y-109273266D02*
X83702471Y-109463742D01*
X83702471Y-109463742D02*
X83702471Y-109606599D01*
X83702471Y-109606599D02*
X83750090Y-109797075D01*
X83750090Y-109797075D02*
X83797709Y-109892313D01*
X83797709Y-109892313D02*
X83892947Y-109987552D01*
X83892947Y-109987552D02*
X84035804Y-110035171D01*
X84035804Y-110035171D02*
X84273899Y-110035171D01*
X92083423Y-111597496D02*
X91940566Y-111645115D01*
X91940566Y-111645115D02*
X91702471Y-111645115D01*
X91702471Y-111645115D02*
X91607233Y-111597496D01*
X91607233Y-111597496D02*
X91559614Y-111549876D01*
X91559614Y-111549876D02*
X91511995Y-111454638D01*
X91511995Y-111454638D02*
X91511995Y-111359400D01*
X91511995Y-111359400D02*
X91559614Y-111264162D01*
X91559614Y-111264162D02*
X91607233Y-111216543D01*
X91607233Y-111216543D02*
X91702471Y-111168924D01*
X91702471Y-111168924D02*
X91892947Y-111121305D01*
X91892947Y-111121305D02*
X91988185Y-111073686D01*
X91988185Y-111073686D02*
X92035804Y-111026067D01*
X92035804Y-111026067D02*
X92083423Y-110930829D01*
X92083423Y-110930829D02*
X92083423Y-110835591D01*
X92083423Y-110835591D02*
X92035804Y-110740353D01*
X92035804Y-110740353D02*
X91988185Y-110692734D01*
X91988185Y-110692734D02*
X91892947Y-110645115D01*
X91892947Y-110645115D02*
X91654852Y-110645115D01*
X91654852Y-110645115D02*
X91511995Y-110692734D01*
X91083423Y-111121305D02*
X90750090Y-111121305D01*
X90607233Y-111645115D02*
X91083423Y-111645115D01*
X91083423Y-111645115D02*
X91083423Y-110645115D01*
X91083423Y-110645115D02*
X90607233Y-110645115D01*
X90178661Y-111645115D02*
X90178661Y-110645115D01*
X90178661Y-110645115D02*
X89607233Y-111645115D01*
X89607233Y-111645115D02*
X89607233Y-110645115D01*
X89178661Y-111597496D02*
X89035804Y-111645115D01*
X89035804Y-111645115D02*
X88797709Y-111645115D01*
X88797709Y-111645115D02*
X88702471Y-111597496D01*
X88702471Y-111597496D02*
X88654852Y-111549876D01*
X88654852Y-111549876D02*
X88607233Y-111454638D01*
X88607233Y-111454638D02*
X88607233Y-111359400D01*
X88607233Y-111359400D02*
X88654852Y-111264162D01*
X88654852Y-111264162D02*
X88702471Y-111216543D01*
X88702471Y-111216543D02*
X88797709Y-111168924D01*
X88797709Y-111168924D02*
X88988185Y-111121305D01*
X88988185Y-111121305D02*
X89083423Y-111073686D01*
X89083423Y-111073686D02*
X89131042Y-111026067D01*
X89131042Y-111026067D02*
X89178661Y-110930829D01*
X89178661Y-110930829D02*
X89178661Y-110835591D01*
X89178661Y-110835591D02*
X89131042Y-110740353D01*
X89131042Y-110740353D02*
X89083423Y-110692734D01*
X89083423Y-110692734D02*
X88988185Y-110645115D01*
X88988185Y-110645115D02*
X88750090Y-110645115D01*
X88750090Y-110645115D02*
X88607233Y-110692734D01*
X88178661Y-111121305D02*
X87845328Y-111121305D01*
X87702471Y-111645115D02*
X88178661Y-111645115D01*
X88178661Y-111645115D02*
X88178661Y-110645115D01*
X88178661Y-110645115D02*
X87702471Y-110645115D01*
X87416756Y-110645115D02*
X86845328Y-110645115D01*
X87131042Y-111645115D02*
X87131042Y-110645115D01*
X86511994Y-111645115D02*
X86511994Y-110645115D01*
X86178661Y-110645115D02*
X85845328Y-111645115D01*
X85845328Y-111645115D02*
X85511995Y-110645115D01*
X85178661Y-111121305D02*
X84845328Y-111121305D01*
X84702471Y-111645115D02*
X85178661Y-111645115D01*
X85178661Y-111645115D02*
X85178661Y-110645115D01*
X85178661Y-110645115D02*
X84702471Y-110645115D01*
X111863660Y-107562457D02*
X111958898Y-107514838D01*
X111958898Y-107514838D02*
X112054136Y-107419600D01*
X112054136Y-107419600D02*
X112196993Y-107276742D01*
X112196993Y-107276742D02*
X112292231Y-107229123D01*
X112292231Y-107229123D02*
X112387469Y-107229123D01*
X112339850Y-107467219D02*
X112435088Y-107419600D01*
X112435088Y-107419600D02*
X112530326Y-107324361D01*
X112530326Y-107324361D02*
X112577945Y-107133885D01*
X112577945Y-107133885D02*
X112577945Y-106800552D01*
X112577945Y-106800552D02*
X112530326Y-106610076D01*
X112530326Y-106610076D02*
X112435088Y-106514838D01*
X112435088Y-106514838D02*
X112339850Y-106467219D01*
X112339850Y-106467219D02*
X112149374Y-106467219D01*
X112149374Y-106467219D02*
X112054136Y-106514838D01*
X112054136Y-106514838D02*
X111958898Y-106610076D01*
X111958898Y-106610076D02*
X111911279Y-106800552D01*
X111911279Y-106800552D02*
X111911279Y-107133885D01*
X111911279Y-107133885D02*
X111958898Y-107324361D01*
X111958898Y-107324361D02*
X112054136Y-107419600D01*
X112054136Y-107419600D02*
X112149374Y-107467219D01*
X112149374Y-107467219D02*
X112339850Y-107467219D01*
X110911279Y-107371980D02*
X110958898Y-107419600D01*
X110958898Y-107419600D02*
X111101755Y-107467219D01*
X111101755Y-107467219D02*
X111196993Y-107467219D01*
X111196993Y-107467219D02*
X111339850Y-107419600D01*
X111339850Y-107419600D02*
X111435088Y-107324361D01*
X111435088Y-107324361D02*
X111482707Y-107229123D01*
X111482707Y-107229123D02*
X111530326Y-107038647D01*
X111530326Y-107038647D02*
X111530326Y-106895790D01*
X111530326Y-106895790D02*
X111482707Y-106705314D01*
X111482707Y-106705314D02*
X111435088Y-106610076D01*
X111435088Y-106610076D02*
X111339850Y-106514838D01*
X111339850Y-106514838D02*
X111196993Y-106467219D01*
X111196993Y-106467219D02*
X111101755Y-106467219D01*
X111101755Y-106467219D02*
X110958898Y-106514838D01*
X110958898Y-106514838D02*
X110911279Y-106562457D01*
X119777945Y-106219600D02*
X119635088Y-106267219D01*
X119635088Y-106267219D02*
X119396993Y-106267219D01*
X119396993Y-106267219D02*
X119301755Y-106219600D01*
X119301755Y-106219600D02*
X119254136Y-106171980D01*
X119254136Y-106171980D02*
X119206517Y-106076742D01*
X119206517Y-106076742D02*
X119206517Y-105981504D01*
X119206517Y-105981504D02*
X119254136Y-105886266D01*
X119254136Y-105886266D02*
X119301755Y-105838647D01*
X119301755Y-105838647D02*
X119396993Y-105791028D01*
X119396993Y-105791028D02*
X119587469Y-105743409D01*
X119587469Y-105743409D02*
X119682707Y-105695790D01*
X119682707Y-105695790D02*
X119730326Y-105648171D01*
X119730326Y-105648171D02*
X119777945Y-105552933D01*
X119777945Y-105552933D02*
X119777945Y-105457695D01*
X119777945Y-105457695D02*
X119730326Y-105362457D01*
X119730326Y-105362457D02*
X119682707Y-105314838D01*
X119682707Y-105314838D02*
X119587469Y-105267219D01*
X119587469Y-105267219D02*
X119349374Y-105267219D01*
X119349374Y-105267219D02*
X119206517Y-105314838D01*
X118777945Y-106267219D02*
X118777945Y-105267219D01*
X118777945Y-105267219D02*
X118206517Y-106267219D01*
X118206517Y-106267219D02*
X118206517Y-105267219D01*
D13*
X169595740Y-128229464D02*
X169595740Y-126929464D01*
X169595740Y-126929464D02*
X169162406Y-127858036D01*
X169162406Y-127858036D02*
X168729073Y-126929464D01*
X168729073Y-126929464D02*
X168729073Y-128229464D01*
X168110026Y-128229464D02*
X168110026Y-126929464D01*
X167490978Y-128229464D02*
X167490978Y-126929464D01*
X167490978Y-126929464D02*
X166748121Y-128229464D01*
X166748121Y-128229464D02*
X166748121Y-126929464D01*
X166129073Y-128229464D02*
X166129073Y-126929464D01*
X164519549Y-128229464D02*
X164519549Y-126929464D01*
X164519549Y-126929464D02*
X164086215Y-127858036D01*
X164086215Y-127858036D02*
X163652882Y-126929464D01*
X163652882Y-126929464D02*
X163652882Y-128229464D01*
X162786216Y-126929464D02*
X162538597Y-126929464D01*
X162538597Y-126929464D02*
X162414787Y-126991369D01*
X162414787Y-126991369D02*
X162290978Y-127115179D01*
X162290978Y-127115179D02*
X162229073Y-127362798D01*
X162229073Y-127362798D02*
X162229073Y-127796131D01*
X162229073Y-127796131D02*
X162290978Y-128043750D01*
X162290978Y-128043750D02*
X162414787Y-128167560D01*
X162414787Y-128167560D02*
X162538597Y-128229464D01*
X162538597Y-128229464D02*
X162786216Y-128229464D01*
X162786216Y-128229464D02*
X162910025Y-128167560D01*
X162910025Y-128167560D02*
X163033835Y-128043750D01*
X163033835Y-128043750D02*
X163095739Y-127796131D01*
X163095739Y-127796131D02*
X163095739Y-127362798D01*
X163095739Y-127362798D02*
X163033835Y-127115179D01*
X163033835Y-127115179D02*
X162910025Y-126991369D01*
X162910025Y-126991369D02*
X162786216Y-126929464D01*
X161671930Y-128229464D02*
X161671930Y-126929464D01*
X161671930Y-126929464D02*
X161362406Y-126929464D01*
X161362406Y-126929464D02*
X161176692Y-126991369D01*
X161176692Y-126991369D02*
X161052882Y-127115179D01*
X161052882Y-127115179D02*
X160990977Y-127238988D01*
X160990977Y-127238988D02*
X160929073Y-127486607D01*
X160929073Y-127486607D02*
X160929073Y-127672321D01*
X160929073Y-127672321D02*
X160990977Y-127919940D01*
X160990977Y-127919940D02*
X161052882Y-128043750D01*
X161052882Y-128043750D02*
X161176692Y-128167560D01*
X161176692Y-128167560D02*
X161362406Y-128229464D01*
X161362406Y-128229464D02*
X161671930Y-128229464D01*
X160371930Y-126929464D02*
X160371930Y-127981845D01*
X160371930Y-127981845D02*
X160310025Y-128105655D01*
X160310025Y-128105655D02*
X160248120Y-128167560D01*
X160248120Y-128167560D02*
X160124311Y-128229464D01*
X160124311Y-128229464D02*
X159876692Y-128229464D01*
X159876692Y-128229464D02*
X159752882Y-128167560D01*
X159752882Y-128167560D02*
X159690977Y-128105655D01*
X159690977Y-128105655D02*
X159629073Y-127981845D01*
X159629073Y-127981845D02*
X159629073Y-126929464D01*
X158267168Y-128105655D02*
X158329072Y-128167560D01*
X158329072Y-128167560D02*
X158514787Y-128229464D01*
X158514787Y-128229464D02*
X158638596Y-128229464D01*
X158638596Y-128229464D02*
X158824310Y-128167560D01*
X158824310Y-128167560D02*
X158948120Y-128043750D01*
X158948120Y-128043750D02*
X159010025Y-127919940D01*
X159010025Y-127919940D02*
X159071929Y-127672321D01*
X159071929Y-127672321D02*
X159071929Y-127486607D01*
X159071929Y-127486607D02*
X159010025Y-127238988D01*
X159010025Y-127238988D02*
X158948120Y-127115179D01*
X158948120Y-127115179D02*
X158824310Y-126991369D01*
X158824310Y-126991369D02*
X158638596Y-126929464D01*
X158638596Y-126929464D02*
X158514787Y-126929464D01*
X158514787Y-126929464D02*
X158329072Y-126991369D01*
X158329072Y-126991369D02*
X158267168Y-127053274D01*
X157771929Y-127858036D02*
X157152882Y-127858036D01*
X157895739Y-128229464D02*
X157462406Y-126929464D01*
X157462406Y-126929464D02*
X157029072Y-128229464D01*
X155852882Y-128229464D02*
X156286215Y-127610417D01*
X156595739Y-128229464D02*
X156595739Y-126929464D01*
X156595739Y-126929464D02*
X156100501Y-126929464D01*
X156100501Y-126929464D02*
X155976691Y-126991369D01*
X155976691Y-126991369D02*
X155914786Y-127053274D01*
X155914786Y-127053274D02*
X155852882Y-127177083D01*
X155852882Y-127177083D02*
X155852882Y-127362798D01*
X155852882Y-127362798D02*
X155914786Y-127486607D01*
X155914786Y-127486607D02*
X155976691Y-127548512D01*
X155976691Y-127548512D02*
X156100501Y-127610417D01*
X156100501Y-127610417D02*
X156595739Y-127610417D01*
X155295739Y-128229464D02*
X155295739Y-126929464D01*
X155295739Y-126929464D02*
X154986215Y-126929464D01*
X154986215Y-126929464D02*
X154800501Y-126991369D01*
X154800501Y-126991369D02*
X154676691Y-127115179D01*
X154676691Y-127115179D02*
X154614786Y-127238988D01*
X154614786Y-127238988D02*
X154552882Y-127486607D01*
X154552882Y-127486607D02*
X154552882Y-127672321D01*
X154552882Y-127672321D02*
X154614786Y-127919940D01*
X154614786Y-127919940D02*
X154676691Y-128043750D01*
X154676691Y-128043750D02*
X154800501Y-128167560D01*
X154800501Y-128167560D02*
X154986215Y-128229464D01*
X154986215Y-128229464D02*
X155295739Y-128229464D01*
X153067167Y-128167560D02*
X152881453Y-128229464D01*
X152881453Y-128229464D02*
X152571929Y-128229464D01*
X152571929Y-128229464D02*
X152448120Y-128167560D01*
X152448120Y-128167560D02*
X152386215Y-128105655D01*
X152386215Y-128105655D02*
X152324310Y-127981845D01*
X152324310Y-127981845D02*
X152324310Y-127858036D01*
X152324310Y-127858036D02*
X152386215Y-127734226D01*
X152386215Y-127734226D02*
X152448120Y-127672321D01*
X152448120Y-127672321D02*
X152571929Y-127610417D01*
X152571929Y-127610417D02*
X152819548Y-127548512D01*
X152819548Y-127548512D02*
X152943358Y-127486607D01*
X152943358Y-127486607D02*
X153005263Y-127424702D01*
X153005263Y-127424702D02*
X153067167Y-127300893D01*
X153067167Y-127300893D02*
X153067167Y-127177083D01*
X153067167Y-127177083D02*
X153005263Y-127053274D01*
X153005263Y-127053274D02*
X152943358Y-126991369D01*
X152943358Y-126991369D02*
X152819548Y-126929464D01*
X152819548Y-126929464D02*
X152510025Y-126929464D01*
X152510025Y-126929464D02*
X152324310Y-126991369D01*
X151519549Y-127610417D02*
X151519549Y-128229464D01*
X151952882Y-126929464D02*
X151519549Y-127610417D01*
X151519549Y-127610417D02*
X151086215Y-126929464D01*
X150714786Y-128167560D02*
X150529072Y-128229464D01*
X150529072Y-128229464D02*
X150219548Y-128229464D01*
X150219548Y-128229464D02*
X150095739Y-128167560D01*
X150095739Y-128167560D02*
X150033834Y-128105655D01*
X150033834Y-128105655D02*
X149971929Y-127981845D01*
X149971929Y-127981845D02*
X149971929Y-127858036D01*
X149971929Y-127858036D02*
X150033834Y-127734226D01*
X150033834Y-127734226D02*
X150095739Y-127672321D01*
X150095739Y-127672321D02*
X150219548Y-127610417D01*
X150219548Y-127610417D02*
X150467167Y-127548512D01*
X150467167Y-127548512D02*
X150590977Y-127486607D01*
X150590977Y-127486607D02*
X150652882Y-127424702D01*
X150652882Y-127424702D02*
X150714786Y-127300893D01*
X150714786Y-127300893D02*
X150714786Y-127177083D01*
X150714786Y-127177083D02*
X150652882Y-127053274D01*
X150652882Y-127053274D02*
X150590977Y-126991369D01*
X150590977Y-126991369D02*
X150467167Y-126929464D01*
X150467167Y-126929464D02*
X150157644Y-126929464D01*
X150157644Y-126929464D02*
X149971929Y-126991369D01*
X149600501Y-126929464D02*
X148857644Y-126929464D01*
X149229072Y-128229464D02*
X149229072Y-126929464D01*
X148424311Y-127548512D02*
X147990977Y-127548512D01*
X147805263Y-128229464D02*
X148424311Y-128229464D01*
X148424311Y-128229464D02*
X148424311Y-126929464D01*
X148424311Y-126929464D02*
X147805263Y-126929464D01*
X147248121Y-128229464D02*
X147248121Y-126929464D01*
X147248121Y-126929464D02*
X146814787Y-127858036D01*
X146814787Y-127858036D02*
X146381454Y-126929464D01*
X146381454Y-126929464D02*
X146381454Y-128229464D01*
D14*
G36*
X169731716Y-118807070D02*
G01*
X166881646Y-118807070D01*
X165781882Y-123065077D01*
X164686819Y-118807070D01*
X161846580Y-118807070D01*
X161846580Y-125810001D01*
X163615692Y-125810001D01*
X163615692Y-120463769D01*
X164988154Y-125810001D01*
X166590143Y-125810001D01*
X167957475Y-120463769D01*
X167957475Y-125810001D01*
X169731716Y-125810001D01*
X169731716Y-118807070D01*
G37*
G36*
X160485659Y-118807070D02*
G01*
X157635589Y-118807070D01*
X156535825Y-123065077D01*
X155440762Y-118807070D01*
X152600523Y-118807070D01*
X152600523Y-125810001D01*
X154369635Y-125810001D01*
X154369635Y-120463769D01*
X155742096Y-125810001D01*
X157344085Y-125810001D01*
X158711418Y-120463769D01*
X158711418Y-125810001D01*
X160485659Y-125810001D01*
X160485659Y-118807070D01*
G37*
G36*
X151593510Y-123477542D02*
G01*
X149532466Y-123348033D01*
X149466505Y-123678401D01*
X149373877Y-123928815D01*
X149259769Y-124115260D01*
X149077283Y-124299877D01*
X148862012Y-124431615D01*
X148607410Y-124513391D01*
X148303620Y-124542258D01*
X148001546Y-124515074D01*
X147768416Y-124440898D01*
X147588965Y-124325981D01*
X147445633Y-124168805D01*
X147364490Y-124003631D01*
X147337639Y-123824611D01*
X147362991Y-123654101D01*
X147440024Y-123494190D01*
X147576570Y-123339484D01*
X147756085Y-123223640D01*
X148099657Y-123088680D01*
X148686165Y-122935567D01*
X149421777Y-122740213D01*
X149986064Y-122530596D01*
X150409334Y-122312194D01*
X150718143Y-122088411D01*
X150988044Y-121803128D01*
X151176698Y-121488230D01*
X151290875Y-121137334D01*
X151330216Y-120740740D01*
X151295896Y-120391040D01*
X151192803Y-120054031D01*
X151016913Y-119723896D01*
X150780583Y-119435030D01*
X150470672Y-119184479D01*
X150074869Y-118971628D01*
X149645900Y-118829481D01*
X149081826Y-118733450D01*
X148351064Y-118697649D01*
X147664391Y-118735070D01*
X147108150Y-118837880D01*
X146660409Y-118994739D01*
X146302416Y-119198591D01*
X145995558Y-119474381D01*
X145753217Y-119822410D01*
X145573808Y-120255706D01*
X145462953Y-120792886D01*
X147504762Y-120913420D01*
X147585245Y-120607022D01*
X147700565Y-120381609D01*
X147846702Y-120219709D01*
X148032177Y-120103984D01*
X148267588Y-120029913D01*
X148566486Y-120003005D01*
X148913280Y-120047374D01*
X149135816Y-120162434D01*
X149280178Y-120340926D01*
X149326875Y-120549681D01*
X149289668Y-120703330D01*
X149169155Y-120848879D01*
X148958329Y-120964590D01*
X148442105Y-121105761D01*
X147489000Y-121335422D01*
X146834107Y-121540868D01*
X146407562Y-121722108D01*
X146020228Y-121957291D01*
X145727008Y-122215014D01*
X145513389Y-122495747D01*
X145358657Y-122813749D01*
X145265273Y-123156038D01*
X145233426Y-123528833D01*
X145274997Y-123965422D01*
X145398470Y-124375675D01*
X145606568Y-124767084D01*
X145885113Y-125111518D01*
X146229687Y-125397046D01*
X146649057Y-125626635D01*
X147104847Y-125781897D01*
X147661071Y-125882903D01*
X148336959Y-125919421D01*
X149097388Y-125883365D01*
X149699809Y-125785476D01*
X150171531Y-125638671D01*
X150536362Y-125452004D01*
X150813886Y-125229985D01*
X151118244Y-124865668D01*
X151348568Y-124457247D01*
X151507636Y-123997717D01*
X151593510Y-123477542D01*
G37*
G36*
X143093503Y-121406746D02*
G01*
X143298568Y-121259188D01*
X143419713Y-121114729D01*
X143486631Y-120930088D01*
X143514773Y-120601819D01*
X143461810Y-120293905D01*
X143297380Y-119998609D01*
X142996392Y-119704569D01*
X142632588Y-119472376D01*
X142155272Y-119262156D01*
X141540411Y-119079503D01*
X140573027Y-118913449D01*
X139445687Y-118854506D01*
X138627910Y-118913874D01*
X138021900Y-119071683D01*
X137579378Y-119306551D01*
X137235105Y-119649343D01*
X137026466Y-120083572D01*
X136952260Y-120638749D01*
X137013053Y-121136454D01*
X137188883Y-121561987D01*
X137485357Y-121932102D01*
X137965087Y-122299210D01*
X138438103Y-122500087D01*
X139617284Y-122829253D01*
X141985617Y-123340759D01*
X140989453Y-123447950D01*
X140226678Y-123605420D01*
X139560547Y-123863452D01*
X139073656Y-124214073D01*
X138838990Y-124514508D01*
X138694662Y-124880620D01*
X138643496Y-125331533D01*
X138710706Y-125818918D01*
X138921318Y-126320107D01*
X139302072Y-126849747D01*
X139777301Y-127305186D01*
X140381314Y-127718504D01*
X141135554Y-128087570D01*
X141932087Y-128352172D01*
X142798382Y-128515027D01*
X143745240Y-128571073D01*
X144428907Y-128529050D01*
X144953151Y-128416177D01*
X145350307Y-128247598D01*
X145684535Y-127996302D01*
X145865687Y-127724173D01*
X145924766Y-127418735D01*
X145881161Y-127129758D01*
X145738750Y-126805295D01*
X145533258Y-126502210D01*
X145296280Y-126247933D01*
X145038430Y-126061825D01*
X144854494Y-126012678D01*
X144755249Y-126039368D01*
X144725924Y-126110473D01*
X144806622Y-126327946D01*
X144879113Y-126483871D01*
X144811024Y-126625862D01*
X144532386Y-126780675D01*
X144157290Y-126872585D01*
X143631032Y-126907877D01*
X142876956Y-126864441D01*
X142151800Y-126735539D01*
X141459237Y-126532083D01*
X140866789Y-126284178D01*
X140339315Y-125983587D01*
X139971591Y-125693990D01*
X139712852Y-125375397D01*
X139643328Y-125131157D01*
X139711447Y-124835724D01*
X139917830Y-124605144D01*
X140310795Y-124427444D01*
X141065758Y-124293991D01*
X142345338Y-124238009D01*
X143243272Y-124307765D01*
X143661123Y-124376837D01*
X143758383Y-124346758D01*
X143797899Y-124185351D01*
X143761729Y-123866248D01*
X143631716Y-123410515D01*
X143433773Y-122994000D01*
X143237117Y-122788868D01*
X142999588Y-122703310D01*
X142164110Y-122533780D01*
X140564515Y-122230822D01*
X139868909Y-122051619D01*
X138971074Y-121752789D01*
X138443499Y-121503996D01*
X138108702Y-121248770D01*
X137883507Y-120957195D01*
X137822840Y-120735860D01*
X137884494Y-120525947D01*
X138085652Y-120355413D01*
X138505805Y-120223869D01*
X139277452Y-120167556D01*
X139989837Y-120189695D01*
X140674619Y-120255092D01*
X141314643Y-120359032D01*
X141731898Y-120466411D01*
X142048470Y-120605132D01*
X142109399Y-120688672D01*
X142034856Y-120835023D01*
X141880983Y-120921875D01*
X141619057Y-121012147D01*
X141517159Y-121083955D01*
X141466552Y-121209105D01*
X141543188Y-121298833D01*
X141940753Y-121384269D01*
X143093503Y-121406746D01*
G37*
G36*
X128884612Y-103495729D02*
G01*
X128886688Y-103553248D01*
X128892916Y-103593792D01*
X128903785Y-103622857D01*
X128925645Y-103650701D01*
X128983653Y-103691123D01*
X129088799Y-103738506D01*
X129230949Y-103776120D01*
X129312606Y-103787346D01*
X129403750Y-103791263D01*
X129523884Y-103784707D01*
X129632712Y-103765762D01*
X129731646Y-103735209D01*
X129824889Y-103691244D01*
X129907399Y-103635499D01*
X129980286Y-103567536D01*
X130041968Y-103488951D01*
X130094440Y-103396712D01*
X130137456Y-103288977D01*
X130166829Y-103176323D01*
X130185472Y-103047457D01*
X130192044Y-102900143D01*
X130184897Y-102750333D01*
X130164465Y-102617274D01*
X130131960Y-102498974D01*
X130085253Y-102385767D01*
X130029162Y-102288256D01*
X129963921Y-102204661D01*
X129887216Y-102131707D01*
X129801247Y-102071687D01*
X129705024Y-102024043D01*
X129602655Y-101990229D01*
X129492154Y-101969487D01*
X129372243Y-101962372D01*
X129230216Y-101974951D01*
X129103820Y-102007801D01*
X128999284Y-102054452D01*
X128934438Y-102099881D01*
X128909159Y-102131022D01*
X128898290Y-102162651D01*
X128892062Y-102207958D01*
X128889986Y-102272438D01*
X128892794Y-102342536D01*
X128902320Y-102389187D01*
X128918684Y-102415321D01*
X128940544Y-102423503D01*
X128961502Y-102418480D01*
X128992445Y-102399323D01*
X129073778Y-102345345D01*
X129192602Y-102291367D01*
X129265398Y-102273661D01*
X129357222Y-102267187D01*
X129458254Y-102278291D01*
X129545167Y-102310296D01*
X129621194Y-102362087D01*
X129685973Y-102433272D01*
X129736036Y-102519545D01*
X129774023Y-102626713D01*
X129796180Y-102744196D01*
X129804064Y-102882313D01*
X129795449Y-103032550D01*
X129771946Y-103152323D01*
X129731716Y-103259001D01*
X129680478Y-103340268D01*
X129614562Y-103404891D01*
X129536985Y-103450300D01*
X129449301Y-103477093D01*
X129347697Y-103486448D01*
X129255683Y-103480526D01*
X129182466Y-103464344D01*
X129062909Y-103415495D01*
X128980966Y-103367257D01*
X128949876Y-103350083D01*
X128931018Y-103345764D01*
X128909159Y-103351259D01*
X128895603Y-103372875D01*
X128887421Y-103418060D01*
X128884612Y-103495729D01*
G37*
G36*
X127482780Y-103713105D02*
G01*
X127490963Y-103737041D01*
X127518318Y-103754138D01*
X127570952Y-103764396D01*
X127653506Y-103767815D01*
X127737648Y-103764396D01*
X127790282Y-103754138D01*
X127817515Y-103737041D01*
X127825697Y-103712983D01*
X127825697Y-103015547D01*
X127829433Y-102931210D01*
X127838764Y-102875718D01*
X127855030Y-102827670D01*
X127876256Y-102788768D01*
X127904423Y-102756512D01*
X127939759Y-102732592D01*
X127980981Y-102717878D01*
X128030617Y-102712686D01*
X128094603Y-102723996D01*
X128163119Y-102760680D01*
X128228174Y-102816313D01*
X128302459Y-102900387D01*
X128302459Y-103712983D01*
X128310642Y-103737041D01*
X128338729Y-103754138D01*
X128391364Y-103764396D01*
X128474528Y-103767815D01*
X128557937Y-103764396D01*
X128610572Y-103754138D01*
X128638538Y-103737163D01*
X128646720Y-103713227D01*
X128646720Y-101919385D01*
X128638538Y-101894961D01*
X128610572Y-101876521D01*
X128557937Y-101864919D01*
X128474528Y-101860767D01*
X128391364Y-101864919D01*
X128338729Y-101876399D01*
X128310642Y-101894717D01*
X128302459Y-101919263D01*
X128302459Y-102589344D01*
X128210481Y-102511245D01*
X128121475Y-102458796D01*
X128027148Y-102426412D01*
X127929501Y-102415687D01*
X127811269Y-102426674D01*
X127719818Y-102456720D01*
X127642057Y-102505736D01*
X127581821Y-102568827D01*
X127537014Y-102644861D01*
X127505983Y-102734912D01*
X127489091Y-102835064D01*
X127482780Y-102965233D01*
X127482780Y-103713105D01*
G37*
G36*
X126800610Y-102428998D02*
G01*
X126940561Y-102463192D01*
X127052669Y-102508499D01*
X127119591Y-102552463D01*
X127145481Y-102596304D01*
X127152320Y-102662372D01*
X127148290Y-102719036D01*
X127136688Y-102762267D01*
X127117515Y-102789256D01*
X127090893Y-102798660D01*
X127068046Y-102794552D01*
X127034228Y-102779242D01*
X126947400Y-102736133D01*
X126827843Y-102693147D01*
X126757571Y-102678745D01*
X126674214Y-102673607D01*
X126611435Y-102677377D01*
X126564183Y-102687407D01*
X126523439Y-102705446D01*
X126493108Y-102730150D01*
X126470562Y-102762120D01*
X126454884Y-102802568D01*
X126443283Y-102903928D01*
X126443283Y-102978422D01*
X126562107Y-102978422D01*
X126719753Y-102985021D01*
X126847749Y-103003091D01*
X126963992Y-103035599D01*
X127053401Y-103079050D01*
X127126505Y-103137899D01*
X127177721Y-103208988D01*
X127208473Y-103292544D01*
X127219364Y-103394368D01*
X127210768Y-103488907D01*
X127186636Y-103566803D01*
X127146926Y-103635017D01*
X127094434Y-103690635D01*
X127030291Y-103733989D01*
X126953628Y-103765861D01*
X126869816Y-103784707D01*
X126775331Y-103791263D01*
X126661833Y-103779690D01*
X126561496Y-103746078D01*
X126470814Y-103692302D01*
X126390038Y-103620293D01*
X126390038Y-103717257D01*
X126378436Y-103747421D01*
X126338869Y-103763053D01*
X126249354Y-103767815D01*
X126162648Y-103763053D01*
X126119539Y-103747421D01*
X126105861Y-103717257D01*
X126105861Y-103404504D01*
X126443283Y-103404504D01*
X126507979Y-103468858D01*
X126566992Y-103512215D01*
X126630553Y-103539741D01*
X126700226Y-103548974D01*
X126779346Y-103537270D01*
X126834804Y-103505376D01*
X126870654Y-103454816D01*
X126883286Y-103385331D01*
X126878851Y-103342211D01*
X126866189Y-103305708D01*
X126844593Y-103273961D01*
X126812212Y-103246357D01*
X126771744Y-103225624D01*
X126716591Y-103209598D01*
X126654764Y-103200622D01*
X126574441Y-103197264D01*
X126443283Y-103197264D01*
X126443283Y-103404504D01*
X126105861Y-103404504D01*
X126105861Y-102896967D01*
X126113901Y-102775978D01*
X126135903Y-102679591D01*
X126175395Y-102595483D01*
X126231524Y-102529870D01*
X126304213Y-102480295D01*
X126398953Y-102443775D01*
X126506163Y-102423290D01*
X126644173Y-102415687D01*
X126800610Y-102428998D01*
G37*
G36*
X125418440Y-103713105D02*
G01*
X125426622Y-103737041D01*
X125454710Y-103754138D01*
X125507344Y-103764396D01*
X125590509Y-103767815D01*
X125673918Y-103764396D01*
X125726552Y-103754138D01*
X125754518Y-103737041D01*
X125762700Y-103713105D01*
X125762700Y-102496531D01*
X125754518Y-102472595D01*
X125726552Y-102454888D01*
X125673918Y-102443286D01*
X125590509Y-102439134D01*
X125507344Y-102443286D01*
X125454710Y-102454888D01*
X125426622Y-102472595D01*
X125418440Y-102496531D01*
X125418440Y-103713105D01*
G37*
G36*
X125392550Y-102084738D02*
G01*
X125398363Y-102152594D01*
X125413271Y-102198167D01*
X125434926Y-102227742D01*
X125488261Y-102255415D01*
X125591974Y-102267187D01*
X125696805Y-102255656D01*
X125748412Y-102229085D01*
X125776974Y-102180993D01*
X125788712Y-102091454D01*
X125776597Y-101998276D01*
X125747069Y-101947840D01*
X125716222Y-101927723D01*
X125666293Y-101913377D01*
X125589288Y-101907662D01*
X125485632Y-101919332D01*
X125433583Y-101946496D01*
X125404440Y-101995267D01*
X125392550Y-102084738D01*
G37*
G36*
X123912927Y-103713105D02*
G01*
X123921109Y-103737041D01*
X123948464Y-103754138D01*
X124001099Y-103764396D01*
X124083653Y-103767815D01*
X124167794Y-103764396D01*
X124220429Y-103754138D01*
X124247662Y-103737041D01*
X124255844Y-103712983D01*
X124255844Y-103015547D01*
X124259580Y-102931210D01*
X124268911Y-102875718D01*
X124285177Y-102827670D01*
X124306402Y-102788768D01*
X124334569Y-102756512D01*
X124369905Y-102732592D01*
X124411128Y-102717878D01*
X124460764Y-102712686D01*
X124524750Y-102723996D01*
X124593265Y-102760680D01*
X124658320Y-102816313D01*
X124732606Y-102900387D01*
X124732606Y-103712983D01*
X124740788Y-103737041D01*
X124768876Y-103754138D01*
X124821510Y-103764396D01*
X124904675Y-103767815D01*
X124988084Y-103764396D01*
X125040718Y-103754138D01*
X125068684Y-103737041D01*
X125076866Y-103713105D01*
X125076866Y-102493845D01*
X125070027Y-102469909D01*
X125045481Y-102452812D01*
X124999685Y-102442554D01*
X124929344Y-102439134D01*
X124856926Y-102442554D01*
X124812595Y-102452812D01*
X124790003Y-102469909D01*
X124783164Y-102493845D01*
X124783164Y-102634651D01*
X124678124Y-102536352D01*
X124577634Y-102470397D01*
X124470345Y-102429233D01*
X124359647Y-102415687D01*
X124241416Y-102426674D01*
X124149965Y-102456720D01*
X124072156Y-102505619D01*
X124011967Y-102568217D01*
X123967163Y-102643551D01*
X123936130Y-102732958D01*
X123919217Y-102832154D01*
X123912927Y-102959860D01*
X123912927Y-103713105D01*
G37*
G36*
X123489367Y-102000470D02*
G01*
X123523237Y-102020258D01*
X123545398Y-102052984D01*
X123553890Y-102106964D01*
X123553890Y-103646671D01*
X123545398Y-103700650D01*
X123523237Y-103733377D01*
X123489367Y-103753165D01*
X123447278Y-103760000D01*
X122977355Y-103760000D01*
X122873221Y-103756594D01*
X122784036Y-103747055D01*
X122699015Y-103730343D01*
X122620760Y-103706877D01*
X122546914Y-103675527D01*
X122480687Y-103637267D01*
X122421440Y-103590673D01*
X122371388Y-103536273D01*
X122330914Y-103473785D01*
X122299703Y-103401207D01*
X122280446Y-103321967D01*
X122274720Y-103244525D01*
X122646650Y-103244525D01*
X122652162Y-103300659D01*
X122667899Y-103348450D01*
X122693271Y-103390436D01*
X122726639Y-103424654D01*
X122767017Y-103451166D01*
X122815422Y-103470816D01*
X122869756Y-103482181D01*
X122941695Y-103486448D01*
X123201325Y-103486448D01*
X123201325Y-102986238D01*
X122988224Y-102986238D01*
X122894508Y-102991185D01*
X122828367Y-103003946D01*
X122770903Y-103026024D01*
X122727250Y-103054260D01*
X122692527Y-103090665D01*
X122667166Y-103135104D01*
X122651978Y-103185526D01*
X122646650Y-103244525D01*
X122274720Y-103244525D01*
X122273691Y-103230603D01*
X122280792Y-103143490D01*
X122301046Y-103068304D01*
X122333602Y-103000031D01*
X122375418Y-102942152D01*
X122426631Y-102893189D01*
X122486182Y-102854103D01*
X122552103Y-102825296D01*
X122624790Y-102806353D01*
X122568789Y-102780801D01*
X122520254Y-102748956D01*
X122477903Y-102710533D01*
X122443073Y-102667013D01*
X122415592Y-102618362D01*
X122395324Y-102563942D01*
X122383045Y-102506010D01*
X122381604Y-102484441D01*
X122738241Y-102484441D01*
X122753262Y-102575666D01*
X122772290Y-102616292D01*
X122799057Y-102651259D01*
X122833114Y-102679707D01*
X122876238Y-102702062D01*
X122926880Y-102715332D01*
X123000558Y-102720502D01*
X123201325Y-102720502D01*
X123201325Y-102259371D01*
X123019609Y-102259371D01*
X122940586Y-102263642D01*
X122886496Y-102274515D01*
X122839878Y-102293346D01*
X122803820Y-102317745D01*
X122775257Y-102349229D01*
X122754605Y-102388454D01*
X122742498Y-102432736D01*
X122738241Y-102484441D01*
X122381604Y-102484441D01*
X122378838Y-102443042D01*
X122389618Y-102333289D01*
X122419870Y-102243618D01*
X122469806Y-102166310D01*
X122538084Y-102103545D01*
X122621757Y-102056292D01*
X122727983Y-102020990D01*
X122847029Y-102001099D01*
X123003244Y-101993635D01*
X123447278Y-101993635D01*
X123489367Y-102000470D01*
G37*
G36*
X120849511Y-103713105D02*
G01*
X120856350Y-103737041D01*
X120880286Y-103754138D01*
X120925348Y-103764396D01*
X120995690Y-103767815D01*
X121068841Y-103764396D01*
X121113171Y-103754138D01*
X121136374Y-103737041D01*
X121143213Y-103713105D01*
X121143213Y-103572299D01*
X121248257Y-103670514D01*
X121348866Y-103736552D01*
X121455870Y-103777753D01*
X121565387Y-103791263D01*
X121684803Y-103780244D01*
X121776413Y-103750230D01*
X121854174Y-103701214D01*
X121914410Y-103638122D01*
X121959139Y-103562262D01*
X121989637Y-103473381D01*
X122005926Y-103373944D01*
X122012107Y-103240251D01*
X122012107Y-102493845D01*
X122004658Y-102469909D01*
X121977302Y-102452812D01*
X121924057Y-102442554D01*
X121841381Y-102439134D01*
X121758094Y-102442554D01*
X121705460Y-102452812D01*
X121677372Y-102470031D01*
X121669190Y-102493967D01*
X121669190Y-103184563D01*
X121665640Y-103274896D01*
X121656978Y-103331231D01*
X121641023Y-103379226D01*
X121619364Y-103418304D01*
X121590625Y-103450519D01*
X121555129Y-103474480D01*
X121513913Y-103489102D01*
X121464270Y-103494263D01*
X121400426Y-103482827D01*
X121332501Y-103445781D01*
X121267481Y-103389593D01*
X121191085Y-103304364D01*
X121191085Y-102493845D01*
X121183635Y-102469909D01*
X121156280Y-102452812D01*
X121103646Y-102442554D01*
X121020237Y-102439134D01*
X120937072Y-102442554D01*
X120885048Y-102452812D01*
X120857693Y-102469909D01*
X120849511Y-102493845D01*
X120849511Y-103713105D01*
G37*
G36*
X119644783Y-103368722D02*
G01*
X119654919Y-103468357D01*
X119683740Y-103552027D01*
X119730683Y-103624759D01*
X119793771Y-103684651D01*
X119869946Y-103730614D01*
X119961810Y-103764518D01*
X120061311Y-103784377D01*
X120172103Y-103791263D01*
X120302529Y-103781371D01*
X120413904Y-103756336D01*
X120495969Y-103725439D01*
X120543719Y-103695764D01*
X120566922Y-103650823D01*
X120575104Y-103558866D01*
X120572418Y-103494630D01*
X120564235Y-103455917D01*
X120550558Y-103436622D01*
X120530041Y-103431737D01*
X120485711Y-103448712D01*
X120412561Y-103485837D01*
X120310833Y-103523572D01*
X120250429Y-103536541D01*
X120178942Y-103541158D01*
X120096388Y-103531632D01*
X120033496Y-103504277D01*
X120009994Y-103483937D01*
X119993196Y-103459092D01*
X119979518Y-103396078D01*
X119985932Y-103357715D01*
X120004797Y-103325736D01*
X120033357Y-103298821D01*
X120071720Y-103274445D01*
X120165997Y-103233412D01*
X120273953Y-103191036D01*
X120381908Y-103137669D01*
X120431714Y-103104199D01*
X120476064Y-103063907D01*
X120513223Y-103016256D01*
X120542986Y-102958517D01*
X120561520Y-102893269D01*
X120568265Y-102810872D01*
X120559576Y-102726110D01*
X120534193Y-102650160D01*
X120492624Y-102582493D01*
X120435764Y-102525108D01*
X120366049Y-102479699D01*
X120279326Y-102444385D01*
X120183735Y-102423178D01*
X120072330Y-102415687D01*
X119961078Y-102424235D01*
X119863381Y-102445607D01*
X119789619Y-102473206D01*
X119746510Y-102498852D01*
X119728070Y-102519734D01*
X119719888Y-102544159D01*
X119715125Y-102579574D01*
X119713049Y-102631964D01*
X119715125Y-102691926D01*
X119721964Y-102728684D01*
X119734909Y-102747002D01*
X119754082Y-102751765D01*
X119792306Y-102736866D01*
X119857152Y-102704870D01*
X119947400Y-102672875D01*
X120000617Y-102661902D01*
X120064148Y-102657976D01*
X120144870Y-102667623D01*
X120200802Y-102695223D01*
X120233653Y-102737355D01*
X120244521Y-102789012D01*
X120237896Y-102828387D01*
X120218632Y-102860087D01*
X120189434Y-102886432D01*
X120150244Y-102910767D01*
X120054012Y-102951800D01*
X119944713Y-102993443D01*
X119835415Y-103046078D01*
X119784262Y-103079627D01*
X119739061Y-103119961D01*
X119701149Y-103167431D01*
X119670795Y-103224497D01*
X119651676Y-103288836D01*
X119644783Y-103368722D01*
G37*
D15*
G36*
X89798114Y-104255608D02*
G01*
X89798114Y-105269154D01*
X89788222Y-105405259D01*
X89774125Y-105447407D01*
X89755982Y-105472303D01*
X89699196Y-105495384D01*
X89607605Y-105498315D01*
X89607605Y-105556934D01*
X90230058Y-105556934D01*
X90230058Y-105498315D01*
X90124911Y-105489522D01*
X90068857Y-105455451D01*
X90044494Y-105385109D01*
X90039365Y-105268422D01*
X90039365Y-104784638D01*
X90043578Y-104596693D01*
X90057500Y-104495210D01*
X90084794Y-104454543D01*
X90131872Y-104446117D01*
X90172722Y-104451246D01*
X90227127Y-104468099D01*
X90252406Y-104410763D01*
X89866624Y-104255608D01*
X89798114Y-104255608D01*
G37*
G36*
X89918831Y-103599083D02*
G01*
X89861699Y-103609738D01*
X89815333Y-103641215D01*
X89784155Y-103687931D01*
X89773568Y-103745629D01*
X89783976Y-103801668D01*
X89815150Y-103849126D01*
X89861614Y-103881309D01*
X89918831Y-103892174D01*
X89975891Y-103881318D01*
X90022329Y-103849126D01*
X90053503Y-103801668D01*
X90063911Y-103745629D01*
X90053365Y-103687916D01*
X90022329Y-103641215D01*
X89975838Y-103609724D01*
X89918831Y-103599083D01*
G37*
%TO.C,J1*%
D16*
X107560000Y-92888272D02*
X107560000Y-98188272D01*
X107560000Y-92888272D02*
X108130000Y-92888272D01*
X107560000Y-98188272D02*
X108130000Y-98188272D01*
X108130000Y-91498272D02*
X108130000Y-92888272D01*
X109750000Y-92888272D02*
X110670000Y-92888272D01*
X109750000Y-98188272D02*
X110670000Y-98188272D01*
X112290000Y-92888272D02*
X113210000Y-92888272D01*
X112290000Y-98188272D02*
X113210000Y-98188272D01*
X114830000Y-92888272D02*
X115750000Y-92888272D01*
X114830000Y-98188272D02*
X115750000Y-98188272D01*
X117370000Y-92888272D02*
X118290000Y-92888272D01*
X117370000Y-98188272D02*
X118290000Y-98188272D01*
X119910000Y-92888272D02*
X120830000Y-92888272D01*
X119910000Y-98188272D02*
X120830000Y-98188272D01*
X122450000Y-92888272D02*
X123370000Y-92888272D01*
X122450000Y-98188272D02*
X123370000Y-98188272D01*
X124990000Y-92888272D02*
X125910000Y-92888272D01*
X124990000Y-98188272D02*
X125910000Y-98188272D01*
X127530000Y-92888272D02*
X128450000Y-92888272D01*
X127530000Y-98188272D02*
X128450000Y-98188272D01*
X130070000Y-92888272D02*
X130990000Y-92888272D01*
X130070000Y-98188272D02*
X130990000Y-98188272D01*
X132610000Y-92888272D02*
X133530000Y-92888272D01*
X132610000Y-98188272D02*
X133530000Y-98188272D01*
X135150000Y-92888272D02*
X136070000Y-92888272D01*
X135150000Y-98188272D02*
X136070000Y-98188272D01*
X137690000Y-92888272D02*
X138610000Y-92888272D01*
X137690000Y-98188272D02*
X138610000Y-98188272D01*
X140230000Y-92888272D02*
X141150000Y-92888272D01*
X140230000Y-98188272D02*
X141150000Y-98188272D01*
X142770000Y-92888272D02*
X143690000Y-92888272D01*
X142770000Y-98188272D02*
X143690000Y-98188272D01*
X145310000Y-92888272D02*
X146230000Y-92888272D01*
X145310000Y-98188272D02*
X146230000Y-98188272D01*
X147850000Y-92888272D02*
X148420000Y-92888272D01*
X147850000Y-98188272D02*
X148420000Y-98188272D01*
X148420000Y-92888272D02*
X148420000Y-98188272D01*
D17*
%TO.C,G\u002A\u002A\u002A*%
G36*
X95276153Y-104493939D02*
G01*
X95276153Y-104948570D01*
X94821523Y-104948570D01*
X94366892Y-104948570D01*
X94366892Y-104493939D01*
X94366892Y-104039309D01*
X94821523Y-104039309D01*
X95276153Y-104039309D01*
X95276153Y-104493939D01*
G37*
G36*
X95579240Y-108737156D02*
G01*
X95579240Y-108888700D01*
X95427697Y-108888700D01*
X95276153Y-108888700D01*
X95276153Y-108737156D01*
X95276153Y-108585613D01*
X95427697Y-108585613D01*
X95579240Y-108585613D01*
X95579240Y-108737156D01*
G37*
G36*
X95882327Y-110252591D02*
G01*
X95882327Y-110404134D01*
X95730783Y-110404134D01*
X95579240Y-110404134D01*
X95579240Y-110252591D01*
X95579240Y-110101047D01*
X95730783Y-110101047D01*
X95882327Y-110101047D01*
X95882327Y-110252591D01*
G37*
G36*
X96185414Y-107221722D02*
G01*
X96185414Y-107373265D01*
X96033870Y-107373265D01*
X95882327Y-107373265D01*
X95882327Y-107221722D01*
X95882327Y-107070178D01*
X96033870Y-107070178D01*
X96185414Y-107070178D01*
X96185414Y-107221722D01*
G37*
G36*
X96488501Y-103584679D02*
G01*
X96488501Y-103736222D01*
X96336957Y-103736222D01*
X96185414Y-103736222D01*
X96185414Y-103584679D01*
X96185414Y-103433135D01*
X96336957Y-103433135D01*
X96488501Y-103433135D01*
X96488501Y-103584679D01*
G37*
G36*
X97397761Y-104493939D02*
G01*
X97397761Y-104645483D01*
X97246218Y-104645483D01*
X97094674Y-104645483D01*
X97094674Y-104493939D01*
X97094674Y-104342396D01*
X97246218Y-104342396D01*
X97397761Y-104342396D01*
X97397761Y-104493939D01*
G37*
G36*
X98003935Y-104190853D02*
G01*
X98003935Y-104342396D01*
X97852392Y-104342396D01*
X97700848Y-104342396D01*
X97700848Y-104190853D01*
X97700848Y-104039309D01*
X97852392Y-104039309D01*
X98003935Y-104039309D01*
X98003935Y-104190853D01*
G37*
G36*
X98003935Y-107524808D02*
G01*
X98003935Y-107676352D01*
X97852392Y-107676352D01*
X97700848Y-107676352D01*
X97700848Y-107524808D01*
X97700848Y-107373265D01*
X97852392Y-107373265D01*
X98003935Y-107373265D01*
X98003935Y-107524808D01*
G37*
G36*
X99216283Y-107827895D02*
G01*
X99216283Y-107979439D01*
X99064739Y-107979439D01*
X98913196Y-107979439D01*
X98913196Y-107827895D01*
X98913196Y-107676352D01*
X99064739Y-107676352D01*
X99216283Y-107676352D01*
X99216283Y-107827895D01*
G37*
G36*
X100125543Y-105403200D02*
G01*
X100125543Y-105554744D01*
X99974000Y-105554744D01*
X99822457Y-105554744D01*
X99822457Y-105403200D01*
X99822457Y-105251657D01*
X99974000Y-105251657D01*
X100125543Y-105251657D01*
X100125543Y-105403200D01*
G37*
G36*
X100428630Y-107524808D02*
G01*
X100428630Y-107676352D01*
X100277087Y-107676352D01*
X100125543Y-107676352D01*
X100125543Y-107524808D01*
X100125543Y-107373265D01*
X100277087Y-107373265D01*
X100428630Y-107373265D01*
X100428630Y-107524808D01*
G37*
G36*
X100731717Y-107221722D02*
G01*
X100731717Y-107373265D01*
X100580174Y-107373265D01*
X100428630Y-107373265D01*
X100428630Y-107221722D01*
X100428630Y-107070178D01*
X100580174Y-107070178D01*
X100731717Y-107070178D01*
X100731717Y-107221722D01*
G37*
G36*
X101944065Y-104493939D02*
G01*
X101944065Y-104948570D01*
X101489435Y-104948570D01*
X101034804Y-104948570D01*
X101034804Y-104493939D01*
X101034804Y-104039309D01*
X101489435Y-104039309D01*
X101944065Y-104039309D01*
X101944065Y-104493939D01*
G37*
G36*
X101944065Y-111161851D02*
G01*
X101944065Y-111616482D01*
X101489435Y-111616482D01*
X101034804Y-111616482D01*
X101034804Y-111161851D01*
X101034804Y-110707221D01*
X101489435Y-110707221D01*
X101944065Y-110707221D01*
X101944065Y-111161851D01*
G37*
G36*
X101640978Y-109494873D02*
G01*
X101640978Y-109797960D01*
X101489435Y-109797960D01*
X101337891Y-109797960D01*
X101337891Y-109494873D01*
X101337891Y-109191786D01*
X101489435Y-109191786D01*
X101640978Y-109191786D01*
X101640978Y-109494873D01*
G37*
G36*
X102247152Y-109646417D02*
G01*
X102247152Y-109797960D01*
X102095608Y-109797960D01*
X101944065Y-109797960D01*
X101944065Y-109646417D01*
X101944065Y-109494873D01*
X102095608Y-109494873D01*
X102247152Y-109494873D01*
X102247152Y-109646417D01*
G37*
G36*
X97094674Y-103584679D02*
G01*
X97094674Y-103736222D01*
X97246218Y-103736222D01*
X97397761Y-103736222D01*
X97397761Y-103887766D01*
X97397761Y-104039309D01*
X97094674Y-104039309D01*
X96791588Y-104039309D01*
X96791588Y-103736222D01*
X96791588Y-103433135D01*
X96943131Y-103433135D01*
X97094674Y-103433135D01*
X97094674Y-103584679D01*
G37*
G36*
X94215349Y-111616482D02*
G01*
X94366892Y-111616482D01*
X94366892Y-111919569D01*
X94366892Y-112222655D01*
X94215349Y-112222655D01*
X94063805Y-112222655D01*
X94063805Y-111919569D01*
X94063805Y-111616482D01*
X94215349Y-111616482D01*
G37*
G36*
X94063805Y-111464938D02*
G01*
X94063805Y-111616482D01*
X93912262Y-111616482D01*
X93760719Y-111616482D01*
X93760719Y-111464938D01*
X93760719Y-111313395D01*
X93912262Y-111313395D01*
X94063805Y-111313395D01*
X94063805Y-111464938D01*
G37*
G36*
X98307022Y-111464938D02*
G01*
X98307022Y-111616482D01*
X98458566Y-111616482D01*
X98610109Y-111616482D01*
X98610109Y-111919569D01*
X98610109Y-112222655D01*
X98458566Y-112222655D01*
X98307022Y-112222655D01*
X98307022Y-112071112D01*
X98307022Y-111919569D01*
X98155479Y-111919569D01*
X98003935Y-111919569D01*
X98003935Y-111616482D01*
X98003935Y-111313395D01*
X98155479Y-111313395D01*
X98307022Y-111313395D01*
X98307022Y-111464938D01*
G37*
G36*
X95882327Y-105554744D02*
G01*
X94821523Y-105554744D01*
X93760719Y-105554744D01*
X93760719Y-104493939D01*
X93760719Y-103736222D01*
X94063805Y-103736222D01*
X94063805Y-104493939D01*
X94063805Y-105251657D01*
X94821523Y-105251657D01*
X95579240Y-105251657D01*
X95579240Y-104493939D01*
X95579240Y-103736222D01*
X94821523Y-103736222D01*
X94063805Y-103736222D01*
X93760719Y-103736222D01*
X93760719Y-103433135D01*
X94821523Y-103433135D01*
X95882327Y-103433135D01*
X95882327Y-104493939D01*
X95882327Y-105554744D01*
G37*
G36*
X102550239Y-105554744D02*
G01*
X101489435Y-105554744D01*
X100428630Y-105554744D01*
X100428630Y-104493939D01*
X100428630Y-103736222D01*
X100731717Y-103736222D01*
X100731717Y-104493939D01*
X100731717Y-105251657D01*
X101489435Y-105251657D01*
X102247152Y-105251657D01*
X102247152Y-104493939D01*
X102247152Y-103736222D01*
X101489435Y-103736222D01*
X100731717Y-103736222D01*
X100428630Y-103736222D01*
X100428630Y-103433135D01*
X101489435Y-103433135D01*
X102550239Y-103433135D01*
X102550239Y-104493939D01*
X102550239Y-105554744D01*
G37*
G36*
X102550239Y-112222655D02*
G01*
X101489435Y-112222655D01*
X100428630Y-112222655D01*
X100428630Y-111161851D01*
X100428630Y-110404134D01*
X100731717Y-110404134D01*
X100731717Y-111161851D01*
X100731717Y-111919569D01*
X101489435Y-111919569D01*
X102247152Y-111919569D01*
X102247152Y-111161851D01*
X102247152Y-110404134D01*
X101489435Y-110404134D01*
X100731717Y-110404134D01*
X100428630Y-110404134D01*
X100428630Y-110101047D01*
X101489435Y-110101047D01*
X102550239Y-110101047D01*
X102550239Y-111161851D01*
X102550239Y-112222655D01*
G37*
G36*
X101640978Y-108434069D02*
G01*
X101640978Y-108585613D01*
X101792521Y-108585613D01*
X101944065Y-108585613D01*
X101944065Y-108434069D01*
X101944065Y-108282526D01*
X102247152Y-108282526D01*
X102550239Y-108282526D01*
X102550239Y-108434069D01*
X102550239Y-108585613D01*
X102398695Y-108585613D01*
X102247152Y-108585613D01*
X102247152Y-108737156D01*
X102247152Y-108888700D01*
X102095608Y-108888700D01*
X101944065Y-108888700D01*
X101944065Y-109040243D01*
X101944065Y-109191786D01*
X101792521Y-109191786D01*
X101640978Y-109191786D01*
X101640978Y-109040243D01*
X101640978Y-108888700D01*
X101489435Y-108888700D01*
X101337891Y-108888700D01*
X101337891Y-108585613D01*
X101337891Y-108282526D01*
X101489435Y-108282526D01*
X101640978Y-108282526D01*
X101640978Y-108434069D01*
G37*
G36*
X102398695Y-108888700D02*
G01*
X102550239Y-108888700D01*
X102550239Y-109040243D01*
X102550239Y-109191786D01*
X102398695Y-109191786D01*
X102247152Y-109191786D01*
X102247152Y-109040243D01*
X102247152Y-108888700D01*
X102398695Y-108888700D01*
G37*
G36*
X101034804Y-106160917D02*
G01*
X101034804Y-106464004D01*
X101337891Y-106464004D01*
X101640978Y-106464004D01*
X101640978Y-106312461D01*
X101640978Y-106160917D01*
X101489435Y-106160917D01*
X101337891Y-106160917D01*
X101337891Y-106009374D01*
X101337891Y-105857831D01*
X101792521Y-105857831D01*
X102247152Y-105857831D01*
X102247152Y-106312461D01*
X102247152Y-106767091D01*
X101944065Y-106767091D01*
X101640978Y-106767091D01*
X101640978Y-106918635D01*
X101640978Y-107070178D01*
X101489435Y-107070178D01*
X101337891Y-107070178D01*
X101337891Y-106918635D01*
X101337891Y-106767091D01*
X101186348Y-106767091D01*
X101034804Y-106767091D01*
X101034804Y-106615548D01*
X101034804Y-106464004D01*
X100883261Y-106464004D01*
X100731717Y-106464004D01*
X100731717Y-106312461D01*
X100731717Y-106160917D01*
X100580174Y-106160917D01*
X100428630Y-106160917D01*
X100428630Y-106009374D01*
X100428630Y-105857831D01*
X100731717Y-105857831D01*
X101034804Y-105857831D01*
X101034804Y-106160917D01*
G37*
G36*
X102398695Y-106767091D02*
G01*
X102550239Y-106767091D01*
X102550239Y-106918635D01*
X102550239Y-107070178D01*
X102398695Y-107070178D01*
X102247152Y-107070178D01*
X102247152Y-106918635D01*
X102247152Y-106767091D01*
X102398695Y-106767091D01*
G37*
G36*
X97397761Y-108585613D02*
G01*
X97246218Y-108585613D01*
X97094674Y-108585613D01*
X97094674Y-108737156D01*
X97094674Y-108888700D01*
X96640044Y-108888700D01*
X96185414Y-108888700D01*
X96185414Y-108737156D01*
X96185414Y-108585613D01*
X96033870Y-108585613D01*
X95882327Y-108585613D01*
X95882327Y-108282526D01*
X96488501Y-108282526D01*
X96488501Y-108434069D01*
X96488501Y-108585613D01*
X96640044Y-108585613D01*
X96791588Y-108585613D01*
X96791588Y-108434069D01*
X96791588Y-108282526D01*
X96640044Y-108282526D01*
X96488501Y-108282526D01*
X95882327Y-108282526D01*
X95882327Y-107979439D01*
X96033870Y-107979439D01*
X96185414Y-107979439D01*
X96185414Y-107827895D01*
X96185414Y-107676352D01*
X96336957Y-107676352D01*
X96488501Y-107676352D01*
X96488501Y-107221722D01*
X96488501Y-106767091D01*
X96640044Y-106767091D01*
X96791588Y-106767091D01*
X96791588Y-107070178D01*
X96791588Y-107373265D01*
X96943131Y-107373265D01*
X97094674Y-107373265D01*
X97094674Y-107221722D01*
X97094674Y-107070178D01*
X97246218Y-107070178D01*
X97397761Y-107070178D01*
X97397761Y-107221722D01*
X97397761Y-107373265D01*
X97246218Y-107373265D01*
X97094674Y-107373265D01*
X97094674Y-107676352D01*
X97094674Y-107979439D01*
X96943131Y-107979439D01*
X96791588Y-107979439D01*
X96791588Y-108130982D01*
X96791588Y-108282526D01*
X97094674Y-108282526D01*
X97397761Y-108282526D01*
X97397761Y-107979439D01*
X97397761Y-107676352D01*
X97549305Y-107676352D01*
X97700848Y-107676352D01*
X97700848Y-107979439D01*
X97700848Y-108282526D01*
X97852392Y-108282526D01*
X98003935Y-108282526D01*
X98003935Y-108130982D01*
X98003935Y-107979439D01*
X98155479Y-107979439D01*
X98307022Y-107979439D01*
X98307022Y-108130982D01*
X98307022Y-108282526D01*
X98155479Y-108282526D01*
X98003935Y-108282526D01*
X98003935Y-108434069D01*
X98003935Y-108585613D01*
X97852392Y-108585613D01*
X97700848Y-108585613D01*
X97700848Y-108434069D01*
X97700848Y-108282526D01*
X97549305Y-108282526D01*
X97397761Y-108282526D01*
X97397761Y-108434069D01*
X97397761Y-108585613D01*
G37*
G36*
X97094674Y-110101047D02*
G01*
X96943131Y-110101047D01*
X96791588Y-110101047D01*
X96791588Y-110252591D01*
X96791588Y-110404134D01*
X96640044Y-110404134D01*
X96488501Y-110404134D01*
X96488501Y-110707221D01*
X96488501Y-111010308D01*
X96640044Y-111010308D01*
X96791588Y-111010308D01*
X96791588Y-110707221D01*
X96791588Y-110404134D01*
X96943131Y-110404134D01*
X97094674Y-110404134D01*
X97094674Y-110555677D01*
X97094674Y-110707221D01*
X97246218Y-110707221D01*
X97397761Y-110707221D01*
X97397761Y-111161851D01*
X97397761Y-111313395D01*
X97397761Y-111616482D01*
X97246218Y-111616482D01*
X97094674Y-111616482D01*
X97094674Y-111768025D01*
X97094674Y-111919569D01*
X96943131Y-111919569D01*
X96791588Y-111919569D01*
X96791588Y-112071112D01*
X96791588Y-112222655D01*
X96033870Y-112222655D01*
X95276153Y-112222655D01*
X95276153Y-112071112D01*
X95276153Y-111919569D01*
X95124610Y-111919569D01*
X94973066Y-111919569D01*
X94973066Y-112071112D01*
X94973066Y-112222655D01*
X94821523Y-112222655D01*
X94669979Y-112222655D01*
X94669979Y-111919569D01*
X94669979Y-111616482D01*
X94973066Y-111616482D01*
X95276153Y-111616482D01*
X95276153Y-111768025D01*
X95276153Y-111919569D01*
X95427697Y-111919569D01*
X95579240Y-111919569D01*
X95579240Y-111768025D01*
X95579240Y-111616482D01*
X95730783Y-111616482D01*
X95882327Y-111616482D01*
X95882327Y-111768025D01*
X95882327Y-111919569D01*
X96033870Y-111919569D01*
X96185414Y-111919569D01*
X96185414Y-111616482D01*
X96185414Y-111313395D01*
X96336957Y-111313395D01*
X96488501Y-111313395D01*
X96488501Y-111464938D01*
X96488501Y-111616482D01*
X96791588Y-111616482D01*
X97094674Y-111616482D01*
X97094674Y-111464938D01*
X97094674Y-111313395D01*
X96791588Y-111313395D01*
X96488501Y-111313395D01*
X96488501Y-111161851D01*
X96488501Y-111010308D01*
X95882327Y-111010308D01*
X95276153Y-111010308D01*
X95276153Y-111161851D01*
X95276153Y-111313395D01*
X95124610Y-111313395D01*
X94973066Y-111313395D01*
X94973066Y-111161851D01*
X94973066Y-111010308D01*
X94821523Y-111010308D01*
X94669979Y-111010308D01*
X94669979Y-111161851D01*
X94669979Y-111313395D01*
X94366892Y-111313395D01*
X94063805Y-111313395D01*
X94063805Y-110707221D01*
X94063805Y-110101047D01*
X93912262Y-110101047D01*
X93760719Y-110101047D01*
X93760719Y-109949504D01*
X93760719Y-109797960D01*
X93912262Y-109797960D01*
X94063805Y-109797960D01*
X94063805Y-109646417D01*
X94063805Y-109494873D01*
X94366892Y-109494873D01*
X94366892Y-109797960D01*
X94366892Y-110101047D01*
X94518436Y-110101047D01*
X94669979Y-110101047D01*
X94669979Y-110252591D01*
X94669979Y-110404134D01*
X94518436Y-110404134D01*
X94366892Y-110404134D01*
X94366892Y-110555677D01*
X94366892Y-110707221D01*
X94669979Y-110707221D01*
X94973066Y-110707221D01*
X94973066Y-110404134D01*
X94973066Y-110252591D01*
X95276153Y-110252591D01*
X95276153Y-110707221D01*
X95730783Y-110707221D01*
X96185414Y-110707221D01*
X96185414Y-110252591D01*
X96185414Y-109797960D01*
X96488501Y-109797960D01*
X96488501Y-109949504D01*
X96488501Y-110101047D01*
X96640044Y-110101047D01*
X96791588Y-110101047D01*
X96791588Y-109949504D01*
X96791588Y-109797960D01*
X96640044Y-109797960D01*
X96488501Y-109797960D01*
X96185414Y-109797960D01*
X95730783Y-109797960D01*
X95276153Y-109797960D01*
X95276153Y-110101047D01*
X95276153Y-110252591D01*
X94973066Y-110252591D01*
X94973066Y-110101047D01*
X94821523Y-110101047D01*
X94669979Y-110101047D01*
X94669979Y-109797960D01*
X94669979Y-109494873D01*
X94518436Y-109494873D01*
X94366892Y-109494873D01*
X94063805Y-109494873D01*
X93912262Y-109494873D01*
X93760719Y-109494873D01*
X93760719Y-109343330D01*
X93760719Y-109191786D01*
X94063805Y-109191786D01*
X94366892Y-109191786D01*
X94366892Y-108888700D01*
X94366892Y-108585613D01*
X94518436Y-108585613D01*
X94669979Y-108585613D01*
X94669979Y-108737156D01*
X94669979Y-108888700D01*
X94821523Y-108888700D01*
X94973066Y-108888700D01*
X94973066Y-109191786D01*
X94973066Y-109494873D01*
X95124610Y-109494873D01*
X95276153Y-109494873D01*
X95276153Y-109343330D01*
X95276153Y-109191786D01*
X95427697Y-109191786D01*
X95579240Y-109191786D01*
X95579240Y-109040243D01*
X95579240Y-108888700D01*
X95730783Y-108888700D01*
X95882327Y-108888700D01*
X95882327Y-109040243D01*
X95882327Y-109191786D01*
X96943131Y-109191786D01*
X98003935Y-109191786D01*
X98003935Y-109040243D01*
X98003935Y-108888700D01*
X98155479Y-108888700D01*
X98307022Y-108888700D01*
X98307022Y-109191786D01*
X98307022Y-109494873D01*
X98155479Y-109494873D01*
X98003935Y-109494873D01*
X98003935Y-109646417D01*
X98003935Y-109797960D01*
X98155479Y-109797960D01*
X98307022Y-109797960D01*
X98307022Y-109646417D01*
X98307022Y-109494873D01*
X98458566Y-109494873D01*
X98610109Y-109494873D01*
X98610109Y-109646417D01*
X98610109Y-109797960D01*
X98913196Y-109797960D01*
X99216283Y-109797960D01*
X99216283Y-109646417D01*
X99216283Y-109494873D01*
X99064739Y-109494873D01*
X98913196Y-109494873D01*
X98913196Y-109343330D01*
X98913196Y-109191786D01*
X98761652Y-109191786D01*
X98610109Y-109191786D01*
X98610109Y-109040243D01*
X98610109Y-108888700D01*
X98458566Y-108888700D01*
X98307022Y-108888700D01*
X98307022Y-108737156D01*
X98307022Y-108585613D01*
X98610109Y-108585613D01*
X98913196Y-108585613D01*
X98913196Y-108434069D01*
X98913196Y-108282526D01*
X99064739Y-108282526D01*
X99216283Y-108282526D01*
X99216283Y-108130982D01*
X99216283Y-107979439D01*
X99367826Y-107979439D01*
X99519370Y-107979439D01*
X99519370Y-108130982D01*
X99519370Y-108282526D01*
X99670913Y-108282526D01*
X99822457Y-108282526D01*
X99822457Y-108737156D01*
X99822457Y-109191786D01*
X99670913Y-109191786D01*
X99519370Y-109191786D01*
X99519370Y-108888700D01*
X99519370Y-108585613D01*
X99367826Y-108585613D01*
X99216283Y-108585613D01*
X99216283Y-108888700D01*
X99216283Y-109191786D01*
X99367826Y-109191786D01*
X99519370Y-109191786D01*
X99519370Y-109494873D01*
X99519370Y-109797960D01*
X99670913Y-109797960D01*
X99822457Y-109797960D01*
X99822457Y-109646417D01*
X99822457Y-109494873D01*
X99974000Y-109494873D01*
X100125543Y-109494873D01*
X100125543Y-109343330D01*
X100125543Y-109191786D01*
X100277087Y-109191786D01*
X100428630Y-109191786D01*
X100428630Y-109343330D01*
X100428630Y-109494873D01*
X100580174Y-109494873D01*
X100731717Y-109494873D01*
X100731717Y-109343330D01*
X100731717Y-109191786D01*
X100580174Y-109191786D01*
X100428630Y-109191786D01*
X100428630Y-109040243D01*
X100428630Y-108888700D01*
X100580174Y-108888700D01*
X100731717Y-108888700D01*
X100731717Y-108737156D01*
X100731717Y-108585613D01*
X100580174Y-108585613D01*
X100428630Y-108585613D01*
X100428630Y-108434069D01*
X100428630Y-108282526D01*
X100580174Y-108282526D01*
X100731717Y-108282526D01*
X100731717Y-108130982D01*
X100731717Y-107979439D01*
X100580174Y-107979439D01*
X100428630Y-107979439D01*
X100428630Y-107827895D01*
X100428630Y-107676352D01*
X100580174Y-107676352D01*
X100731717Y-107676352D01*
X100731717Y-107524808D01*
X100731717Y-107373265D01*
X100883261Y-107373265D01*
X101034804Y-107373265D01*
X101034804Y-107221722D01*
X101034804Y-107070178D01*
X101186348Y-107070178D01*
X101337891Y-107070178D01*
X101337891Y-107373265D01*
X101337891Y-107676352D01*
X101640978Y-107676352D01*
X101944065Y-107676352D01*
X101944065Y-107373265D01*
X101944065Y-107070178D01*
X102095608Y-107070178D01*
X102247152Y-107070178D01*
X102247152Y-107221722D01*
X102247152Y-107373265D01*
X102398695Y-107373265D01*
X102550239Y-107373265D01*
X102550239Y-107676352D01*
X102550239Y-107979439D01*
X102398695Y-107979439D01*
X102247152Y-107979439D01*
X102247152Y-107827895D01*
X102247152Y-107676352D01*
X102095608Y-107676352D01*
X101944065Y-107676352D01*
X101944065Y-107827895D01*
X101944065Y-107979439D01*
X101640978Y-107979439D01*
X101337891Y-107979439D01*
X101337891Y-107827895D01*
X101337891Y-107676352D01*
X101186348Y-107676352D01*
X101034804Y-107676352D01*
X101034804Y-108585613D01*
X101034804Y-109494873D01*
X100883261Y-109494873D01*
X100731717Y-109494873D01*
X100731717Y-109646417D01*
X100731717Y-109797960D01*
X100428630Y-109797960D01*
X100125543Y-109797960D01*
X100125543Y-109949504D01*
X100125543Y-110101047D01*
X99670913Y-110101047D01*
X99216283Y-110101047D01*
X99216283Y-110252591D01*
X99216283Y-110404134D01*
X99670913Y-110404134D01*
X100125543Y-110404134D01*
X100125543Y-110555677D01*
X100125543Y-110707221D01*
X99974000Y-110707221D01*
X99822457Y-110707221D01*
X99822457Y-110858764D01*
X99822457Y-111010308D01*
X99974000Y-111010308D01*
X100125543Y-111010308D01*
X100125543Y-111464938D01*
X100125543Y-111919569D01*
X99974000Y-111919569D01*
X99822457Y-111919569D01*
X99822457Y-112071112D01*
X99822457Y-112222655D01*
X99670913Y-112222655D01*
X99519370Y-112222655D01*
X99519370Y-112071112D01*
X99519370Y-111919569D01*
X99367826Y-111919569D01*
X99216283Y-111919569D01*
X99216283Y-111313395D01*
X99216283Y-110707221D01*
X98913196Y-110707221D01*
X98610109Y-110707221D01*
X98610109Y-110858764D01*
X98610109Y-111010308D01*
X98761652Y-111010308D01*
X98913196Y-111010308D01*
X98913196Y-111161851D01*
X98913196Y-111313395D01*
X98610109Y-111313395D01*
X98307022Y-111313395D01*
X98307022Y-111161851D01*
X98307022Y-111010308D01*
X98155479Y-111010308D01*
X98003935Y-111010308D01*
X98003935Y-110858764D01*
X98003935Y-110707221D01*
X97852392Y-110707221D01*
X97700848Y-110707221D01*
X97700848Y-110555677D01*
X97700848Y-110404134D01*
X97852392Y-110404134D01*
X98003935Y-110404134D01*
X98003935Y-110101047D01*
X98003935Y-109797960D01*
X97852392Y-109797960D01*
X97700848Y-109797960D01*
X97700848Y-109949504D01*
X97700848Y-110101047D01*
X97549305Y-110101047D01*
X97397761Y-110101047D01*
X97397761Y-109949504D01*
X97397761Y-109797960D01*
X97246218Y-109797960D01*
X97094674Y-109797960D01*
X97094674Y-109949504D01*
X97094674Y-110101047D01*
G37*
G36*
X95427697Y-111313395D02*
G01*
X95579240Y-111313395D01*
X95579240Y-111464938D01*
X95579240Y-111616482D01*
X95427697Y-111616482D01*
X95276153Y-111616482D01*
X95276153Y-111464938D01*
X95276153Y-111313395D01*
X95427697Y-111313395D01*
G37*
G36*
X99519370Y-106464004D02*
G01*
X99367826Y-106464004D01*
X99216283Y-106464004D01*
X99216283Y-106615548D01*
X99216283Y-106767091D01*
X99367826Y-106767091D01*
X99519370Y-106767091D01*
X99519370Y-106918635D01*
X99519370Y-107070178D01*
X99670913Y-107070178D01*
X99822457Y-107070178D01*
X99822457Y-106767091D01*
X99822457Y-106464004D01*
X100277087Y-106464004D01*
X100731717Y-106464004D01*
X100731717Y-106615548D01*
X100731717Y-106767091D01*
X100428630Y-106767091D01*
X100125543Y-106767091D01*
X100125543Y-107070178D01*
X100125543Y-107373265D01*
X99974000Y-107373265D01*
X99822457Y-107373265D01*
X99822457Y-107676352D01*
X99822457Y-107979439D01*
X99670913Y-107979439D01*
X99519370Y-107979439D01*
X99519370Y-107524808D01*
X99519370Y-107070178D01*
X99216283Y-107070178D01*
X98913196Y-107070178D01*
X98913196Y-107373265D01*
X98913196Y-107676352D01*
X98610109Y-107676352D01*
X98307022Y-107676352D01*
X98307022Y-107373265D01*
X98307022Y-107070178D01*
X97852392Y-107070178D01*
X97397761Y-107070178D01*
X97397761Y-106918635D01*
X98610109Y-106918635D01*
X98610109Y-107070178D01*
X98761652Y-107070178D01*
X98913196Y-107070178D01*
X98913196Y-106918635D01*
X98913196Y-106767091D01*
X98761652Y-106767091D01*
X98610109Y-106767091D01*
X98610109Y-106918635D01*
X97397761Y-106918635D01*
X97397761Y-106767091D01*
X97246218Y-106767091D01*
X97094674Y-106767091D01*
X97094674Y-106615548D01*
X98307022Y-106615548D01*
X98307022Y-106767091D01*
X98458566Y-106767091D01*
X98610109Y-106767091D01*
X98610109Y-106615548D01*
X98610109Y-106464004D01*
X98458566Y-106464004D01*
X98307022Y-106464004D01*
X98307022Y-106615548D01*
X97094674Y-106615548D01*
X97094674Y-106464004D01*
X96791588Y-106464004D01*
X96488501Y-106464004D01*
X96488501Y-106615548D01*
X96488501Y-106767091D01*
X96336957Y-106767091D01*
X96185414Y-106767091D01*
X96185414Y-106615548D01*
X96185414Y-106464004D01*
X96033870Y-106464004D01*
X95882327Y-106464004D01*
X95882327Y-106615548D01*
X95882327Y-106767091D01*
X95730783Y-106767091D01*
X95579240Y-106767091D01*
X95579240Y-107070178D01*
X95579240Y-107373265D01*
X95730783Y-107373265D01*
X95882327Y-107373265D01*
X95882327Y-107524808D01*
X95882327Y-107676352D01*
X95730783Y-107676352D01*
X95579240Y-107676352D01*
X95579240Y-107827895D01*
X95579240Y-107979439D01*
X95427697Y-107979439D01*
X95276153Y-107979439D01*
X95276153Y-108282526D01*
X95276153Y-108585613D01*
X94973066Y-108585613D01*
X94669979Y-108585613D01*
X94669979Y-108130982D01*
X94669979Y-107676352D01*
X94518436Y-107676352D01*
X94366892Y-107676352D01*
X94366892Y-107827895D01*
X94366892Y-107979439D01*
X94215349Y-107979439D01*
X94063805Y-107979439D01*
X94063805Y-108130982D01*
X94063805Y-108282526D01*
X94215349Y-108282526D01*
X94366892Y-108282526D01*
X94366892Y-108434069D01*
X94366892Y-108585613D01*
X94063805Y-108585613D01*
X93760719Y-108585613D01*
X93760719Y-107676352D01*
X93760719Y-107524808D01*
X94063805Y-107524808D01*
X94063805Y-107676352D01*
X94215349Y-107676352D01*
X94366892Y-107676352D01*
X94366892Y-107524808D01*
X94366892Y-107373265D01*
X94215349Y-107373265D01*
X94063805Y-107373265D01*
X94063805Y-107524808D01*
X93760719Y-107524808D01*
X93760719Y-106767091D01*
X93912262Y-106767091D01*
X94063805Y-106767091D01*
X94063805Y-106918635D01*
X94063805Y-107070178D01*
X94366892Y-107070178D01*
X94669979Y-107070178D01*
X94669979Y-107221722D01*
X94669979Y-107373265D01*
X94821523Y-107373265D01*
X94973066Y-107373265D01*
X94973066Y-107524808D01*
X94973066Y-107676352D01*
X95124610Y-107676352D01*
X95276153Y-107676352D01*
X95276153Y-107070178D01*
X95276153Y-106464004D01*
X95124610Y-106464004D01*
X94973066Y-106464004D01*
X94973066Y-106767091D01*
X94973066Y-107070178D01*
X94821523Y-107070178D01*
X94669979Y-107070178D01*
X94669979Y-106918635D01*
X94669979Y-106767091D01*
X94366892Y-106767091D01*
X94063805Y-106767091D01*
X94063805Y-106615548D01*
X94063805Y-106464004D01*
X93912262Y-106464004D01*
X93760719Y-106464004D01*
X93760719Y-106312461D01*
X93760719Y-106160917D01*
X93912262Y-106160917D01*
X94063805Y-106160917D01*
X94063805Y-106312461D01*
X94063805Y-106464004D01*
X94215349Y-106464004D01*
X94366892Y-106464004D01*
X94366892Y-106312461D01*
X94366892Y-106160917D01*
X94215349Y-106160917D01*
X94063805Y-106160917D01*
X94063805Y-106009374D01*
X94063805Y-105857831D01*
X94366892Y-105857831D01*
X94669979Y-105857831D01*
X94669979Y-106009374D01*
X94669979Y-106160917D01*
X95427697Y-106160917D01*
X96185414Y-106160917D01*
X96185414Y-106312461D01*
X96185414Y-106464004D01*
X96336957Y-106464004D01*
X96488501Y-106464004D01*
X96488501Y-106312461D01*
X96488501Y-106160917D01*
X96640044Y-106160917D01*
X96791588Y-106160917D01*
X96791588Y-105706287D01*
X96791588Y-105251657D01*
X96640044Y-105251657D01*
X96488501Y-105251657D01*
X96488501Y-105554744D01*
X96488501Y-105857831D01*
X96336957Y-105857831D01*
X96185414Y-105857831D01*
X96185414Y-105403200D01*
X96185414Y-104948570D01*
X96336957Y-104948570D01*
X96488501Y-104948570D01*
X96488501Y-104797026D01*
X96488501Y-104645483D01*
X96336957Y-104645483D01*
X96185414Y-104645483D01*
X96185414Y-104342396D01*
X96185414Y-104039309D01*
X96336957Y-104039309D01*
X96488501Y-104039309D01*
X96488501Y-104190853D01*
X96488501Y-104342396D01*
X96640044Y-104342396D01*
X96791588Y-104342396D01*
X96791588Y-104645483D01*
X96791588Y-104948570D01*
X96943131Y-104948570D01*
X97094674Y-104948570D01*
X97094674Y-105251657D01*
X97094674Y-105554744D01*
X97246218Y-105554744D01*
X97397761Y-105554744D01*
X97397761Y-105251657D01*
X97397761Y-104948570D01*
X97700848Y-104948570D01*
X98003935Y-104948570D01*
X98003935Y-104797026D01*
X98003935Y-104645483D01*
X98155479Y-104645483D01*
X98307022Y-104645483D01*
X98307022Y-104797026D01*
X98307022Y-104948570D01*
X98458566Y-104948570D01*
X98610109Y-104948570D01*
X98610109Y-104797026D01*
X98610109Y-104645483D01*
X98458566Y-104645483D01*
X98307022Y-104645483D01*
X98307022Y-104190853D01*
X98307022Y-103736222D01*
X98003935Y-103736222D01*
X97700848Y-103736222D01*
X97700848Y-103584679D01*
X97700848Y-103433135D01*
X98003935Y-103433135D01*
X98307022Y-103433135D01*
X98307022Y-103584679D01*
X98307022Y-103736222D01*
X98458566Y-103736222D01*
X98610109Y-103736222D01*
X98610109Y-103584679D01*
X98610109Y-103433135D01*
X98761652Y-103433135D01*
X98913196Y-103433135D01*
X98913196Y-103584679D01*
X98913196Y-103736222D01*
X98761652Y-103736222D01*
X98610109Y-103736222D01*
X98610109Y-104190853D01*
X98610109Y-104645483D01*
X98913196Y-104645483D01*
X99216283Y-104645483D01*
X99216283Y-104493939D01*
X99216283Y-104342396D01*
X99064739Y-104342396D01*
X98913196Y-104342396D01*
X98913196Y-104039309D01*
X98913196Y-103736222D01*
X99216283Y-103736222D01*
X99519370Y-103736222D01*
X99519370Y-103887766D01*
X99519370Y-104039309D01*
X99670913Y-104039309D01*
X99822457Y-104039309D01*
X99822457Y-103887766D01*
X99822457Y-103736222D01*
X99974000Y-103736222D01*
X100125543Y-103736222D01*
X100125543Y-104039309D01*
X100125543Y-104342396D01*
X99974000Y-104342396D01*
X99822457Y-104342396D01*
X99822457Y-104493939D01*
X99822457Y-104645483D01*
X99670913Y-104645483D01*
X99519370Y-104645483D01*
X99519370Y-104797026D01*
X99519370Y-104948570D01*
X99064739Y-104948570D01*
X98610109Y-104948570D01*
X98610109Y-105100113D01*
X98610109Y-105251657D01*
X98458566Y-105251657D01*
X98307022Y-105251657D01*
X98307022Y-105403200D01*
X98307022Y-105554744D01*
X98155479Y-105554744D01*
X98003935Y-105554744D01*
X98003935Y-105403200D01*
X98003935Y-105251657D01*
X97852392Y-105251657D01*
X97700848Y-105251657D01*
X97700848Y-105554744D01*
X97700848Y-105857831D01*
X97397761Y-105857831D01*
X97094674Y-105857831D01*
X97094674Y-106009374D01*
X97094674Y-106160917D01*
X97246218Y-106160917D01*
X97397761Y-106160917D01*
X97397761Y-106312461D01*
X97397761Y-106464004D01*
X97549305Y-106464004D01*
X97700848Y-106464004D01*
X97700848Y-106312461D01*
X98003935Y-106312461D01*
X98003935Y-106464004D01*
X98155479Y-106464004D01*
X98307022Y-106464004D01*
X98307022Y-106312461D01*
X98307022Y-106160917D01*
X98155479Y-106160917D01*
X98003935Y-106160917D01*
X98003935Y-106312461D01*
X97700848Y-106312461D01*
X97700848Y-106160917D01*
X97700848Y-105857831D01*
X98003935Y-105857831D01*
X98307022Y-105857831D01*
X98307022Y-106009374D01*
X98307022Y-106160917D01*
X98458566Y-106160917D01*
X98610109Y-106160917D01*
X98913196Y-106160917D01*
X98913196Y-106312461D01*
X98913196Y-106464004D01*
X99064739Y-106464004D01*
X99216283Y-106464004D01*
X99216283Y-106312461D01*
X99216283Y-106160917D01*
X99064739Y-106160917D01*
X98913196Y-106160917D01*
X98610109Y-106160917D01*
X98610109Y-106009374D01*
X98610109Y-105857831D01*
X98761652Y-105857831D01*
X98913196Y-105857831D01*
X98913196Y-105706287D01*
X98913196Y-105554744D01*
X99064739Y-105554744D01*
X99216283Y-105554744D01*
X99216283Y-105403200D01*
X99216283Y-105251657D01*
X99367826Y-105251657D01*
X99519370Y-105251657D01*
X99519370Y-105403200D01*
X99519370Y-105554744D01*
X99367826Y-105554744D01*
X99216283Y-105554744D01*
X99216283Y-105857831D01*
X99216283Y-106160917D01*
X99367826Y-106160917D01*
X99519370Y-106160917D01*
X99519370Y-106009374D01*
X99519370Y-105857831D01*
X99670913Y-105857831D01*
X99822457Y-105857831D01*
X99822457Y-106009374D01*
X99822457Y-106160917D01*
X99670913Y-106160917D01*
X99519370Y-106160917D01*
X99519370Y-106312461D01*
X99519370Y-106464004D01*
G37*
G36*
X98761652Y-105251657D02*
G01*
X98913196Y-105251657D01*
X98913196Y-105403200D01*
X98913196Y-105554744D01*
X98761652Y-105554744D01*
X98610109Y-105554744D01*
X98610109Y-105403200D01*
X98610109Y-105251657D01*
X98761652Y-105251657D01*
G37*
%TD*%
%LPC*%
D18*
%TO.C,H3*%
X82000000Y-134000000D03*
%TD*%
%TO.C,H2*%
X174000000Y-134000000D03*
%TD*%
D19*
%TO.C,H1*%
X82000000Y-92000000D03*
%TD*%
D20*
%TO.C,J6*%
X131750000Y-135300000D03*
D21*
X134250000Y-135300000D03*
%TD*%
D22*
%TO.C,J5*%
X117250000Y-133456505D03*
X103750000Y-133456505D03*
D23*
X106900000Y-127456505D03*
D24*
X114100000Y-127456505D03*
%TD*%
D22*
%TO.C,J4*%
X100700000Y-132456505D03*
X87200000Y-132456505D03*
D23*
X97550000Y-126456505D03*
D24*
X90350000Y-126456505D03*
%TD*%
D25*
%TO.C,J3*%
X175895000Y-108220000D03*
D26*
X175895000Y-105680000D03*
X175895000Y-103140000D03*
X175895000Y-100600000D03*
%TD*%
D27*
%TO.C,H6*%
X153000000Y-94000000D03*
%TD*%
%TO.C,H5*%
X103000000Y-94000000D03*
%TD*%
%TO.C,H4*%
X174000000Y-92000000D03*
%TD*%
D25*
%TO.C,J7*%
X122880000Y-115712500D03*
D26*
X120340000Y-115966500D03*
X117800000Y-115712500D03*
%TD*%
D28*
%TO.C,J1*%
X108940000Y-93013272D03*
X108940000Y-98063272D03*
X111480000Y-93013272D03*
X111480000Y-98063272D03*
X114020000Y-93013272D03*
X114020000Y-98063272D03*
X116560000Y-93013272D03*
X116560000Y-98063272D03*
X119100000Y-93013272D03*
X119100000Y-98063272D03*
X121640000Y-93013272D03*
X121640000Y-98063272D03*
X124180000Y-93013272D03*
X124180000Y-98063272D03*
X126720000Y-93013272D03*
X126720000Y-98063272D03*
X129260000Y-93013272D03*
X129260000Y-98063272D03*
X131800000Y-93013272D03*
X131800000Y-98063272D03*
X134340000Y-93013272D03*
X134340000Y-98063272D03*
X136880000Y-93013272D03*
X136880000Y-98063272D03*
X139420000Y-93013272D03*
X139420000Y-98063272D03*
X141960000Y-93013272D03*
X141960000Y-98063272D03*
X144500000Y-93013272D03*
X144500000Y-98063272D03*
X147040000Y-93013272D03*
X147040000Y-98063272D03*
%TD*%
%LPD*%
M02*
