M48
; DRILL file KiCad 10.0.1 date 2026-08-08T13:45:05
; FORMAT={-:-/ absolute / inch / decimal}
; #@! TF.CreationDate,2026-08-08T13:45:05+02:00
; #@! TF.GenerationSoftware,Kicad,Pcbnew,10.0.1
; #@! TF.FileFunction,Plated,1,2,PTH
FMAT,2
INCH
; #@! TA.AperFunction,Plated,PTH,ViaDrill
T1C0.0118
; #@! TA.AperFunction,Plated,PTH,ComponentDrill
T2C0.0118
; #@! TA.AperFunction,Plated,PTH,ViaDrill
T3C0.0197
; #@! TA.AperFunction,Plated,PTH,ComponentDrill
T4C0.0236
; #@! TA.AperFunction,Plated,PTH,ComponentDrill
T5C0.0394
; #@! TA.AperFunction,Plated,PTH,ComponentDrill
T6C0.1063
%
G90
G05
T1
X3.378Y-4.4882
X3.5039Y-4.0827
X3.5276Y-4.2913
X3.6339Y-4.4409
X3.7087Y-4.1693
X3.7087Y-4.6641
X3.7872Y-4.3546
X3.8228Y-4.1614
X3.8583Y-4.6654
X3.8661Y-4.1457
X3.8701Y-4.0906
X3.8701Y-4.4606
X3.9002Y-3.9821
X3.9055Y-4.3583
X3.9764Y-4.3898
X4.0394Y-4.1614
X4.063Y-4.6142
X4.0669Y-4.4685
X4.1437Y-4.4134
X4.2028Y-4.437
X4.2038Y-3.972
X4.2087Y-4.0709
X4.2244Y-4.1929
X4.2323Y-4.3386
X4.2835Y-4.3386
X4.3268Y-4.0079
X4.3307Y-4.4134
X4.3346Y-3.6201
X4.3346Y-3.6811
X4.3346Y-3.7087
X4.3406Y-3.8583
X4.374Y-4.2067
X4.3819Y-4.1693
X4.3976Y-4.4154
X4.4094Y-4.3307
X4.4213Y-4.0315
X4.4252Y-4.3957
X4.439Y-3.6181
X4.439Y-3.6811
X4.439Y-3.7126
X4.439Y-3.8583
X4.4843Y-4.4567
X4.5276Y-4.1063
X4.5315Y-3.9685
X4.5374Y-3.8583
X4.5374Y-4.2106
X4.5394Y-4.6417
X4.5472Y-4.0827
X4.5472Y-4.2913
X4.5512Y-3.6811
X4.5512Y-3.7087
X4.5531Y-3.6122
X4.626Y-4.189
X4.6358Y-3.8583
X4.6654Y-4.2638
X4.6693Y-4.063
X4.7047Y-4.3622
X4.7055Y-4.1107
X4.7283Y-4.3031
X4.7343Y-3.8583
X4.7382Y-3.6181
X4.7382Y-3.7087
X4.7402Y-3.6772
X4.752Y-3.9685
X4.7559Y-4.2717
X4.7638Y-4.0827
X4.7717Y-4.1458
X4.7717Y-4.4882
X4.7756Y-5.2953
X4.7874Y-4.2992
X4.7992Y-4.8898
X4.8071Y-4.1501
X4.8071Y-4.3189
X4.8346Y-4.0433
X4.8386Y-3.6201
X4.8386Y-3.6772
X4.8386Y-3.7087
X4.8425Y-4.1102
X4.845Y-3.8608
X4.8543Y-4.3858
X4.8827Y-4.3457
X4.9094Y-4.0669
X4.9173Y-4.252
X4.9213Y-4.1811
X4.9296Y-4.6405
X4.937Y-4.3858
X4.9409Y-3.622
X4.9409Y-3.6772
X4.9409Y-3.7087
X4.9409Y-4.4331
X4.9409Y-4.5039
X4.9434Y-3.8608
X4.9449Y-4.1969
X4.9646Y-4.2323
X4.9843Y-4.9094
X5.0197Y-4.1772
X5.1181Y-4.4488
X5.1181Y-4.4882
X5.1181Y-4.5276
X5.1181Y-4.5669
X5.1181Y-4.6457
X5.1181Y-4.685
X5.1181Y-4.7244
X5.1181Y-4.7638
X5.1181Y-4.8425
X5.1181Y-4.8819
X5.12Y-4.6074
X5.12Y-4.8042
X5.1299Y-3.8622
X5.1339Y-3.9685
X5.1339Y-4.1535
X5.1378Y-3.6201
X5.1378Y-3.689
X5.1378Y-3.7126
X5.1575Y-4.4488
X5.1575Y-4.4882
X5.1575Y-4.5276
X5.1575Y-4.5669
X5.1575Y-4.6457
X5.1575Y-4.685
X5.1575Y-4.7244
X5.1575Y-4.7638
X5.1575Y-4.8425
X5.1575Y-4.8819
X5.1593Y-4.6074
X5.1593Y-4.8042
X5.1969Y-4.4488
X5.1969Y-4.4882
X5.1969Y-4.5276
X5.1969Y-4.5669
X5.1969Y-4.6457
X5.1969Y-4.685
X5.1969Y-4.7244
X5.1969Y-4.7638
X5.1969Y-4.8425
X5.1969Y-4.8819
X5.1987Y-4.6074
X5.1987Y-4.8042
X5.2303Y-3.8602
X5.2362Y-4.4488
X5.2362Y-4.4882
X5.2362Y-4.5276
X5.2362Y-4.5669
X5.2362Y-4.6457
X5.2362Y-4.685
X5.2362Y-4.7244
X5.2362Y-4.7638
X5.2362Y-4.8425
X5.2362Y-4.8819
X5.2381Y-4.6074
X5.2381Y-4.8042
X5.2382Y-3.624
X5.2382Y-3.689
X5.2402Y-3.7165
X5.2451Y-4.1593
X5.2756Y-4.4488
X5.2756Y-4.4882
X5.2756Y-4.5276
X5.2756Y-4.5669
X5.2756Y-4.6457
X5.2756Y-4.685
X5.2756Y-4.7244
X5.2756Y-4.7638
X5.2756Y-4.8425
X5.2756Y-4.8819
X5.2774Y-4.6074
X5.2774Y-4.8042
X5.315Y-4.4488
X5.315Y-4.4882
X5.315Y-4.5276
X5.315Y-4.5669
X5.315Y-4.6457
X5.315Y-4.685
X5.315Y-4.7244
X5.315Y-4.7638
X5.315Y-4.8425
X5.315Y-4.8819
X5.3168Y-4.6074
X5.3168Y-4.8042
X5.3307Y-3.8602
X5.3386Y-3.622
X5.3386Y-3.689
X5.3386Y-3.7205
X5.3543Y-4.4488
X5.3543Y-4.4882
X5.3543Y-4.5276
X5.3543Y-4.5669
X5.3543Y-4.6457
X5.3543Y-4.685
X5.3543Y-4.7244
X5.3543Y-4.7638
X5.3543Y-4.8425
X5.3543Y-4.8819
X5.3562Y-4.6074
X5.3562Y-4.8042
X5.3937Y-4.4488
X5.3937Y-4.4882
X5.3937Y-4.5276
X5.3937Y-4.5669
X5.3937Y-4.6457
X5.3937Y-4.685
X5.3937Y-4.7244
X5.3937Y-4.7638
X5.3937Y-4.8425
X5.3937Y-4.8819
X5.3956Y-4.6074
X5.3956Y-4.8042
X5.4173Y-5.3268
X5.4272Y-3.8602
X5.4331Y-4.4488
X5.4331Y-4.4882
X5.4331Y-4.5276
X5.4331Y-4.5669
X5.4331Y-4.6457
X5.4331Y-4.685
X5.4331Y-4.7244
X5.4331Y-4.7638
X5.4331Y-4.8425
X5.4331Y-4.8819
X5.4349Y-4.6074
X5.4349Y-4.8042
X5.4724Y-4.4488
X5.4724Y-4.4882
X5.4724Y-4.5276
X5.4724Y-4.5669
X5.4724Y-4.6457
X5.4724Y-4.685
X5.4724Y-4.7244
X5.4724Y-4.7638
X5.4724Y-4.8425
X5.4724Y-4.8819
X5.4743Y-4.6074
X5.4743Y-4.8042
X5.5118Y-4.4488
X5.5118Y-4.4882
X5.5118Y-4.5276
X5.5118Y-4.5669
X5.5118Y-4.6457
X5.5118Y-4.685
X5.5118Y-4.7244
X5.5118Y-4.7638
X5.5118Y-4.8425
X5.5118Y-4.8819
X5.5137Y-4.6074
X5.5137Y-4.8042
X5.5295Y-3.8583
X5.6299Y-3.8583
X5.6457Y-3.7047
X5.6516Y-3.624
X5.7126Y-4.7441
X5.7165Y-4.2244
X5.7343Y-3.8563
X5.7362Y-5.2047
X5.7402Y-4.1929
X5.7677Y-4.1614
X5.7913Y-5.3543
X5.8268Y-3.6811
X5.8268Y-3.7087
X5.8268Y-4.811
X5.8307Y-4.685
X5.8327Y-3.6201
X5.8346Y-3.8602
X5.8386Y-4.2205
X5.878Y-5.2598
X5.9134Y-4.7598
X5.9173Y-4.7244
X5.9331Y-5.0472
X5.9449Y-4.1378
X5.9528Y-5.4134
X5.9724Y-4.6929
X5.9744Y-3.8681
X5.9764Y-4.9173
X5.9921Y-5.0866
X6.0315Y-4.4449
X6.0472Y-4.4921
X6.0591Y-3.9803
X6.0827Y-4.252
X6.0827Y-4.7441
X6.0984Y-3.9488
X6.122Y-5.2874
X6.1228Y-4.1972
X6.1614Y-4.0748
X6.1614Y-4.1929
X6.185Y-4.4409
X6.2126Y-5.0
X6.2795Y-4.9173
X6.2953Y-4.1851
X6.3622Y-3.8144
X6.3701Y-4.4134
X6.3735Y-3.9651
X6.3976Y-4.1811
X6.4331Y-4.4961
X6.4724Y-4.4764
X6.4724Y-4.5197
X6.4753Y-4.4499
X6.4764Y-4.3701
X6.4764Y-4.3976
X6.4764Y-4.4232
X6.4961Y-4.8386
X6.5039Y-4.2691
X6.5079Y-4.3346
X6.5354Y-3.9049
X6.5354Y-4.2199
X6.5354Y-4.3007
X6.5433Y-4.374
X6.5433Y-4.3996
X6.5551Y-3.8852
X6.5787Y-3.8616
X6.5846Y-4.5197
X6.622Y-4.8425
X6.6238Y-4.2474
X6.6496Y-4.7638
X6.685Y-4.685
X6.7205Y-4.0394
X6.7205Y-4.6063
X6.8051Y-4.0963
X6.8346Y-4.2559
T2
X6.2118Y-3.775
X6.2118Y-3.8144
X6.2118Y-3.8537
T3
X3.5787Y-4.2165
X3.6875Y-4.5719
X4.1063Y-4.0472
X4.1339Y-4.6417
X4.1693Y-4.3071
X4.3214Y-4.5798
X4.6063Y-4.3543
X4.6969Y-5.1063
X4.8898Y-4.9409
X5.5472Y-5.0079
X5.7047Y-4.9055
X5.7126Y-5.0079
X5.7402Y-4.4961
X5.7441Y-4.5472
X5.7559Y-5.0
X5.7992Y-5.1811
X5.8268Y-4.6024
X5.8346Y-4.9449
X5.8346Y-5.0118
X5.9173Y-4.6732
X5.9409Y-4.9567
X6.0157Y-4.9606
X6.0157Y-5.0197
X6.189Y-4.5591
X6.2047Y-4.9213
X6.2283Y-4.7717
T5
X3.8268Y-4.2913
X3.9268Y-4.2913
X4.0846Y-4.2815
X4.0846Y-4.3815
X4.4862Y-4.2553
X4.4862Y-4.3553
X4.6378Y-4.5556
X4.7378Y-4.5656
X4.8378Y-4.5556
X5.187Y-5.3268
X5.2854Y-5.3268
X6.4291Y-5.2628
X6.5276Y-5.2628
X6.925Y-3.9606
X6.925Y-4.0606
X6.925Y-4.1606
X6.925Y-4.2606
T6
X3.2283Y-3.622
X3.5571Y-4.9786
X3.8406Y-4.9786
X4.2087Y-5.018
X4.4921Y-5.018
T4
G00X3.4331Y-5.2365
M15
G01X3.4331Y-5.1932
M16
G05
G00X3.9646Y-5.2365
M15
G01X3.9646Y-5.1932
M16
G05
G00X4.0846Y-5.2758
M15
G01X4.0846Y-5.2325
M16
G05
G00X4.6161Y-5.2758
M15
G01X4.6161Y-5.2325
M16
G05
M30
